<?xml version="1.0" encoding="UTF-8"?>
<!DOCTYPE svg PUBLIC "-//W3C//DTD SVG 1.1//EN" "http://www.w3.org/Graphics/SVG/1.1/DTD/svg11.dtd">
<svg xmlns="http://www.w3.org/2000/svg" version="1.1" width="356px" height="136px" style="shape-rendering:geometricPrecision; text-rendering:geometricPrecision; image-rendering:optimizeQuality; fill-rule:evenodd; clip-rule:evenodd" xmlns:xlink="http://www.w3.org/1999/xlink">
<g><path style="opacity:0.995" fill="#fbfbfb" d="M 149.5,6.5 C 176.794,3.79406 189.794,16.1274 188.5,43.5C 179.833,43.5 171.167,43.5 162.5,43.5C 162.665,39.8183 162.499,36.1516 162,32.5C 157.674,28.3983 154.508,29.2316 152.5,35C 153.137,37.245 153.97,39.4117 155,41.5C 163.097,49.9843 171.43,58.3176 180,66.5C 191.91,84.6936 192.577,103.36 182,122.5C 176.044,128.321 168.877,131.321 160.5,131.5C 152.434,131.395 144.767,129.228 137.5,125C 132.966,120.411 130.132,114.911 129,108.5C 128.814,101.586 128.314,94.7529 127.5,88C 128.38,86.6439 128.714,85.1439 128.5,83.5C 136.833,83.5 145.167,83.5 153.5,83.5C 153.334,90.175 153.5,96.8417 154,103.5C 156.154,107.884 159.154,108.55 163,105.5C 165.154,95.2993 162.488,86.6326 155,79.5C 145.585,72.0868 137.585,63.4201 131,53.5C 126.822,41.3966 127.489,29.3966 133,17.5C 137.352,11.9209 142.852,8.25424 149.5,6.5 Z"/></g>
<g><path style="opacity:0.977" fill="#fefefe" d="M 218.5,7.5 C 218.333,47.5014 218.5,87.5014 219,127.5C 219.383,128.056 219.883,128.389 220.5,128.5C 220.389,129.117 220.056,129.617 219.5,130C 211.507,130.5 203.507,130.666 195.5,130.5C 195.5,89.5 195.5,48.5 195.5,7.5C 203.167,7.5 210.833,7.5 218.5,7.5 Z"/></g>
<g><path style="opacity:0.992" fill="#fcfcfc" d="M 228.5,7.5 C 245.5,7.5 262.5,7.5 279.5,7.5C 279.5,15.5 279.5,23.5 279.5,31.5C 271.5,31.5 263.5,31.5 255.5,31.5C 255.445,37.8941 255.445,44.2274 255.5,50.5C 263.167,50.5 270.833,50.5 278.5,50.5C 278.26,58.6559 278.26,66.6559 278.5,74.5C 270.833,74.5 263.167,74.5 255.5,74.5C 255.103,93.117 255.103,111.284 255.5,129C 251.174,130.14 246.674,130.64 242,130.5C 237.585,130.486 233.252,130.152 229,129.5C 228.61,88.7498 228.443,48.0831 228.5,7.5 Z"/></g>
<g><path style="opacity:0.995" fill="#fcfcfc" d="M 336.5,7.5 C 336.783,8.28913 337.283,8.9558 338,9.5C 339.494,8.25278 340.994,8.25278 342.5,9.5C 342.099,12.5549 341.099,15.7215 339.5,19C 339.833,19.3333 340.167,19.6667 340.5,20C 340.004,21.9964 339.004,23.6631 337.5,25C 338.86,26.9376 338.527,28.6043 336.5,30C 336.957,30.414 337.291,30.914 337.5,31.5C 336.787,33.7759 336.287,36.1093 336,38.5C 335.044,43.1364 333.544,47.6364 331.5,52C 332.214,53.3431 331.88,54.6764 330.5,56C 331.252,59.4646 330.585,62.7979 328.5,66C 328.645,66.772 328.978,67.4387 329.5,68C 327.283,74.3651 325.45,80.8651 324,87.5C 323.186,101.575 323.352,115.575 324.5,129.5C 316.765,130.827 308.932,130.827 301,129.5C 301.488,116.853 301.488,104.186 301,91.5C 294.495,63.4811 287.995,35.4811 281.5,7.5C 290.167,7.5 298.833,7.5 307.5,7.5C 308.898,19.8872 310.731,32.2205 313,44.5C 315.269,32.2224 317.102,19.8891 318.5,7.5C 324.5,7.5 330.5,7.5 336.5,7.5 Z"/></g>
<g><path style="opacity:0.989" fill="#fcfcfc" d="M 3.5,15.5 C 3.5,14.1667 3.5,12.8333 3.5,11.5C 6.0373,9.97479 8.5373,8.30812 11,6.5C 25.1302,7.4747 39.2968,7.80804 53.5,7.5C 53.5,15.5 53.5,23.5 53.5,31.5C 45.5,31.5 37.5,31.5 29.5,31.5C 29.5,39.1667 29.5,46.8333 29.5,54.5C 37.1667,54.5 44.8333,54.5 52.5,54.5C 52.5,62.5 52.5,70.5 52.5,78.5C 44.8333,78.5 37.1667,78.5 29.5,78.5C 29.5,87.5 29.5,96.5 29.5,105.5C 37.84,105.334 46.1733,105.5 54.5,106C 54.5618,113.957 54.5618,122.123 54.5,130.5C 37.2563,130.825 20.0896,130.492 3,129.5C 2.31177,91.595 2.47844,53.595 3.5,15.5 Z"/></g>
<g><path style="opacity:0.992" fill="#fcfcfc" d="M 70.5,7.5 C 84.7454,7.17649 98.9121,7.50983 113,8.5C 117.032,49.1534 120.865,89.8201 124.5,130.5C 116.167,130.5 107.833,130.5 99.5,130.5C 99.4728,123.814 99.1395,117.148 98.5,110.5C 93.8333,110.5 89.1667,110.5 84.5,110.5C 84.3877,117.18 84.0543,123.847 83.5,130.5C 75.1667,130.5 66.8333,130.5 58.5,130.5C 62.0397,89.4365 66.0397,48.4365 70.5,7.5 Z M 91.5,41.5 C 93.5087,57.5233 95.1753,73.8567 96.5,90.5C 92.9521,90.9051 89.6188,90.4051 86.5,89C 87.6233,73.1045 89.29,57.2711 91.5,41.5 Z"/></g>
<g><path style="opacity:0.18" fill="#322936" d="M 3.5,11.5 C 3.5,12.8333 3.5,14.1667 3.5,15.5C 2.0357,16.4054 0.702365,16.4054 -0.5,15.5C -0.5,14.8333 -0.5,14.1667 -0.5,13.5C 0.833333,12.8333 2.16667,12.1667 3.5,11.5 Z"/></g>
<g><path style="opacity:0.435" fill="#ededed" d="M 218.5,7.5 C 220.494,47.4862 221.161,87.8195 220.5,128.5C 219.883,128.389 219.383,128.056 219,127.5C 218.5,87.5014 218.333,47.5014 218.5,7.5 Z"/></g>
<g><path style="opacity:0.815" fill="#ebebeb" d="M 324.5,129.5 C 323.352,115.575 323.186,101.575 324,87.5C 325.45,80.8651 327.283,74.3651 329.5,68C 328.978,67.4387 328.645,66.772 328.5,66C 330.585,62.7979 331.252,59.4646 330.5,56C 331.88,54.6764 332.214,53.3431 331.5,52C 333.544,47.6364 335.044,43.1364 336,38.5C 336.287,36.1093 336.787,33.7759 337.5,31.5C 337.291,30.914 336.957,30.414 336.5,30C 338.527,28.6043 338.86,26.9376 337.5,25C 339.004,23.6631 340.004,21.9964 340.5,20C 340.167,19.6667 339.833,19.3333 339.5,19C 341.099,15.7215 342.099,12.5549 342.5,9.5C 340.994,8.25278 339.494,8.25278 338,9.5C 337.283,8.9558 336.783,8.28913 336.5,7.5C 338.792,7.75642 340.959,7.42308 343,6.5C 343.944,7.26304 344.444,8.26304 344.5,9.5C 338.228,35.1479 332.061,60.8146 326,86.5C 325.831,101.006 325.331,115.339 324.5,129.5 Z"/></g>
</svg>
