<?xml version="1.0" encoding="UTF-8"?>
<svg version="1.1" xmlns="http://www.w3.org/2000/svg" width="195" height="124">
<path d="M0 0 C4.33954399 4.48419546 4.12967622 9.27082521 4.0625 15.1875 C4.05798828 15.93708984 4.05347656 16.68667969 4.04882812 17.45898438 C4.03706354 19.30602383 4.01912865 21.15302213 4 23 C4.57967529 23.01458252 5.15935059 23.02916504 5.7565918 23.04418945 C8.40087553 23.11898528 11.04394002 23.21553898 13.6875 23.3125 C14.59951172 23.33505859 15.51152344 23.35761719 16.45117188 23.38085938 C21.88337963 23.59814769 25.96104757 23.96104757 30 28 C30.33716679 31.57396799 30.5703055 34.05400364 28.68359375 37.18359375 C24.37530616 40.0996836 19.83779613 39.67897747 14.75 39.75 C13.203125 39.79447266 13.203125 39.79447266 11.625 39.83984375 C9.08325505 39.91044778 6.54242217 39.96319009 4 40 C3.92374182 46.99252309 3.87131271 53.98493835 3.83520508 60.9777832 C3.82014748 63.35510262 3.79969711 65.73239439 3.77368164 68.10961914 C3.73716597 71.53278439 3.72024291 74.95558132 3.70703125 78.37890625 C3.69154739 79.43646622 3.67606354 80.49402618 3.66011047 81.58363342 C3.65876762 87.51292292 4.0861522 91.78812893 7 97 C10.35192275 99.96884586 13.471114 100.52855629 17.9375 100.359375 C21.58702048 99.7234737 23.97051128 98.1206421 27 96 C29.25039617 92.62440574 29.17616009 92.02024357 28.6875 88.1875 C28.58824219 87.35605469 28.48898438 86.52460937 28.38671875 85.66796875 C28.11695737 83.80688769 27.80778161 81.95127909 27.46875 80.1015625 C26.16073883 71.44688858 26.32749638 62.36875418 29 54 C29.38478516 52.78570312 29.38478516 52.78570312 29.77734375 51.546875 C34.1535925 39.30089137 42.13283253 32.65607871 53.0625 26.1875 C66.63296572 20.70156705 82.57047801 21.4913757 96 27 C98.83407517 28.48354116 99.91984361 29.44437929 102 32 C103.09586349 35.67436581 103.47768737 37.78985866 102.0625 41.375 C98.86903433 43.89106386 95.94045136 44.28982976 92 44 C89.87905365 43.41160843 87.77510173 42.7600221 85.6875 42.0625 C76.42848682 38.97973029 67.92632713 38.72936506 59 43 C52.52459373 46.93603126 49.53987628 52.97604246 47 60 C44.98539436 69.90808974 45.30996732 80.24406563 50.8125 88.9375 C55.43811521 95.20554379 60.87132784 99.05197272 68.578125 100.4765625 C77.36214335 101.53162616 84.6950524 100.58852281 92.08984375 95.53125 C102.8666466 86.89217696 106.36920262 74.34961393 110.375 61.625 C120.02599615 31.90548465 120.02599615 31.90548465 132.1875 25.625 C141.27088145 21.50433386 152.52818625 21.66266285 161.90234375 25.02734375 C165.39661544 26.64759263 167.44874864 28.04591948 170 31 C170.54856752 34.53521291 170.72258556 36.724849 168.9375 39.875 C165.96083112 41.60338838 163.41909466 41.82614773 160 42 C159.07316406 41.67902344 158.14632812 41.35804687 157.19140625 41.02734375 C153.71042173 39.90678203 150.89698879 39.7331936 147.25 39.75 C146.12078125 39.74484375 144.9915625 39.7396875 143.828125 39.734375 C140.86542565 39.70931697 140.86542565 39.70931697 139 42 C138.71917656 44.10749466 138.71917656 44.10749466 138.8125 46.4375 C138.81894531 47.21996094 138.82539063 48.00242188 138.83203125 48.80859375 C138.92444331 51.17799677 138.92444331 51.17799677 140 54 C141.85058825 55.08187354 141.85058825 55.08187354 144 56 C168.62199692 71.67375438 168.62199692 71.67375438 172 83 C173.80702224 91.31536508 172.80873978 98.41603104 168.4375 105.75 C163.89483392 112.11417522 157.36034395 114.90753314 150 117 C138.9350698 118.03147654 126.90815059 117.2228248 118 110 C117 109 117 109 116.6875 105.6875 C117 102 117 102 118.375 99.5 C123.54971957 96.54301739 129.68233201 98.59230894 135.1875 100.0625 C140.82590978 101.44899421 145.80311855 101.88715636 151 99 C153.87970002 96.41819998 154.00129595 94.98639257 154.375 91.0625 C154.42036669 87.25925944 153.29277557 85.0249993 151 82 C148.56006978 80.01571496 145.95411361 78.3272727 143.3125 76.625 C137.50665988 72.77204523 132.03293626 68.85082344 127 64 C125.25740846 67.14817245 124.13427537 70.43203576 122.99658203 73.83764648 C117.6643828 89.7278792 110.24350175 104.61051071 95 113 C82.4728545 119.09184421 68.28981683 118.52890215 55.2421875 114.35546875 C50.83960635 112.51487157 47.0037298 110.13280382 43.109375 107.390625 C41.14278871 105.81652955 41.14278871 105.81652955 39 106 C37.82338091 107.04981553 36.68333164 108.14081941 35.5625 109.25 C28.36730959 115.64140337 20.37198032 117.68155755 10.859375 117.32421875 C2.28701134 116.35221577 -4.75554417 113.01546248 -10.25 106.25 C-15.03368899 100.12893559 -15.30412139 92.47516666 -15.39819336 85.01708984 C-15.41627045 84.15749161 -15.43434753 83.29789337 -15.45297241 82.4122467 C-15.50895543 79.5952208 -15.55055437 76.77824269 -15.58984375 73.9609375 C-15.62128805 71.99134165 -15.6528295 70.02174735 -15.6844635 68.05215454 C-15.74773915 63.93522723 -15.80255709 59.81827775 -15.8527832 55.70117188 C-15.91879855 50.43043713 -16.0171107 45.16082886 -16.12312984 39.89076805 C-16.19938607 35.82799754 -16.25286719 31.76515614 -16.30008125 27.70195389 C-16.3264675 25.75860131 -16.36122433 23.81534333 -16.40458488 21.87229538 C-16.46291415 19.15592614 -16.48912708 16.44101432 -16.50756836 13.72412109 C-16.53175339 12.92604538 -16.55593842 12.12796967 -16.58085632 11.30570984 C-16.57345701 7.21783747 -16.20120976 4.74725515 -13.58546448 1.51724243 C-8.89368416 -3.05073698 -6.04447693 -2.30789119 0 0 Z " fill="#EE3A83" transform="translate(21,4)"/>
<path d="M0 0 C1.68359375 1.18359375 1.68359375 1.18359375 4.05859375 3.93359375 C4.60716127 7.46880666 4.78117931 9.65844275 2.99609375 12.80859375 C0.01942487 14.53698213 -2.52231159 14.75974148 -5.94140625 14.93359375 C-6.86824219 14.61261719 -7.79507813 14.29164062 -8.75 13.9609375 C-12.23098452 12.84037578 -15.04441746 12.66678735 -18.69140625 12.68359375 C-19.820625 12.6784375 -20.94984375 12.67328125 -22.11328125 12.66796875 C-25.0759806 12.64291072 -25.0759806 12.64291072 -26.94140625 14.93359375 C-27.22222969 17.04108841 -27.22222969 17.04108841 -27.12890625 19.37109375 C-27.12246094 20.15355469 -27.11601562 20.93601562 -27.109375 21.7421875 C-27.01696294 24.11159052 -27.01696294 24.11159052 -25.94140625 26.93359375 C-24.090818 28.01546729 -24.090818 28.01546729 -21.94140625 28.93359375 C2.68059067 44.60734813 2.68059067 44.60734813 6.05859375 55.93359375 C7.86561599 64.24895883 6.86733353 71.34962479 2.49609375 78.68359375 C-2.04657233 85.04776897 -8.5810623 87.84112689 -15.94140625 89.93359375 C-27.00633645 90.96507029 -39.03325566 90.15641855 -47.94140625 82.93359375 C-48.94140625 81.93359375 -48.94140625 81.93359375 -49.25390625 78.62109375 C-48.94140625 74.93359375 -48.94140625 74.93359375 -47.56640625 72.43359375 C-42.39168668 69.47661114 -36.25907424 71.52590269 -30.75390625 72.99609375 C-25.11549647 74.38258796 -20.1382877 74.82075011 -14.94140625 71.93359375 C-12.06170623 69.35179373 -11.9401103 67.91998632 -11.56640625 63.99609375 C-11.52105409 60.1940708 -12.65019757 57.95798921 -14.94140625 54.93359375 C-17.36097476 52.97041533 -19.94785563 51.30530609 -22.56640625 49.62109375 C-39.85097794 38.06053267 -39.85097794 38.06053267 -43.94140625 26.93359375 C-44.27140625 26.60359375 -44.60140625 26.27359375 -44.94140625 25.93359375 C-47.18783797 13.70302106 -47.18783797 13.70302106 -44.65625 8.078125 C-34.10490354 -5.76616914 -15.06739453 -8.27645615 0 0 Z " fill="#ED2D6D" transform="translate(186.94140625,31.06640625)"/>
<path d="M0 0 C4.33954399 4.48419546 4.12967622 9.27082521 4.0625 15.1875 C4.05798828 15.93708984 4.05347656 16.68667969 4.04882812 17.45898438 C4.03706354 19.30602383 4.01912865 21.15302213 4 23 C4.57967529 23.01458252 5.15935059 23.02916504 5.7565918 23.04418945 C8.40087553 23.11898528 11.04394002 23.21553898 13.6875 23.3125 C14.59951172 23.33505859 15.51152344 23.35761719 16.45117188 23.38085938 C21.88337963 23.59814769 25.96104757 23.96104757 30 28 C30.3125 31.3125 30.3125 31.3125 30 35 C26 39 26 39 4 40 C3.67 56.17 3.34 72.34 3 89 C2.67 89 2.34 89 2 89 C1.67 87.35 1.34 85.7 1 84 C0.979375 85.299375 0.95875 86.59875 0.9375 87.9375 C0.92589844 88.66839844 0.91429688 89.39929688 0.90234375 90.15234375 C0.79438816 92.01732141 0.79438816 92.01732141 2 93 C2.23481693 95.18292774 2.41363323 97.37203174 2.5625 99.5625 C2.68818359 101.35880859 2.68818359 101.35880859 2.81640625 103.19140625 C2.87699219 104.11824219 2.93757813 105.04507813 3 106 C3.66 106 4.32 106 5 106 C4.67 107.32 4.34 108.64 4 110 C2.515 109.505 2.515 109.505 1 109 C0.01 109 -0.98 109 -2 109 C-2.495 109.99 -2.495 109.99 -3 111 C-4.32 108.36 -5.64 105.72 -7 103 C-6.505 102.505 -6.505 102.505 -6 102 C-7.37485532 100.45833358 -7.37485532 100.45833358 -9 99 C-9.66 99 -10.32 99 -11 99 C-10.979375 98.0925 -10.95875 97.185 -10.9375 96.25 C-10.86935708 93.19602617 -10.86935708 93.19602617 -11.49780273 91.09472656 C-12.0628377 88.73789622 -12.11318289 86.6565303 -12.09765625 84.234375 C-12.09515869 83.43225586 -12.09266113 82.63013672 -12.09008789 81.80371094 C-12.07643188 80.29212402 -12.07643188 80.29212402 -12.0625 78.75 C-12.041875 75.5325 -12.02125 72.315 -12 69 C-12.33 77.25 -12.66 85.5 -13 94 C-13.66 94 -14.32 94 -15 94 C-15.24667898 82.49991337 -15.4659107 70.99966127 -15.65021229 59.49839592 C-15.73665382 54.15774328 -15.83250624 48.81760702 -15.94995117 43.47753906 C-16.06296684 38.3230559 -16.15115007 33.16868844 -16.22220421 28.01346207 C-16.25364673 26.04774983 -16.29400215 24.0821591 -16.34345436 22.11681747 C-16.41125766 19.36136267 -16.44720969 16.60717631 -16.47583008 13.85107422 C-16.5031572 13.04043015 -16.53048431 12.22978607 -16.55863953 11.39457703 C-16.56702636 7.27359729 -16.22604635 4.76781693 -13.58744812 1.50930786 C-8.88948444 -3.04677854 -6.0428358 -2.30726458 0 0 Z " fill="#E7204A" transform="translate(21,4)"/>
<path d="M0 0 C0 0.66 0 1.32 0 2 C0.59167969 2.19335938 1.18335938 2.38671875 1.79296875 2.5859375 C5.9146645 3.94414719 9.9950524 5.32050585 14 7 C14 7.66 14 8.32 14 9 C15.32 9.66 16.64 10.32 18 11 C18 13.31 18 15.62 18 18 C15.4571554 19.2714223 14.00244154 18.97026024 11.1875 18.6875 C10.33542969 18.60886719 9.48335937 18.53023437 8.60546875 18.44921875 C6 18 6 18 3.76171875 16.984375 C-6.76507883 13.23224913 -20.52069629 15.47571705 -30.65625 19.38671875 C-39.09382211 23.45765015 -46.23981485 28.80594083 -51 37 C-51.33 37.99 -51.66 38.98 -52 40 C-52.66 40 -53.32 40 -54 40 C-54.99405356 31.25232869 -50.83855906 23.15490415 -45.8125 16.1875 C-33.52757893 1.40804256 -17.87385654 -0.36937935 0 0 Z " fill="#FC6F03" transform="translate(103,27)"/>
<path d="M0 0 C2.07786782 3.11680172 2.24955914 3.80716242 2.23046875 7.34375 C2.22853516 8.17777344 2.22660156 9.01179688 2.22460938 9.87109375 C2.21236328 10.73863281 2.20011719 11.60617188 2.1875 12.5 C2.18685547 13.36753906 2.18621094 14.23507813 2.18554688 15.12890625 C2.14069283 21.57792152 2.14069283 21.57792152 1 25 C1.66 25.33 2.32 25.66 3 26 C2.67 27.98 2.34 29.96 2 32 C2.99 31.67 3.98 31.34 5 31 C6.5 32.25 6.5 32.25 8 34 C8 35.32 8 36.64 8 38 C8.61344757 39.68698082 9.27095914 41.35965807 10 43 C11.98 42.34 13.96 41.68 16 41 C16.05270463 39.63106761 16.05270463 39.63106761 15 37 C14.69760965 34.13569136 14.49234231 31.27080066 14.28125 28.3984375 C14.25714407 26.05049709 14.25714407 26.05049709 13 25 C12.92680379 22.30345146 12.90757463 19.63308542 12.9375 16.9375 C12.94201172 16.17888672 12.94652344 15.42027344 12.95117188 14.63867188 C12.9629932 12.75908129 12.98092922 10.87953101 13 9 C13.33 9 13.66 9 14 9 C14.14695312 10.2684375 14.14695312 10.2684375 14.296875 11.5625 C15.73421661 22.9598728 15.73421661 22.9598728 22.25 32 C26.61536188 33.58740432 30.58534434 33.90916185 34.9296875 32.2734375 C38.88097634 30.18756399 41.47230735 27.63987742 44 24 C47.40899696 27.94307315 50.77340432 31.90470548 54 36 C51.07051804 41.85896393 44.60462488 46.11253887 38.6875 48.5 C29.6378197 51.34780149 20.62171442 50.9752815 12 47 C6.7707956 44.23159767 2.66420916 40.31106191 0 35 C-1.49565755 27.70656882 -0.90233093 20.39815846 -0.5625 13 C-0.51029297 11.74832031 -0.45808594 10.49664062 -0.40429688 9.20703125 C-0.27543258 6.13771802 -0.14050459 3.06879871 0 0 Z " fill="#D92C92" transform="translate(8,71)"/>
<path d="M0 0 C1.68359375 1.18359375 1.68359375 1.18359375 4.05859375 3.93359375 C4.60716127 7.46880666 4.78117931 9.65844275 2.99609375 12.80859375 C0.01942487 14.53698213 -2.52231159 14.75974148 -5.94140625 14.93359375 C-6.86824219 14.61261719 -7.79507813 14.29164062 -8.75 13.9609375 C-12.23098452 12.84037578 -15.04441746 12.66678735 -18.69140625 12.68359375 C-19.820625 12.6784375 -20.94984375 12.67328125 -22.11328125 12.66796875 C-25.0759806 12.64291072 -25.0759806 12.64291072 -26.94140625 14.93359375 C-27.18456281 17.60308784 -27.18456281 17.60308784 -27.06640625 20.55859375 C-27.03933594 22.06292969 -27.03933594 22.06292969 -27.01171875 23.59765625 C-26.98851562 24.36851563 -26.9653125 25.139375 -26.94140625 25.93359375 C-32.56511981 23.51812207 -36.3742224 18.65913089 -39.37890625 13.43359375 C-40.19267968 9.81682293 -40.90881332 6.58167842 -39.94140625 2.93359375 C-30.68056217 -7.68835422 -11.3032913 -6.20885015 0 0 Z " fill="#FDB512" transform="translate(186.94140625,31.06640625)"/>
<path d="M0 0 C6.42104188 4.80258749 9.5601613 9.28404773 10.8125 17.375 C11.42709392 25.25783509 9.42523965 31.56424249 4.83984375 37.98828125 C-0.17174755 43.46804669 -7.92100574 46.61975477 -15.2265625 47.30078125 C-25.53335346 47.33632191 -35.72513089 46.70935333 -44 40 C-45 39 -45 39 -45.3125 35.6875 C-45 32 -45 32 -43.625 29.5 C-38.45028043 26.54301739 -32.31766799 28.59230894 -26.8125 30.0625 C-21.13144958 31.45947961 -16.2487225 31.8371473 -11 29 C-8.72808584 26.97959252 -8.72808584 26.97959252 -7 25 C-7.165 26.0725 -7.33 27.145 -7.5 28.25 C-8.30191433 33.25680721 -8.30191433 33.25680721 -7 38 C-6.34 38.66 -5.68 39.32 -5 40 C-5.33 40.33 -5.66 40.66 -6 41 C-3.51141113 40.57093295 -2.25103592 40.25103592 -0.4375 38.4375 C0.036875 37.963125 0.51125 37.48875 1 37 C1.99 37 2.98 37 4 37 C4.33 35.02 4.66 33.04 5 31 C5.66 31 6.32 31 7 31 C8.1106997 15.84191118 8.1106997 15.84191118 1 3 C0.505 1.515 0.505 1.515 0 0 Z " fill="#CD2699" transform="translate(183,74)"/>
<path d="M0 0 C0.66 0 1.32 0 2 0 C2.02578125 0.85722656 2.0515625 1.71445312 2.078125 2.59765625 C2.24997007 10.08833718 2.24997007 10.08833718 5.125 16.8125 C7.50771491 20.86311534 6.91390775 23.59801103 6 28 C5.23959405 30.8247945 4.31128464 33.56378649 3.3125 36.3125 C3.04775879 37.04944092 2.78301758 37.78638184 2.51025391 38.5456543 C-0.44587057 46.54011142 -3.70142032 54.09339201 -10 60 C-10.495 58.515 -10.495 58.515 -11 57 C-10.2884375 56.319375 -10.2884375 56.319375 -9.5625 55.625 C-7.90972192 54.06741796 -7.90972192 54.06741796 -7 52 C-7.99 52 -8.98 52 -10 52 C-10.495 50.515 -10.495 50.515 -11 49 C-11.66 49 -12.32 49 -13 49 C-13 49.99 -13 50.98 -13 52 C-14.65 52 -16.3 52 -18 52 C-17.56372714 48.94608998 -16.98797114 46.98010612 -15.375 44.3125 C-14.92125 43.549375 -14.4675 42.78625 -14 42 C-14.33 41.34 -14.66 40.68 -15 40 C-14.35386027 37.64313382 -13.63982511 35.38763637 -12.83203125 33.0859375 C-12.5959465 32.39746735 -12.35986176 31.70899719 -12.11662292 30.99966431 C-11.61320569 29.5374186 -11.10603843 28.07645949 -10.59545898 26.61669922 C-9.82398451 24.40788143 -9.06635098 22.19469028 -8.31054688 19.98046875 C-5.93894421 13.09705804 -3.51837089 6.39856472 0 0 Z " fill="#AA14B2" transform="translate(140,44)"/>
<path d="M0 0 C4.07004103 4.20570907 4.13676322 8.3536541 4.125 14 C4.12886719 15.85625 4.12886719 15.85625 4.1328125 17.75 C4 21 4 21 3 24 C2.34 24 1.68 24 1 24 C1 24.66 1 25.32 1 26 C-0.051875 26.226875 -1.10375 26.45375 -2.1875 26.6875 C-6.18102487 27.80084633 -8.1958753 29.96219824 -11 33 C-12.485 33.495 -12.485 33.495 -14 34 C-15.66036021 27.26961127 -16.2853132 20.59649884 -16.4375 13.6875 C-16.47166016 12.92324707 -16.50582031 12.15899414 -16.54101562 11.37158203 C-16.5732885 7.26844437 -16.22186031 4.75841673 -13.58984375 1.51953125 C-8.89408499 -3.04874084 -6.04839593 -2.30938754 0 0 Z " fill="#F99F12" transform="translate(21,4)"/>
<path d="M0 0 C0.33 0 0.66 0 1 0 C1.11214844 0.60585938 1.22429687 1.21171875 1.33984375 1.8359375 C2.99336846 8.86071566 6.08563468 12.87738615 11.13671875 17.96875 C13 20 13 20 13 22 C13.5775 22.04125 14.155 22.0825 14.75 22.125 C18.16879475 23.45453129 19.22666645 25.89666629 21 29 C21 29.66 21 30.32 21 31 C22.65 30.67 24.3 30.34 26 30 C26 30.99 26 31.98 26 33 C27.32 33.33 28.64 33.66 30 34 C29.38722388 36.96175123 28.74627478 38.38058783 27 41 C27.99 41 28.98 41 30 41 C29.7215625 41.8971875 29.7215625 41.8971875 29.4375 42.8125 C28.77906313 45.16408762 28.77906313 45.16408762 30 48 C25.51288663 46.58976437 23.28213054 44.28213054 20 41 C17.33466965 39.680982 17.33466965 39.680982 15 39 C15.33 38.01 15.66 37.02 16 36 C15.278125 36.0825 14.55625 36.165 13.8125 36.25 C8.9670669 35.81929484 6.35532055 32.5157516 3.3125 29 C0.02824054 24.73933907 -1.30118213 22.42127831 -1 17 C-1.66 17 -2.32 17 -3 17 C-3.3540919 10.48208608 -3.03901852 5.82478551 0 0 Z " fill="#F51235" transform="translate(146,37)"/>
<path d="M0 0 C0.95068359 0.02707031 1.90136719 0.05414062 2.88085938 0.08203125 C8.39511529 0.32094381 12.58863198 0.65113198 16.6875 4.75 C17.15574737 11.07133953 17.15574737 11.07133953 15.51831055 13.44458008 C13.01195683 15.23168147 11.20673112 15.18070817 8.14453125 15.26171875 C7.07138672 15.29716797 5.99824219 15.33261719 4.89257812 15.36914062 C3.77302734 15.39169922 2.65347656 15.41425781 1.5 15.4375 C-0.19672852 15.48874023 -0.19672852 15.48874023 -1.92773438 15.54101562 C-4.72230557 15.6235557 -7.51738768 15.68845235 -10.3125 15.75 C-10.6425 23.01 -10.9725 30.27 -11.3125 37.75 C-12.3025 36.43 -13.2925 35.11 -14.3125 33.75 C-14.9725 33.42 -15.6325 33.09 -16.3125 32.75 C-16.291875 31.71875 -16.27125 30.6875 -16.25 29.625 C-16.18231736 25.84761237 -16.18231736 25.84761237 -17 22.625 C-17.39904488 18.95378713 -16.5087157 17.65214218 -14.3125 14.75 C-13.9 14.151875 -13.4875 13.55375 -13.0625 12.9375 C-10.23473997 11.01866284 -7.63213003 11.51704351 -4.3125 11.75 C-3.67183594 11.92402344 -3.03117187 12.09804688 -2.37109375 12.27734375 C1.34705219 13.1310357 5.00843813 12.65457668 8.6875 11.75 C11.23656626 9.87567495 11.23656626 9.87567495 12.6875 7.75 C10.48917287 6.01333273 10.48917287 6.01333273 7.6875 4.75 C5.06375345 5.56608777 5.06375345 5.56608777 2.6875 6.75 C1.6975 6.42 0.7075 6.09 -0.3125 5.75 C-1.116875 5.915 -1.92125 6.08 -2.75 6.25 C-5.3125 6.75 -5.3125 6.75 -7.17578125 6.25390625 C-9.65814642 5.66848558 -11.54207149 5.85391387 -14.0625 6.1875 C-14.86171875 6.28933594 -15.6609375 6.39117187 -16.484375 6.49609375 C-17.08765625 6.57988281 -17.6909375 6.66367187 -18.3125 6.75 C-18.3125 8.73 -18.3125 10.71 -18.3125 12.75 C-17.6525 13.08 -16.9925 13.41 -16.3125 13.75 C-17.56226756 17.40316671 -17.98348753 18.53065836 -21.3125 20.75 C-21.6425 21.74 -21.9725 22.73 -22.3125 23.75 C-22.9725 23.75 -23.6325 23.75 -24.3125 23.75 C-24.3125 25.4 -24.3125 27.05 -24.3125 28.75 C-24.6425 28.75 -24.9725 28.75 -25.3125 28.75 C-25.6425 31.39 -25.9725 34.03 -26.3125 36.75 C-26.6425 36.75 -26.9725 36.75 -27.3125 36.75 C-27.45791967 32.52119589 -27.54661527 28.29303587 -27.625 24.0625 C-27.66689453 22.86431641 -27.70878906 21.66613281 -27.75195312 20.43164062 C-27.8730124 11.73958458 -27.8730124 11.73958458 -26.24536133 8.8659668 C-24.9140625 7.53125 -24.9140625 7.53125 -22.3125 5.75 C-21.673125 5.151875 -21.03375 4.55375 -20.375 3.9375 C-17.60884792 2.34486699 -15.44652799 2.53631627 -12.3125 2.75 C-12.3125 2.09 -12.3125 1.43 -12.3125 0.75 C-8.58303942 -1.11473029 -4.0859632 -0.1806253 0 0 Z " fill="#E90F18" transform="translate(34.3125,27.25)"/>
<path d="M0 0 C0.66 0.33 1.32 0.66 2 1 C0.35 4.3 -1.3 7.6 -3 11 C-1.35 11 0.3 11 2 11 C2 10.01 2 9.02 2 8 C2.99 7.67 3.98 7.34 5 7 C5 8.32 5 9.64 5 11 C5.99 11 6.98 11 8 11 C7.34206835 12.67013418 6.67276716 14.3357865 6 16 C5.566875 17.175625 5.13375 18.35125 4.6875 19.5625 C2.27416084 24.47856124 -0.22621725 26.28366466 -5.25 28.3125 C-9.74322024 29.13625704 -13.53018988 28.75003616 -18 28 C-18.66 28.99 -19.32 29.98 -20 31 C-21.875 31.328125 -21.875 31.328125 -24 31.25 C-24.70125 31.23453125 -25.4025 31.2190625 -26.125 31.203125 C-28 31 -28 31 -30 30 C-29.505 28.515 -29.505 28.515 -29 27 C-28.34 27 -27.68 27 -27 27 C-26.67 24.69 -26.34 22.38 -26 20 C-25.34773438 19.82984375 -24.69546875 19.6596875 -24.0234375 19.484375 C-13.4286771 16.54659483 -7.00107192 11.19520813 -1.0625 2 C-0.5365625 1.01 -0.5365625 1.01 0 0 Z " fill="#DF2E8F" transform="translate(125,85)"/>
<path d="M0 0 C-0.61875 1.11375 -1.2375 2.2275 -1.875 3.375 C-5.55873832 10.78152688 -6.19887608 18.58092786 -6.55859375 26.75 C-6.70425781 27.4925 -6.84992188 28.235 -7 29 C-10 31 -10 31 -13 31 C-13.33 33.31 -13.66 35.62 -14 38 C-14.33 37.34 -14.66 36.68 -15 36 C-17.02463255 35.34786708 -17.02463255 35.34786708 -19 35 C-20.76843795 26.8209745 -21.32372717 18.39217871 -17 11 C-13.16755551 5.77123853 -7.15616898 -2.38538966 0 0 Z " fill="#FB0410" transform="translate(71,51)"/>
<path d="M0 0 C7.49610211 0.54517106 13.88657907 2.25722442 19.625 7.3125 C21.52657491 11.0292146 21.24190829 13.05511484 20 17 C17.74254584 19.25745416 16.18561115 19.96783226 12.984375 20.0546875 C8.94889694 19.73015605 5.40823971 18.85451989 1.625 17.4375 C-5.86735699 14.78776399 -13.63101743 15.15916163 -21.0078125 18.046875 C-27.77660369 21.28527706 -30.63514374 25.92074523 -33.80859375 32.57421875 C-35.79432772 38.28401775 -35.98223569 43.99566351 -36 50 C-36.66 50 -37.32 50 -38 50 C-38 51.98 -38 53.96 -38 56 C-38.33 56 -38.66 56 -39 56 C-39.43721744 44.14654946 -38.05863924 34.23930867 -34 23 C-41.15354785 26.44959974 -47.07012715 29.9998749 -50.03125 37.671875 C-50.77285904 40.10270462 -51.43193632 42.52344168 -52 45 C-52.33 45 -52.66 45 -53 45 C-52.87257096 36.97197031 -50.58826183 32.71771964 -45 27 C-40.20674263 22.70325535 -34.9204837 19.49458583 -29 17 C-28.33226563 16.69964844 -27.66453125 16.39929688 -26.9765625 16.08984375 C-21.05323082 13.85560461 -15.19577634 13.68696313 -8.9375 13.625 C-8.09864258 13.61114258 -7.25978516 13.59728516 -6.39550781 13.58300781 C-1.17561983 13.62185539 3.07305563 14.42333995 7.93505859 16.33862305 C11.33354756 17.42711993 14.46058918 17.19305877 18 17 C17.89592083 13.59919423 17.89592083 13.59919423 17 10 C14.53884453 8.15565651 14.53884453 8.15565651 12 7 C12 6.34 12 5.68 12 5 C11.13375 4.896875 10.2675 4.79375 9.375 4.6875 C5.83316877 3.96601586 3.15687958 2.72876739 0 1 C0 0.67 0 0.34 0 0 Z " fill="#D62930" transform="translate(103,28)"/>
<path d="M0 0 C0.99 0.33 1.98 0.66 3 1 C3.33 6.94 3.66 12.88 4 19 C5.65 19.33 7.3 19.66 9 20 C9 18.02 9 16.04 9 14 C12.465 13.505 12.465 13.505 16 13 C18.15393371 18.60835569 19.3720916 23.72936016 19.69140625 29.73828125 C20.02535974 32.18586445 20.78396717 33.86583797 22 36 C21.34 36.66 20.68 37.32 20 38 C19.67 37.34 19.34 36.68 19 36 C16.67843403 35.59270772 14.3431213 35.25561323 12 35 C12 34.01 12 33.02 12 32 C11.2575 32.0825 10.515 32.165 9.75 32.25 C7 32 7 32 4.9375 30.3828125 C-1.3823589 22.61040538 -0.38995773 9.5034143 0 0 Z " fill="#EB1F41" transform="translate(48,67)"/>
<path d="M0 0 C4.69564393 3.31457218 7.72469104 7.36279281 11 12 C8.42894876 17.14210249 2.3466501 21.66758 -2.8125 24.0625 C-5.83906374 24.95266581 -7.15294592 25.2527038 -10 24 C-9.01 23.67 -8.02 23.34 -7 23 C-7.30035156 22.44570312 -7.60070313 21.89140625 -7.91015625 21.3203125 C-8.48056641 20.23363281 -8.48056641 20.23363281 -9.0625 19.125 C-9.44535156 18.40570313 -9.82820313 17.68640625 -10.22265625 16.9453125 C-10.60744141 15.98238281 -10.60744141 15.98238281 -11 15 C-10.67 14.34 -10.34 13.68 -10 13 C-13.63 12.34 -17.26 11.68 -21 11 C-21 10.67 -21 10.34 -21 10 C-19.93072266 9.96132812 -19.93072266 9.96132812 -18.83984375 9.921875 C-12.45087859 9.54352444 -8.16221199 8.87165899 -3 5 C-1.06305417 2.41796279 -1.06305417 2.41796279 0 0 Z " fill="#BA1AAB" transform="translate(51,95)"/>
<path d="M0 0 C2.31 0.33 4.62 0.66 7 1 C7 1.66 7 2.32 7 3 C7.90492188 2.96519531 7.90492188 2.96519531 8.828125 2.9296875 C10.02695313 2.90261719 10.02695313 2.90261719 11.25 2.875 C12.03890625 2.85179688 12.8278125 2.82859375 13.640625 2.8046875 C16.20731941 3.0171622 17.7916067 3.71345895 20 5 C20 6.32 20 7.64 20 9 C21.65 9 23.3 9 25 9 C25.33 9.66 25.66 10.32 26 11 C25.01 11.495 25.01 11.495 24 12 C23.34786708 14.02463255 23.34786708 14.02463255 23 16 C15.03132718 16.54538445 9.17133038 15.50257491 2 12 C1.26523438 11.68546875 0.53046875 11.3709375 -0.2265625 11.046875 C-2 10 -2 10 -2.9375 7.125 C-3 4 -3 4 -1.5625 1.625 C-0.7890625 0.820625 -0.7890625 0.820625 0 0 Z " fill="#8107CC" transform="translate(143,103)"/>
<path d="M0 0 C1.32 0 2.64 0 4 0 C5.921875 2.1875 5.921875 2.1875 7.75 5 C8.36359375 5.928125 8.9771875 6.85625 9.609375 7.8125 C10.06828125 8.534375 10.5271875 9.25625 11 10 C11.99 9.67 12.98 9.34 14 9 C14.33 8.34 14.66 7.68 15 7 C15.125 12.75 15.125 12.75 14 15 C13.34 15 12.68 15 12 15 C11.67 16.98 11.34 18.96 11 21 C10.01 21 9.02 21 8 21 C7.67 21.99 7.34 22.98 7 24 C4 26 4 26 1.8125 25.625 C0.9153125 25.315625 0.9153125 25.315625 0 25 C0 24.34 0 23.68 0 23 C-0.66 22.67 -1.32 22.34 -2 22 C-1.67 20.68 -1.34 19.36 -1 18 C-1.66 17.67 -2.32 17.34 -3 17 C-2.68289062 16.47921875 -2.36578125 15.9584375 -2.0390625 15.421875 C-0.71079489 12.32591291 -0.57635753 9.60595879 -0.375 6.25 C-0.30023438 5.07953125 -0.22546875 3.9090625 -0.1484375 2.703125 C-0.09945312 1.81109375 -0.05046875 0.9190625 0 0 Z " fill="#E2328E" transform="translate(176,90)"/>
<path d="M0 0 C0.99 0.495 0.99 0.495 2 1 C2 1.66 2 2.32 2 3 C1.34 3 0.68 3 0 3 C0 2.01 0 1.02 0 0 Z M-4 1 C-3.34 1 -2.68 1 -2 1 C-1.67 2.65 -1.34 4.3 -1 6 C2.3 6.33 5.6 6.66 9 7 C9.66 5.68 10.32 4.36 11 3 C11.66386719 3.08378906 12.32773438 3.16757813 13.01171875 3.25390625 C19.54720848 4.05425042 19.54720848 4.05425042 26 3 C21.82723339 8.31079387 14.50774375 10.78708719 8 12 C-3.12545201 12.73288615 -12.42219157 11.75503817 -23 8 C-22.67 7.34 -22.34 6.68 -22 6 C-19.03 6.33 -16.06 6.66 -13 7 C-12.67 6.34 -12.34 5.68 -12 5 C-9.35139573 4.40644386 -6.70802678 4.25790731 -4 4 C-4 3.01 -4 2.02 -4 1 Z " fill="#E83B84" transform="translate(96,109)"/>
<path d="M0 0 C0.33 0 0.66 0 1 0 C1.11214844 0.60585938 1.22429687 1.21171875 1.33984375 1.8359375 C3.19919003 9.73512106 7.29686312 14.38055695 13 20 C12.01 20 11.02 20 10 20 C10 20.66 10 21.32 10 22 C9.68521554 23.33783393 9.35412344 24.67203709 9 26 C9.99 26.33 10.98 26.66 12 27 C12 29.31 12 31.62 12 34 C7.7135704 33.52373004 5.77895881 31.12632867 3 28 C0.07456966 24.20484713 -1.57143452 21.85719345 -1 17 C-1.66 17 -2.32 17 -3 17 C-3.3540919 10.48208608 -3.03901852 5.82478551 0 0 Z " fill="#F80615" transform="translate(146,37)"/>
<path d="M0 0 C2.07786782 3.11680172 2.24955914 3.80716242 2.23046875 7.34375 C2.22853516 8.17777344 2.22660156 9.01179688 2.22460938 9.87109375 C2.21236328 10.73863281 2.20011719 11.60617188 2.1875 12.5 C2.18685547 13.36753906 2.18621094 14.23507813 2.18554688 15.12890625 C2.14069283 21.57792152 2.14069283 21.57792152 1 25 C1.66 25.33 2.32 25.66 3 26 C2.67 27.98 2.34 29.96 2 32 C2.99 31.67 3.98 31.34 5 31 C6.5 32.25 6.5 32.25 8 34 C8 35.32 8 36.64 8 38 C8.61344757 39.68698082 9.27095914 41.35965807 10 43 C11.98 42.34 13.96 41.68 16 41 C16.495 41.495 16.495 41.495 17 42 C17.66 41.01 18.32 40.02 19 39 C19.639375 39.763125 20.27875 40.52625 20.9375 41.3125 C24.31702783 44.75063236 28.44409563 45.77913674 33 47 C33 47.99 33 48.98 33 50 C22.75591418 50.46800392 14.17474541 49.72145734 6 43 C0.30731086 36.9999591 -1.03426608 32.00669737 -0.97827148 23.82519531 C-0.87613071 20.21438089 -0.72825185 16.60843674 -0.5625 13 C-0.51029297 11.74832031 -0.45808594 10.49664062 -0.40429688 9.20703125 C-0.27543258 6.13771802 -0.14050459 3.06879871 0 0 Z " fill="#DD4087" transform="translate(8,71)"/>
<path d="M0 0 C3.85210962 5.77816443 6.64968039 10.4364638 5.5 17.5625 C4.34824344 22.48868768 2.48564848 26.60868769 0 31 C-0.61875 30.525625 -1.2375 30.05125 -1.875 29.5625 C-3.90705546 27.97582559 -3.90705546 27.97582559 -6 27 C-8.63680878 19.08957367 -6.24392746 13.25739975 -3 6 C-2.47019531 4.64455078 -2.47019531 4.64455078 -1.9296875 3.26171875 C-1 1 -1 1 0 0 Z " fill="#8705CB" transform="translate(139,52)"/>
<path d="M0 0 C1.24136719 0.00515625 2.48273437 0.0103125 3.76171875 0.015625 C5.70111328 0.0465625 5.70111328 0.0465625 7.6796875 0.078125 C8.98035156 0.08328125 10.28101563 0.0884375 11.62109375 0.09375 C21.24618882 0.17387566 21.24618882 0.17387566 23.5546875 1.328125 C23.5546875 2.318125 23.5546875 3.308125 23.5546875 4.328125 C22.9978125 3.956875 22.4409375 3.585625 21.8671875 3.203125 C18.75505761 2.02556234 17.5216073 3.03485227 14.5546875 4.328125 C13.5646875 3.998125 12.5746875 3.668125 11.5546875 3.328125 C10.7503125 3.493125 9.9459375 3.658125 9.1171875 3.828125 C6.5546875 4.328125 6.5546875 4.328125 4.69140625 3.83203125 C2.20904108 3.24661058 0.32511601 3.43203887 -2.1953125 3.765625 C-2.99453125 3.86746094 -3.79375 3.96929687 -4.6171875 4.07421875 C-5.22046875 4.15800781 -5.82375 4.24179687 -6.4453125 4.328125 C-6.4453125 6.308125 -6.4453125 8.288125 -6.4453125 10.328125 C-5.7853125 10.658125 -5.1253125 10.988125 -4.4453125 11.328125 C-5.69508006 14.98129171 -6.11630003 16.10878336 -9.4453125 18.328125 C-9.7753125 19.318125 -10.1053125 20.308125 -10.4453125 21.328125 C-11.1053125 21.328125 -11.7653125 21.328125 -12.4453125 21.328125 C-12.4453125 22.978125 -12.4453125 24.628125 -12.4453125 26.328125 C-12.7753125 26.328125 -13.1053125 26.328125 -13.4453125 26.328125 C-13.7753125 28.968125 -14.1053125 31.608125 -14.4453125 34.328125 C-14.7753125 34.328125 -15.1053125 34.328125 -15.4453125 34.328125 C-15.59073217 30.09932089 -15.67942777 25.87116087 -15.7578125 21.640625 C-15.79970703 20.44244141 -15.84160156 19.24425781 -15.88476562 18.00976562 C-16.00873492 9.10877052 -16.00873492 9.10877052 -13.17578125 5.18359375 C-12.27472656 4.57128906 -11.37367187 3.95898438 -10.4453125 3.328125 C-9.86193115 2.80162354 -9.2785498 2.27512207 -8.67749023 1.73266602 C-5.66841843 -0.16071582 -3.53748755 -0.0290163 0 0 Z " fill="#F80215" transform="translate(22.4453125,29.671875)"/>
<path d="M0 0 C3.41232467 3.52606882 4.1319991 6.89206197 4.0625 11.6875 C4.05347656 12.49574219 4.04445313 13.30398437 4.03515625 14.13671875 C4.02355469 14.75160156 4.01195313 15.36648437 4 16 C3.34 16 2.68 16 2 16 C1.67 13.36 1.34 10.72 1 8 C0.34 9.65 -0.32 11.3 -1 13 C-1.680625 12.690625 -2.36125 12.38125 -3.0625 12.0625 C-6.36965912 10.86629351 -9.51545878 10.40994603 -13 10 C-12.67 12.31 -12.34 14.62 -12 17 C-12.66 17 -13.32 17 -14 17 C-14.66 18.32 -15.32 19.64 -16 21 C-16.13593443 18.45651575 -16.23448907 15.92038504 -16.3125 13.375 C-16.35439453 12.66214844 -16.39628906 11.94929687 -16.43945312 11.21484375 C-16.53241734 7.16160381 -16.20653354 4.73660954 -13.59765625 1.5390625 C-8.90230343 -3.05038011 -6.06131105 -2.31431876 0 0 Z " fill="#FCC215" transform="translate(21,4)"/>
<path d="M0 0 C1.68359375 1.18359375 1.68359375 1.18359375 4.05859375 3.93359375 C4.60716127 7.46880666 4.78117931 9.65844275 2.99609375 12.80859375 C0.01942487 14.53698213 -2.52231159 14.75974148 -5.94140625 14.93359375 C-6.87082031 14.61648437 -7.80023438 14.299375 -8.7578125 13.97265625 C-12.16731526 12.85986148 -14.98788911 12.56732887 -18.56640625 12.49609375 C-19.67242187 12.45613281 -20.7784375 12.41617188 -21.91796875 12.375 C-25.15970707 12.66739559 -25.15970707 12.66739559 -27.33984375 15.4609375 C-27.86835938 16.27691406 -28.396875 17.09289062 -28.94140625 17.93359375 C-29.27140625 16.61359375 -29.60140625 15.29359375 -29.94140625 13.93359375 C-29.28140625 13.93359375 -28.62140625 13.93359375 -27.94140625 13.93359375 C-27.94140625 12.94359375 -27.94140625 11.95359375 -27.94140625 10.93359375 C-20.67897599 8.8466885 -14.06921032 9.8216518 -6.94140625 11.93359375 C-4.24759386 12.09569927 -1.64363638 12.02840884 1.05859375 11.93359375 C1.05859375 9.62359375 1.05859375 7.31359375 1.05859375 4.93359375 C0.39859375 4.60359375 -0.26140625 4.27359375 -0.94140625 3.93359375 C-0.94140625 3.27359375 -0.94140625 2.61359375 -0.94140625 1.93359375 C-1.60140625 1.93359375 -2.26140625 1.93359375 -2.94140625 1.93359375 C-2.94140625 1.27359375 -2.94140625 0.61359375 -2.94140625 -0.06640625 C-12.43494807 -1.9287757 -25.73117688 -3.3545727 -34.4921875 1.46484375 C-36.92191284 3.92731472 -37.17338522 6.37502252 -37.234375 9.74609375 C-36.84140137 12.68029682 -35.71428356 14.5933957 -33.94140625 16.93359375 C-33.94140625 17.59359375 -33.94140625 18.25359375 -33.94140625 18.93359375 C-33.28140625 18.93359375 -32.62140625 18.93359375 -31.94140625 18.93359375 C-31.94140625 19.59359375 -31.94140625 20.25359375 -31.94140625 20.93359375 C-31.28140625 20.93359375 -30.62140625 20.93359375 -29.94140625 20.93359375 C-29.61140625 20.27359375 -29.28140625 19.61359375 -28.94140625 18.93359375 C-28.28140625 21.24359375 -27.62140625 23.55359375 -26.94140625 25.93359375 C-32.56511981 23.51812207 -36.3742224 18.65913089 -39.37890625 13.43359375 C-40.19267968 9.81682293 -40.90881332 6.58167842 -39.94140625 2.93359375 C-30.68056217 -7.68835422 -11.3032913 -6.20885015 0 0 Z " fill="#EDA253" transform="translate(186.94140625,31.06640625)"/>
<path d="M0 0 C3.46941546 0.45822468 6.67395049 0.89131683 10 2 C10 2.66 10 3.32 10 4 C10.66 4 11.32 4 12 4 C12 4.66 12 5.32 12 6 C12.99 6.33 13.98 6.66 15 7 C14.74438677 9.3431213 14.40729228 11.67843403 14 14 C7.8653367 17.06733165 -4.4047259 12.96630616 -11 12 C-10.67 11.01 -10.34 10.02 -10 9 C-9.030625 9.020625 -8.06125 9.04125 -7.0625 9.0625 C-4.12534105 9.35618499 -4.12534105 9.35618499 -3 8 C-3.66 7.34 -4.32 6.68 -5 6 C-2.94766315 3.7522025 -1.99332739 2.9977758 1 2 C0.67 1.34 0.34 0.68 0 0 Z " fill="#F27724" transform="translate(174,29)"/>
<path d="M0 0 C0.66 0.33 1.32 0.66 2 1 C1.38125 1.4125 0.7625 1.825 0.125 2.25 C-2.10673026 4.08789551 -2.7660681 5.44987408 -4 8 C-4.99 8.66 -5.98 9.32 -7 10 C-7.34342449 11.33076989 -7.67619874 12.66431979 -8 14 C-8.99 14.99 -9.98 15.98 -11 17 C-8.03 16.34 -5.06 15.68 -2 15 C-4.41144068 17.41144068 -6.64655904 19.25721377 -9.375 21.25 C-14.33899307 25.06596862 -17.98038573 28.94115718 -20 35 C-20.66 35 -21.32 35 -22 35 C-22.99405356 26.25232869 -18.83855906 18.15490415 -13.8125 11.1875 C-9.92471303 6.47398837 -5.14704671 3.22078778 0 0 Z " fill="#FBAE28" transform="translate(71,32)"/>
<path d="M0 0 C1.61886861 2.42830291 3.00049543 4.80984179 4.375 7.375 C6.30040054 10.8829998 8.41292692 13.93383932 11 17 C11 17.33 11 17.66 11 18 C7.04 18.495 7.04 18.495 3 19 C3.99 19.66 4.98 20.32 6 21 C6 21.66 6 22.32 6 23 C-0.34341707 20.76114692 -4.8341173 18.03025277 -8 12 C-8.556875 11.278125 -9.11375 10.55625 -9.6875 9.8125 C-11 8 -11 8 -11 6 C-9.68 6 -8.36 6 -7 6 C-7 6.99 -7 7.98 -7 9 C-5.88625 9 -4.7725 9 -3.625 9 C-1.75 9 0.125 9 2 9 C1.34 8.01 0.68 7.02 0 6 C-0.125 2.8125 -0.125 2.8125 0 0 Z " fill="#E92868" transform="translate(67,93)"/>
<path d="M0 0 C0.75410156 0.00322266 1.50820312 0.00644531 2.28515625 0.00976562 C3.06246094 0.01814453 3.83976562 0.02652344 4.640625 0.03515625 C5.43339844 0.03966797 6.22617188 0.04417969 7.04296875 0.04882812 C8.99222008 0.0605706 10.94143238 0.07850479 12.890625 0.09765625 C12.890625 0.75765625 12.890625 1.41765625 12.890625 2.09765625 C14.870625 2.75765625 16.850625 3.41765625 18.890625 4.09765625 C18.230625 4.75765625 17.570625 5.41765625 16.890625 6.09765625 C12.92524911 5.78294388 9.03303668 5.26222744 5.09765625 4.6953125 C-1.12118128 3.93189658 -4.53007272 4.30800511 -10.109375 7.09765625 C-11.099375 6.76765625 -12.089375 6.43765625 -13.109375 6.09765625 C-12.779375 7.08765625 -12.449375 8.07765625 -12.109375 9.09765625 C-13.099375 10.08765625 -14.089375 11.07765625 -15.109375 12.09765625 C-15.769375 11.76765625 -16.429375 11.43765625 -17.109375 11.09765625 C-16.779375 10.43765625 -16.449375 9.77765625 -16.109375 9.09765625 C-18.089375 9.42765625 -20.069375 9.75765625 -22.109375 10.09765625 C-18.20434925 4.42907048 -14.7109068 2.73918205 -8.109375 1.09765625 C-7.48909424 0.92347168 -6.86881348 0.74928711 -6.22973633 0.56982422 C-4.0753446 0.09007827 -2.20322885 -0.01669113 0 0 Z " fill="#E17C2D" transform="translate(90.109375,26.90234375)"/>
<path d="M0 0 C0 0.66 0 1.32 0 2 C-0.66 2 -1.32 2 -2 2 C-2.97415762 5.54558268 -3.51742181 9.11614542 -4.0625 12.75 C-4.23910156 13.92046875 -4.41570312 15.0909375 -4.59765625 16.296875 C-4.79681641 17.63492188 -4.79681641 17.63492188 -5 19 C-4.34 19 -3.68 19 -3 19 C-2.82984375 19.60328125 -2.6596875 20.2065625 -2.484375 20.828125 C-1.03810329 25.59774447 0.13127043 28.66488831 4 32 C4 32.66 4 33.32 4 34 C7.22515763 35.73662334 10.51329166 36.8905928 14 38 C14 38.66 14 39.32 14 40 C15.670625 40.86625 15.670625 40.86625 17.375 41.75 C20.43280569 43.47538835 21.64081219 44.71529614 23 48 C24.485 48.495 24.485 48.495 26 49 C24.25952148 49.66064453 24.25952148 49.66064453 22 50 C19.97290039 48.99951172 19.97290039 48.99951172 17.84765625 47.4296875 C17.07099609 46.8625 16.29433594 46.2953125 15.49414062 45.7109375 C14.29047852 44.80214844 14.29047852 44.80214844 13.0625 43.875 C12.26392578 43.29234375 11.46535156 42.7096875 10.64257812 42.109375 C-0.6792177 33.74231462 -0.6792177 33.74231462 -3.25 27.25 C-4.27274737 24.39586933 -4.27274737 24.39586933 -6 22 C-8.25900431 7.6212583 -8.25900431 7.6212583 -4.6875 2.5625 C-2 0 -2 0 0 0 Z " fill="#D22747" transform="translate(148,35)"/>
<path d="M0 0 C4.69564393 3.31457218 7.72469104 7.36279281 11 12 C8.42894876 17.14210249 2.3466501 21.66758 -2.8125 24.0625 C-6.03236583 25.00951936 -6.95082327 24.94584007 -10 24 C-9.16855469 23.62488281 -8.33710937 23.24976562 -7.48046875 22.86328125 C-6.39378906 22.35152344 -5.30710937 21.83976562 -4.1875 21.3125 C-3.10855469 20.81363281 -2.02960937 20.31476563 -0.91796875 19.80078125 C2.27697752 17.82906742 3.47607027 16.39542238 5 13 C5 12.01 5 11.02 5 10 C2.54053992 7.97413482 2.54053992 7.97413482 -1 7 C-3.40393766 8.03595103 -5.47600117 9.37630817 -7.6875 10.7734375 C-11.35366696 12.71799227 -13.91615929 12.49287733 -18 12 C-18.99 11.34 -19.98 10.68 -21 10 C-19.93072266 9.96132812 -19.93072266 9.96132812 -18.83984375 9.921875 C-12.45087859 9.54352444 -8.16221199 8.87165899 -3 5 C-1.06305417 2.41796279 -1.06305417 2.41796279 0 0 Z " fill="#A909A3" transform="translate(51,95)"/>
<path d="M0 0 C7.49610211 0.54517106 13.88657907 2.25722442 19.625 7.3125 C21.52657491 11.0292146 21.24190829 13.05511484 20 17 C17.74254584 19.25745416 16.18561115 19.96783226 12.984375 20.0546875 C8.94889694 19.73015605 5.40823971 18.85451989 1.625 17.4375 C-5.69597699 14.81372328 -13.46693243 15.66078799 -21 17 C-20.34 16.67 -19.68 16.34 -19 16 C-19 15.34 -19 14.68 -19 14 C-15.85434954 13.91154984 -12.70902625 13.85913165 -9.5625 13.8125 C-8.68400391 13.78736328 -7.80550781 13.76222656 -6.90039062 13.73632812 C-1.45709785 13.67607027 2.88974514 14.30701823 7.95703125 16.33203125 C11.34259224 17.43897375 14.46871826 17.19261537 18 17 C17.89592083 13.59919423 17.89592083 13.59919423 17 10 C14.53884453 8.15565651 14.53884453 8.15565651 12 7 C12 6.34 12 5.68 12 5 C10.700625 4.8453125 10.700625 4.8453125 9.375 4.6875 C5.83316877 3.96601586 3.15687958 2.72876739 0 1 C0 0.67 0 0.34 0 0 Z " fill="#C45430" transform="translate(103,28)"/>
<path d="M0 0 C2.27057377 -0.05398987 4.54151288 -0.09278742 6.8125 -0.125 C8.07707031 -0.14820312 9.34164062 -0.17140625 10.64453125 -0.1953125 C14 0 14 0 17 2 C16.030625 2.474375 15.06125 2.94875 14.0625 3.4375 C11.19522563 4.70193947 11.19522563 4.70193947 10 6 C10.66 6.66 11.32 7.32 12 8 C9.64561267 9.42944945 8.51967567 10.08661261 5.75 9.625 C5.1725 9.41875 4.595 9.2125 4 9 C3.67 10.32 3.34 11.64 3 13 C1.68 13 0.36 13 -1 13 C-2.47742793 9.15868739 -1.3587688 6.7565961 0 3 C0 2.01 0 1.02 0 0 Z " fill="#F79E16" transform="translate(160,29)"/>
<path d="M0 0 C5.75 0.875 5.75 0.875 8 2 C8 2.66 8 3.32 8 4 C9.32 4.66 10.64 5.32 12 6 C12 8.31 12 10.62 12 13 C9.4571554 14.2714223 8.00244154 13.97026024 5.1875 13.6875 C4.33542969 13.60886719 3.48335937 13.53023437 2.60546875 13.44921875 C0 13 0 13 -2.3359375 11.99609375 C-5.79498205 10.70275598 -9.16278391 10.54264246 -12.8125 10.375 C-13.85180664 10.31699219 -13.85180664 10.31699219 -14.91210938 10.2578125 C-16.60767015 10.16426432 -18.30379712 10.08107636 -20 10 C-20 9.67 -20 9.34 -20 9 C-12.41 8.67 -4.82 8.34 3 8 C3 8.99 3 9.98 3 11 C3.66 11 4.32 11 5 11 C4.814375 10.236875 4.62875 9.47375 4.4375 8.6875 C4 6 4 6 5 3 C3.68 3.33 2.36 3.66 1 4 C0.67 2.68 0.34 1.36 0 0 Z " fill="#F84707" transform="translate(109,32)"/>
<path d="M0 0 C0.33 0 0.66 0 1 0 C1.33 2.64 1.66 5.28 2 8 C5.3 7.34 8.6 6.68 12 6 C12 6.66 12 7.32 12 8 C12.99 8.33 13.98 8.66 15 9 C15 9.99 15 10.98 15 12 C13.948125 12.226875 12.89625 12.45375 11.8125 12.6875 C7.81897513 13.80084633 5.8041247 15.96219824 3 19 C2.01 19.33 1.02 19.66 0 20 C-2.66514806 6.3667426 -2.66514806 6.3667426 0 0 Z " fill="#F5861B" transform="translate(7,18)"/>
<path d="M0 0 C1.99601306 0.3564309 3.994845 0.69922675 6 1 C6 1.66 6 2.32 6 3 C0.6496441 2.42978066 -4.67787852 1.79265639 -10 1 C-10 0.34 -10 -0.32 -10 -1 C-13.41642759 -1.25015873 -13.41642759 -1.25015873 -17 -1 C-19.29013653 2.4352048 -19.17842973 3.985331 -19 8 C-18.11248047 8.29003906 -18.11248047 8.29003906 -17.20703125 8.5859375 C-16.41683594 8.84632812 -15.62664062 9.10671875 -14.8125 9.375 C-14.03519531 9.63023438 -13.25789062 9.88546875 -12.45703125 10.1484375 C-10 11 -10 11 -7.65234375 12.0703125 C-3.21583791 13.6253764 1.35251745 13.46276006 6.015625 13.65625 C7.00046875 13.7696875 7.9853125 13.883125 9 14 C9.33 14.66 9.66 15.32 10 16 C-0.98740171 16.47848362 -12.11751733 16.20201297 -21 9 C-22 8 -22 8 -22.3125 4.6875 C-22 1 -22 1 -20.625 -1.5 C-14.56193232 -4.9646101 -6.36633187 -1.6976885 0 0 Z " fill="#7F239C" transform="translate(160,105)"/>
<path d="M0 0 C0.66 0 1.32 0 2 0 C2.11214844 0.92619141 2.11214844 0.92619141 2.2265625 1.87109375 C3.4808536 9.95020406 6.5813319 15.66899005 12.4375 21.375 C19.00961982 25.54268574 25.3856808 26.82962544 33 28 C31 30 31 30 28.6875 30.23046875 C27.800625 30.21628906 26.91375 30.20210937 26 30.1875 C24.6696875 30.17783203 24.6696875 30.17783203 23.3125 30.16796875 C21 30 21 30 19 29 C19 28.34 19 27.68 19 27 C18.030625 26.87625 17.06125 26.7525 16.0625 26.625 C14.5465625 26.315625 14.5465625 26.315625 13 26 C12.67 25.34 12.34 24.68 12 24 C10.906875 23.855625 9.81375 23.71125 8.6875 23.5625 C6.78515625 23.09375 6.78515625 23.09375 5 22 C3.12569825 18.484989 2.05808144 14.82843444 1 11 C0.67 10.01 0.34 9.02 0 8 C-0.12781786 5.32605036 -0.04391871 2.67904143 0 0 Z " fill="#D94773" transform="translate(65,78)"/>
<path d="M0 0 C0 1.32 0 2.64 0 4 C1.65 4 3.3 4 5 4 C5.33 4.66 5.66 5.32 6 6 C5.01 6.495 5.01 6.495 4 7 C3.67 8.32 3.34 9.64 3 11 C-0.63 11 -4.26 11 -8 11 C-7.01 10.67 -6.02 10.34 -5 10 C-5 8.68 -5 7.36 -5 6 C-5.99 5.67 -6.98 5.34 -8 5 C-8 4.34 -8 3.68 -8 3 C-9.62626404 1.61767557 -11.2925002 0.28062485 -13 -1 C-8.16595448 -2.01177697 -4.48346322 -2.24173161 0 0 Z " fill="#B116AF" transform="translate(163,108)"/>
<path d="M0 0 C0 0.99 0 1.98 0 3 C2.475 3.495 2.475 3.495 5 4 C5 4.66 5 5.32 5 6 C-1.12685097 9.7441867 -7.04634211 12.21440518 -14 14 C-14 11 -14 11 -12 9 C-11.7525 8.401875 -11.505 7.80375 -11.25 7.1875 C-8.55910994 2.47844239 -5.39122805 0 0 0 Z " fill="#FD9A03" transform="translate(74,36)"/>
<path d="M0 0 C6.42104188 4.80258749 9.5601613 9.28404773 10.8125 17.375 C11.42696251 25.25614955 9.42864281 31.56969554 4.8359375 37.98828125 C0.1065059 43.17053076 -6.31773175 45.43606488 -13 47 C-13.33 46.34 -13.66 45.68 -14 45 C-13.25234375 44.75765625 -12.5046875 44.5153125 -11.734375 44.265625 C-10.74953125 43.93046875 -9.7646875 43.5953125 -8.75 43.25 C-7.28820312 42.76273438 -7.28820312 42.76273438 -5.796875 42.265625 C-2.81200807 40.91493103 -1.27005055 39.30885483 1 37 C1.99 37 2.98 37 4 37 C4.33 35.02 4.66 33.04 5 31 C5.66 31 6.32 31 7 31 C8.1106997 15.84191118 8.1106997 15.84191118 1 3 C0.67 2.01 0.34 1.02 0 0 Z " fill="#BE427B" transform="translate(183,74)"/>
<path d="M0 0 C0.66 0.33 1.32 0.66 2 1 C0.35 4.3 -1.3 7.6 -3 11 C-2.34 11 -1.68 11 -1 11 C-2.45255699 14.82946843 -4.42895561 16.12050295 -8 18 C-8 17.34 -8 16.68 -8 16 C-8.78375 16.495 -9.5675 16.99 -10.375 17.5 C-13 19 -13 19 -15 19 C-15 19.66 -15 20.32 -15 21 C-18.3 21.66 -21.6 22.32 -25 23 C-25.33 22.01 -25.66 21.02 -26 20 C-25.34773438 19.82984375 -24.69546875 19.6596875 -24.0234375 19.484375 C-13.4286771 16.54659483 -7.00107192 11.19520813 -1.0625 2 C-0.5365625 1.01 -0.5365625 1.01 0 0 Z " fill="#B43090" transform="translate(125,85)"/>
<path d="M0 0 C0 0.99 0 1.98 0 3 C1.32 3.33 2.64 3.66 4 4 C3.38722388 6.96175123 2.74627478 8.38058783 1 11 C1.99 11 2.98 11 4 11 C3.814375 11.598125 3.62875 12.19625 3.4375 12.8125 C2.77906313 15.16408762 2.77906313 15.16408762 4 18 C0.06401863 16.68800621 -2.51437738 15.37334499 -5 12 C-6.00716794 8.13528579 -6.28130471 4.84391413 -5 1 C-3 0 -3 0 0 0 Z " fill="#F41B4D" transform="translate(172,67)"/>
<path d="M0 0 C3.41232467 3.52606882 4.1319991 6.89206197 4.0625 11.6875 C4.05347656 12.49574219 4.04445313 13.30398437 4.03515625 14.13671875 C4.02355469 14.75160156 4.01195313 15.36648437 4 16 C3.34 16 2.68 16 2 16 C1.80083984 14.84371094 1.80083984 14.84371094 1.59765625 13.6640625 C1.42105469 12.66117188 1.24445312 11.65828125 1.0625 10.625 C0.88847656 9.62726562 0.71445312 8.62953125 0.53515625 7.6015625 C0.12287938 5.03090344 0.12287938 5.03090344 -1 3 C-4.92691139 1.94275463 -7.04997338 1.45992596 -10.65234375 3.5078125 C-13.66641019 6.70743711 -13.98230681 9.54103136 -14.3125 13.75 C-14.38533203 14.44738281 -14.45816406 15.14476563 -14.53320312 15.86328125 C-14.70891809 17.57357353 -14.85722032 19.28664382 -15 21 C-15.33 21 -15.66 21 -16 21 C-16.13593443 18.45651575 -16.23448907 15.92038504 -16.3125 13.375 C-16.35439453 12.66214844 -16.39628906 11.94929687 -16.43945312 11.21484375 C-16.53241734 7.16160381 -16.20653354 4.73660954 -13.59765625 1.5390625 C-8.90230343 -3.05038011 -6.06131105 -2.31431876 0 0 Z " fill="#DFBD51" transform="translate(21,4)"/>
<path d="M0 0 C6.47278184 0.52839035 11.27909765 2.27909765 16 7 C16.5483871 13.03225806 16.5483871 13.03225806 14.9375 15.875 C11.96083112 17.60338838 9.41909466 17.82614773 6 18 C5.07058594 17.68289062 4.14117187 17.36578125 3.18359375 17.0390625 C-0.22590901 15.92626773 -3.04648286 15.63373512 -6.625 15.5625 C-7.73101562 15.52253906 -8.83703125 15.48257813 -9.9765625 15.44140625 C-13.21830082 15.73380184 -13.21830082 15.73380184 -15.3984375 18.52734375 C-15.92695313 19.34332031 -16.45546875 20.15929687 -17 21 C-17.33 19.68 -17.66 18.36 -18 17 C-17.34 17 -16.68 17 -16 17 C-16 16.01 -16 15.02 -16 14 C-8.73756974 11.91309475 -2.12780407 12.88805805 5 15 C7.69381239 15.16210552 10.29776987 15.09481509 13 15 C13 12.69 13 10.38 13 8 C12.34 7.67 11.68 7.34 11 7 C11 6.34 11 5.68 11 5 C10.34 5 9.68 5 9 5 C9 4.34 9 3.68 9 3 C6.03 2.34 3.06 1.68 0 1 C0 0.67 0 0.34 0 0 Z " fill="#CA7850" transform="translate(175,28)"/>
<path d="M0 0 C0.66 0 1.32 0 2 0 C2 4.29 2 8.58 2 13 C1.01 11.68 0.02 10.36 -1 9 C-4.23949215 15.0161997 -6.85859236 21.20984916 -7.4375 28.0625 C-8.09653236 32.6757265 -9.71135977 35.99754081 -12 40 C-12.66 40 -13.32 40 -14 40 C-12.19597421 32.66362846 -9.9201678 25.48580303 -7.5625 18.3125 C-7.27431396 17.42216064 -6.98612793 16.53182129 -6.68920898 15.61450195 C-4.86782274 10.1340399 -2.70384506 5.10462177 0 0 Z " fill="#712AA4" transform="translate(140,44)"/>
<path d="M0 0 C0.99 0.33 1.98 0.66 3 1 C-7.78665172 8.62296895 -18.98796579 10.42561545 -32 9 C-36.79919556 8.08801017 -41.39868391 6.63343075 -46 5 C-45.67 4.34 -45.34 3.68 -45 3 C-43.4221875 3.495 -43.4221875 3.495 -41.8125 4 C-38.61126643 4.83966782 -36.2588992 5.19750904 -33 5 C-33 5.66 -33 6.32 -33 7 C-16.58401237 7.22420165 -16.58401237 7.22420165 -1.8984375 1.3359375 C-1.27195313 0.89507812 -0.64546875 0.45421875 0 0 Z " fill="#BA497A" transform="translate(119,112)"/>
<path d="M0 0 C6.0546875 -0.1953125 6.0546875 -0.1953125 8 0 C8.66 0.66 9.32 1.32 10 2 C9.01 2.495 9.01 2.495 8 3 C8.33 3.598125 8.66 4.19625 9 4.8125 C10 7 10 7 10 10 C10.66 10.33 11.32 10.66 12 11 C9.5332355 11.88336837 8.36140628 12.1312406 5.859375 11.22265625 C5.16328125 10.83980469 4.4671875 10.45695312 3.75 10.0625 C3.04359375 9.68222656 2.3371875 9.30195312 1.609375 8.91015625 C1.07828125 8.60980469 0.5471875 8.30945313 0 8 C0 5.36 0 2.72 0 0 Z " fill="#CB269C" transform="translate(33,107)"/>
<path d="M0 0 C0.66 0.33 1.32 0.66 2 1 C1.33613281 1.51949219 0.67226562 2.03898437 -0.01171875 2.57421875 C-8.48721949 8.47729911 -8.48721949 8.47729911 -13.8125 16.8125 C-13.874375 17.534375 -13.93625 18.25625 -14 19 C-14.66 19 -15.32 19 -16 19 C-17.58572806 23.33432336 -18.39669325 27.43210607 -19 32 C-19.33 32.99 -19.66 33.98 -20 35 C-20.66 35 -21.32 35 -22 35 C-22.99405356 26.25232869 -18.83855906 18.15490415 -13.8125 11.1875 C-9.92471303 6.47398837 -5.14704671 3.22078778 0 0 Z " fill="#D59E49" transform="translate(71,32)"/>
<path d="M0 0 C1.33972193 2.67944385 0.98479055 4.52598631 0.75 7.5 C0.68296875 8.4796875 0.6159375 9.459375 0.546875 10.46875 C0 13 0 13 -3 15 C-3.99 15 -4.98 15 -6 15 C-6.33 17.31 -6.66 19.62 -7 22 C-7.33 21.34 -7.66 20.68 -8 20 C-9.32 19.67 -10.64 19.34 -12 19 C-12 14.71 -12 10.42 -12 6 C-11.34 6 -10.68 6 -10 6 C-9.67 8.64 -9.34 11.28 -9 14 C-5.61444353 12.59908008 -3.81809026 11.20330189 -2 8 C-1.60612212 5.67612053 -1.26513915 3.34206251 -1 1 C-0.67 0.67 -0.34 0.34 0 0 Z " fill="#F80D29" transform="translate(64,67)"/>
<path d="M0 0 C1.24136719 0.00837891 2.48273437 0.01675781 3.76171875 0.02539062 C5.70111328 0.06889648 5.70111328 0.06889648 7.6796875 0.11328125 C8.98035156 0.12294922 10.28101563 0.13261719 11.62109375 0.14257812 C21.21796708 0.25742104 21.21796708 0.25742104 23.5546875 1.42578125 C23.5546875 2.41578125 23.5546875 3.40578125 23.5546875 4.42578125 C22.9978125 4.05453125 22.4409375 3.68328125 21.8671875 3.30078125 C18.75505761 2.12321859 17.5216073 3.13250852 14.5546875 4.42578125 C13.5646875 4.09578125 12.5746875 3.76578125 11.5546875 3.42578125 C10.7503125 3.59078125 9.9459375 3.75578125 9.1171875 3.92578125 C6.5546875 4.42578125 6.5546875 4.42578125 4.81640625 3.9296875 C1.7181446 3.23940123 -1.04163035 3.57944986 -4.1953125 3.86328125 C-5.36578125 3.96511719 -6.53625 4.06695312 -7.7421875 4.171875 C-8.63421875 4.25566406 -9.52625 4.33945312 -10.4453125 4.42578125 C-7.18385602 0.39607279 -5.11069698 -0.06541056 0 0 Z " fill="#ED0F08" transform="translate(22.4453125,29.57421875)"/>
<path d="M0 0 C2.07786782 3.11680172 2.24955914 3.80716242 2.23046875 7.34375 C2.22853516 8.17777344 2.22660156 9.01179688 2.22460938 9.87109375 C2.21236328 10.73863281 2.20011719 11.60617188 2.1875 12.5 C2.18685547 13.36753906 2.18621094 14.23507813 2.18554688 15.12890625 C2.14069283 21.57792152 2.14069283 21.57792152 1 25 C1.66 25.33 2.32 25.66 3 26 C2.67 27.98 2.34 29.96 2 32 C2.99 31.67 3.98 31.34 5 31 C6.5 32.25 6.5 32.25 8 34 C8 35.32 8 36.64 8 38 C8.2981424 39.34164079 8.62243192 40.67851173 9 42 C5.14149162 40.75976516 3.77359043 38.39142526 1.83203125 34.94921875 C-0.05587319 30.52638159 -0.11936634 26.14122862 -0.09765625 21.38671875 C-0.09443359 20.13955078 -0.09121094 18.89238281 -0.08789062 17.60742188 C-0.07532227 15.66706055 -0.07532227 15.66706055 -0.0625 13.6875 C-0.05798828 12.37458984 -0.05347656 11.06167969 -0.04882812 9.70898438 C-0.03705949 6.4726099 -0.0206176 3.23632822 0 0 Z " fill="#E7377B" transform="translate(8,71)"/>
<path d="M0 0 C3.875 1.75 3.875 1.75 5 4 C6.32 4 7.64 4 9 4 C8.5205537 8.21912747 7.83374881 10.79663178 5 14 C4.54625 13.525625 4.0925 13.05125 3.625 12.5625 C2.06741796 10.90972192 2.06741796 10.90972192 0 10 C-1.29411765 2.58823529 -1.29411765 2.58823529 0 0 Z " fill="#9807C3" transform="translate(133,69)"/>
<path d="M0 0 C0.95068359 0.02707031 1.90136719 0.05414062 2.88085938 0.08203125 C8.39511529 0.32094381 12.58863198 0.65113198 16.6875 4.75 C16.72842937 7.08297433 16.72991723 9.41705225 16.6875 11.75 C16.3575 11.75 16.0275 11.75 15.6875 11.75 C15.6875 9.77 15.6875 7.79 15.6875 5.75 C12.7175 5.255 12.7175 5.255 9.6875 4.75 C9.6875 4.09 9.6875 3.43 9.6875 2.75 C8.79442139 2.80329468 8.79442139 2.80329468 7.88330078 2.85766602 C5.19333226 3.01498794 2.50296083 3.16384562 -0.1875 3.3125 C-1.12464844 3.36857422 -2.06179687 3.42464844 -3.02734375 3.48242188 C-3.92324219 3.53076172 -4.81914062 3.57910156 -5.7421875 3.62890625 C-6.56960449 3.6760376 -7.39702148 3.72316895 -8.24951172 3.77172852 C-10.3125 3.75 -10.3125 3.75 -12.3125 2.75 C-12.3125 2.09 -12.3125 1.43 -12.3125 0.75 C-8.58303942 -1.11473029 -4.0859632 -0.1806253 0 0 Z " fill="#C92827" transform="translate(34.3125,27.25)"/>
<path d="M0 0 C-0.96295779 2.40739448 -1.61601326 3.74842248 -3.8125 5.1875 C-6 6 -6 6 -8.25 6.25 C-14.22405139 7.87928674 -19.80153016 12.78767878 -23 18 C-24.17199385 21.29274462 -25.13246088 24.61528297 -26 28 C-26.33 28 -26.66 28 -27 28 C-26.87257096 19.97197031 -24.58826183 15.71771964 -19 10 C-13.91535454 5.44205089 -7.0643234 0 0 0 Z " fill="#E22F04" transform="translate(77,45)"/>
<path d="M0 0 C1.32 0 2.64 0 4 0 C5.703125 1.75 5.703125 1.75 7.25 4 C8.03117188 5.11375 8.03117188 5.11375 8.828125 6.25 C9.21484375 6.8275 9.6015625 7.405 10 8 C9.34 9.32 8.68 10.64 8 12 C6.68 12 5.36 12 4 12 C3.67 11.34 3.34 10.68 3 10 C2.01 9.67 1.02 9.34 0 9 C0 6.03 0 3.06 0 0 Z " fill="#ED3C88" transform="translate(176,90)"/>
<path d="M0 0 C0.5625 1.9375 0.5625 1.9375 1 4 C0.67 4.33 0.34 4.66 0 5 C-0.23701239 7.85877909 -0.42219182 10.69883297 -0.5625 13.5625 C-0.60568359 14.36880859 -0.64886719 15.17511719 -0.69335938 16.00585938 C-0.79975262 18.00368805 -0.90040888 20.0018207 -1 22 C-1.33 22 -1.66 22 -2 22 C-2.33 24.64 -2.66 27.28 -3 30 C-3.33 30 -3.66 30 -4 30 C-4.11611395 25.75022954 -4.18722349 21.50086663 -4.25 17.25 C-4.28351562 16.0434375 -4.31703125 14.836875 -4.3515625 13.59375 C-4.36445312 12.43359375 -4.37734375 11.2734375 -4.390625 10.078125 C-4.41157227 9.00981445 -4.43251953 7.94150391 -4.45410156 6.84082031 C-3.89617725 3.35049382 -2.68656601 2.20317005 0 0 Z " fill="#DF171E" transform="translate(11,34)"/>
<path d="M0 0 C0.99 1.98 1.98 3.96 3 6 C0.36 6.33 -2.28 6.66 -5 7 C-4.01 7.66 -3.02 8.32 -2 9 C-2 9.66 -2 10.32 -2 11 C-5.37503669 9.8141763 -7.64722731 8.72426311 -10 6 C-9.67 5.67 -9.34 5.34 -9 5 C-9.66 4.34 -10.32 3.68 -11 3 C-4.5 0 -4.5 0 0 0 Z " fill="#E53272" transform="translate(75,105)"/>
<path d="M0 0 C0.33 0.66 0.66 1.32 1 2 C2.31867115 2.69521839 3.6548103 3.35759289 5 4 C7.9536792 5.91644606 10.81307539 7.96704581 13.6875 10 C14.8640918 10.81984375 14.8640918 10.81984375 16.06445312 11.65625 C17.18303711 12.44515625 17.18303711 12.44515625 18.32421875 13.25 C19.00572998 13.72953125 19.68724121 14.2090625 20.3894043 14.703125 C22 16 22 16 23 18 C22.29875 17.71125 21.5975 17.4225 20.875 17.125 C17.94547497 15.97866412 14.99078347 14.97374346 12 14 C12 13.01 12 12.02 12 11 C10.35 11.33 8.7 11.66 7 12 C6.67386719 11.43410156 6.34773437 10.86820313 6.01171875 10.28515625 C5.35623047 9.18494141 5.35623047 9.18494141 4.6875 8.0625 C4.25824219 7.33160156 3.82898438 6.60070313 3.38671875 5.84765625 C2.04889746 3.70022588 2.04889746 3.70022588 -1 3 C-0.67 2.01 -0.34 1.02 0 0 Z " fill="#D6364C" transform="translate(160,56)"/>
<path d="M0 0 C-4.40503432 4.90846682 -4.40503432 4.90846682 -7.4375 5.375 C-11.59726159 6.389576 -13.75270156 9.47875531 -16 13 C-16.95167379 16.26139352 -16.95167379 16.26139352 -17 19 C-17.66 19 -18.32 19 -19 19 C-19 22.3 -19 25.6 -19 29 C-19.33 29 -19.66 29 -20 29 C-20.44012023 19.98568563 -19.60989132 13.97605253 -13.75 6.8125 C-10.05116776 2.78453438 -5.72349382 -1.90783127 0 0 Z " fill="#F50C05" transform="translate(71,51)"/>
<path d="M0 0 C0.66 0 1.32 0 2 0 C2 2.64 2 5.28 2 8 C4.31 8 6.62 8 9 8 C8.67 8.66 8.34 9.32 8 10 C8.27942455 11.67654729 8.60828247 13.34608154 9 15 C7.68 15.33 6.36 15.66 5 16 C5 15.34 5 14.68 5 14 C4.34 14 3.68 14 3 14 C0.08185645 9.44040071 -1.66476796 6.5840509 -1 1 C-0.67 0.67 -0.34 0.34 0 0 Z " fill="#FCBF0B" transform="translate(150,36)"/>
<path d="M0 0 C6.82552948 0.49640214 13.34499164 1.97601326 18.7421875 6.44140625 C20.71647583 8.887807 20.32170589 10.97596461 20 14 C19.34 14.66 18.68 15.32 18 16 C17.7525 14.88625 17.505 13.7725 17.25 12.625 C16.38994661 8.95384802 16.38994661 8.95384802 13.875 7.5625 C13.25625 7.376875 12.6375 7.19125 12 7 C12 6.34 12 5.68 12 5 C10.700625 4.8453125 10.700625 4.8453125 9.375 4.6875 C5.83316877 3.96601586 3.15687958 2.72876739 0 1 C0 0.67 0 0.34 0 0 Z " fill="#D44325" transform="translate(103,28)"/>
<path d="M0 0 C1.99601306 0.3564309 3.994845 0.69922675 6 1 C6 1.66 6 2.32 6 3 C0.6496441 2.42978066 -4.67787852 1.79265639 -10 1 C-10 0.34 -10 -0.32 -10 -1 C-13.41642759 -1.25015873 -13.41642759 -1.25015873 -17 -1 C-19.29013653 2.4352048 -19.17842973 3.985331 -19 8 C-19.99 8 -20.98 8 -22 8 C-22.28487891 4.29657412 -22.43868042 1.79760076 -20.625 -1.5 C-14.56193232 -4.9646101 -6.36633187 -1.6976885 0 0 Z " fill="#822F8D" transform="translate(160,105)"/>
<path d="M0 0 C5.64 1.44 5.64 1.44 7.125 3.75 C6.9323418 7.21784761 5.03705833 9.28392222 3 12 C2.01 11.67 1.02 11.34 0 11 C0 7.37 0 3.74 0 0 Z " fill="#A50CBC" transform="translate(50,102)"/>
<path d="M0 0 C2.23760333 3.356405 2.59469693 5.54203665 3.1875 9.5 C3.36667969 10.6446875 3.54585937 11.789375 3.73046875 12.96875 C4 16 4 16 3 19 C0.5625 18.25 0.5625 18.25 -2 17 C-2.875 15 -2.875 15 -3 13 C-2.67 12.34 -2.34 11.68 -2 11 C-1.34 11 -0.68 11 0 11 C0 7.37 0 3.74 0 0 Z " fill="#F3A029" transform="translate(21,9)"/>
<path d="M0 0 C1 5.75 1 5.75 1 8 C1.99 8.66 2.98 9.32 4 10 C-0.455 10.495 -0.455 10.495 -5 11 C-4.125 6.125 -4.125 6.125 -3 5 C-3.99 4.67 -4.98 4.34 -6 4 C-6 3.01 -6 2.02 -6 1 C-3.92446352 0.4465236 -2.15634036 0 0 0 Z " fill="#C11FA4" transform="translate(171,108)"/>
<path d="M0 0 C2.7558573 4.13378595 3.10756445 6.05203546 3 11 C0.36 11.66 -2.28 12.32 -5 13 C-1.97297297 1.97297297 -1.97297297 1.97297297 0 0 Z " fill="#7A08CC" transform="translate(139,52)"/>
<path d="M0 0 C0 0.66 0 1.32 0 2 C-0.66 2 -1.32 2 -2 2 C-2.97415762 5.54558268 -3.51742181 9.11614542 -4.0625 12.75 C-4.23910156 13.92046875 -4.41570312 15.0909375 -4.59765625 16.296875 C-4.79681641 17.63492188 -4.79681641 17.63492188 -5 19 C-4.34 19 -3.68 19 -3 19 C-2.49242138 20.41396902 -1.99425075 21.83131729 -1.5 23.25 C-1.2215625 24.03890625 -0.943125 24.8278125 -0.65625 25.640625 C0 28 0 28 0 32 C-0.66 31.01 -1.32 30.02 -2 29 C-2.680625 28.0925 -3.36125 27.185 -4.0625 26.25 C-7.33292765 20.4524237 -7.44224993 13.49822079 -7 7 C-5.69474005 3.67518429 -4.01481938 0 0 0 Z " fill="#E21553" transform="translate(148,35)"/>
<path d="M0 0 C1.67542976 0.28604898 3.34385343 0.61781233 5 1 C4.67 1.99 4.34 2.98 4 4 C4.66 4.33 5.32 4.66 6 5 C6 6.32 6 7.64 6 9 C0.46153846 9.36923077 0.46153846 9.36923077 -1.875 7.5 C-2.24625 7.005 -2.6175 6.51 -3 6 C-1.125 1.125 -1.125 1.125 0 0 Z " fill="#9D08BF" transform="translate(152,109)"/>
<path d="M0 0 C-0.33 1.32 -0.66 2.64 -1 4 C2.3 4 5.6 4 9 4 C7 6 7 6 4.79296875 6.046875 C3.93316406 5.94890625 3.07335937 5.8509375 2.1875 5.75 C1.33542969 5.66234375 0.48335937 5.5746875 -0.39453125 5.484375 C-3 5 -3 5 -5.3359375 3.9921875 C-8.79520041 2.70384032 -12.16398104 2.54258747 -15.8125 2.375 C-16.50537109 2.33632813 -17.19824219 2.29765625 -17.91210938 2.2578125 C-19.60767015 2.16426432 -21.30379712 2.08107636 -23 2 C-23 1.67 -23 1.34 -23 1 C-20.10425766 0.83160792 -17.20842326 0.66522615 -14.3125 0.5 C-13.08756836 0.42845703 -13.08756836 0.42845703 -11.83789062 0.35546875 C-7.88646942 0.13150156 -3.95981243 -0.06451833 0 0 Z " fill="#ED5819" transform="translate(112,40)"/>
<path d="M0 0 C2.27057377 -0.05398987 4.54151288 -0.09278742 6.8125 -0.125 C8.07707031 -0.14820312 9.34164062 -0.17140625 10.64453125 -0.1953125 C14 0 14 0 17 2 C8.43656716 6.37686567 8.43656716 6.37686567 4 5 C4 4.01 4 3.02 4 2 C2.68 1.34 1.36 0.68 0 0 Z " fill="#F39123" transform="translate(160,29)"/>
<path d="M0 0 C0.33 0 0.66 0 1 0 C1.09796875 0.845625 1.1959375 1.69125 1.296875 2.5625 C2.38873911 10.84560701 3.39310478 17.72100434 9.75 23.5 C10.4925 23.995 11.235 24.49 12 25 C9.01061701 25.28912858 7.48537367 25.3379778 4.98046875 23.59375 C-1.3415677 16.21115406 -0.71104235 9.19840503 0 0 Z " fill="#CD3973" transform="translate(21,80)"/>
<path d="M0 0 C0.33 0 0.66 0 1 0 C1.16822266 0.90878906 1.16822266 0.90878906 1.33984375 1.8359375 C3.19919003 9.73512106 7.29686312 14.38055695 13 20 C9.41087588 20 8.89142971 19.33563446 6.3125 17 C5.68988281 16.443125 5.06726563 15.88625 4.42578125 15.3125 C3.95527344 14.879375 3.48476562 14.44625 3 14 C2.67 14.99 2.34 15.98 2 17 C1.34 17 0.68 17 0 17 C0 11.33333333 0 5.66666667 0 0 Z " fill="#E81D04" transform="translate(146,37)"/>
<path d="M0 0 C0.99 0 1.98 0 3 0 C3 2.64 3 5.28 3 8 C-1.51569861 9.50523287 -6.8683721 9.95849241 -11.25 7.98828125 C-11.8275 7.66214844 -12.405 7.33601563 -13 7 C-12.09507813 6.96132813 -12.09507813 6.96132813 -11.171875 6.921875 C-5.93642743 6.582016 -5.93642743 6.582016 -1.4375 4.0625 C0.19059755 2.14553781 0.19059755 2.14553781 0 0 Z " fill="#DE1411" transform="translate(47,33)"/>
<path d="M0 0 C1.32 0.33 2.64 0.66 4 1 C4 1.66 4 2.32 4 3 C5.65 3 7.3 3 9 3 C7.68 5.64 6.36 8.28 5 11 C4.01 10.01 3.02 9.02 2 8 C2.33 7.67 2.66 7.34 3 7 C1.35 7 -0.3 7 -2 7 C-2 6.01 -2 5.02 -2 4 C-1.01 3.34 -0.02 2.68 1 2 C0.67 1.34 0.34 0.68 0 0 Z " fill="#8F05CC" transform="translate(144,105)"/>
<path d="M0 0 C0.66 0.33 1.32 0.66 2 1 C-2.625 5.875 -2.625 5.875 -6 7 C-6 7.66 -6 8.32 -6 9 C-9.3 9.66 -12.6 10.32 -16 11 C-16.33 10.01 -16.66 9.02 -17 8 C-16.02160156 7.74476562 -16.02160156 7.74476562 -15.0234375 7.484375 C-9.2952947 5.89604042 -4.30139905 4.30139905 0 0 Z " fill="#CA4683" transform="translate(116,97)"/>
<path d="M0 0 C2.13652357 3.20478536 2.21273768 3.9147292 2.0625 7.5625 C1.8828768 10.91229862 1.8828768 10.91229862 3 14 C1.02 14.33 -0.96 14.66 -3 15 C-2.34 14.01 -1.68 13.02 -1 12 C-1.66 11.34 -2.32 10.68 -3 10 C-3.40047444 7.67724823 -3.7397104 5.34260643 -4 3 C-2.68 2.67 -1.36 2.34 0 2 C0 1.34 0 0.68 0 0 Z " fill="#AC15AF" transform="translate(49,101)"/>
<path d="M0 0 C0.66644531 0.33773437 1.33289063 0.67546875 2.01953125 1.0234375 C8.62667178 4.22073907 14.72569114 6.0572946 22 7 C20 9 20 9 17.6875 9.23046875 C16.800625 9.21628906 15.91375 9.20210937 15 9.1875 C13.6696875 9.17783203 13.6696875 9.17783203 12.3125 9.16796875 C10 9 10 9 8 8 C8 7.34 8 6.68 8 6 C7.05125 5.938125 6.1025 5.87625 5.125 5.8125 C3.578125 5.4103125 3.578125 5.4103125 2 5 C0.8046875 2.44921875 0.8046875 2.44921875 0 0 Z " fill="#C24A7E" transform="translate(76,99)"/>
<path d="M0 0 C2.10254556 3.15381834 2.28061016 4.29014385 2.5 7.9375 C2.71362023 11.47825536 3.22294289 13.91164672 5 17 C4.34 17.66 3.68 18.32 3 19 C2.67 18.34 2.34 17.68 2 17 C-0.32156597 16.59270772 -2.6568787 16.25561323 -5 16 C-4.67 14.68 -4.34 13.36 -4 12 C-2.02 12.495 -2.02 12.495 0 13 C0 8.71 0 4.42 0 0 Z " fill="#F21F5A" transform="translate(65,86)"/>
<path d="M0 0 C2.97 0.33 5.94 0.66 9 1 C8.67 1.99 8.34 2.98 8 4 C4.3416892 5.58466433 0.16852005 5.11064817 -3.75 5.0625 C-4.44738281 5.05798828 -5.14476563 5.05347656 -5.86328125 5.04882812 C-7.57555803 5.0371002 -9.28779033 5.01916653 -11 5 C-11 4.67 -11 4.34 -11 4 C-8.03 4 -5.06 4 -2 4 C-1.34 2.68 -0.68 1.36 0 0 Z " fill="#F1448F" transform="translate(107,112)"/>
<path d="M0 0 C-0.33 0.66 -0.66 1.32 -1 2 C-1.0689472 3.37342831 -1.08467708 4.75002102 -1.0625 6.125 C-1.041875 7.40375 -1.02125 8.6825 -1 10 C-1.99 10.495 -1.99 10.495 -3 11 C-3 9.68 -3 8.36 -3 7 C-3.99 6.67 -4.98 6.34 -6 6 C-6 5.34 -6 4.68 -6 4 C-7.62626404 2.61767557 -9.2925002 1.28062485 -11 0 C-6.98195309 -0.84098656 -3.98196457 -1.05404945 0 0 Z " fill="#AB0FBA" transform="translate(161,107)"/>
<path d="M0 0 C0.66 0.33 1.32 0.66 2 1 C1.67905423 3.99549387 1.0450519 4.95752249 -1.1875 7.0625 C-7.07358172 11.11735629 -10.91976538 12.5803471 -18 12 C-18.99 11.34 -19.98 10.68 -21 10 C-19.93072266 9.96132812 -19.93072266 9.96132812 -18.83984375 9.921875 C-12.45087859 9.54352444 -8.16221199 8.87165899 -3 5 C-1.06305417 2.41796279 -1.06305417 2.41796279 0 0 Z " fill="#9A2F87" transform="translate(51,95)"/>
<path d="M0 0 C0.33 0 0.66 0 1 0 C1 7.26 1 14.52 1 22 C-3.04388866 16.60814846 -2.53162246 12.53634175 -2 6 C-1 2.25 -1 2.25 0 0 Z " fill="#D8192F" transform="translate(22,43)"/>
<path d="M0 0 C0.66 0.33 1.32 0.66 2 1 C1.67 2.32 1.34 3.64 1 5 C1.66 5 2.32 5 3 5 C3 3.35 3 1.7 3 0 C3.66 0.33 4.32 0.66 5 1 C5 3.64 5 6.28 5 9 C2.36 8.67 -0.28 8.34 -3 8 C-2.45276317 4.62537285 -1.9451 2.91765 0 0 Z " fill="#FDBA04" transform="translate(15,7)"/>
<path d="M0 0 C0.66 0 1.32 0 2 0 C-0.3639284 8.12960743 -3.38711402 16.36680083 -10 22 C-10.33 21.01 -10.66 20.02 -11 19 C-10.32070435 18.37484497 -10.32070435 18.37484497 -9.62768555 17.73706055 C-7.96012727 15.95744796 -7.02248745 14.39034313 -5.95703125 12.20703125 C-5.60576172 11.49482422 -5.25449219 10.78261719 -4.89257812 10.04882812 C-4.53615234 9.31083984 -4.17972656 8.57285156 -3.8125 7.8125 C-3.44447266 7.06291016 -3.07644531 6.31332031 -2.69726562 5.54101562 C-1.79271782 3.69667788 -0.89562424 1.84868755 0 0 Z " fill="#8F2088" transform="translate(140,82)"/>
<path d="M0 0 C2.65552356 2.14155126 3.89288957 3.6853631 5 6.9375 C5.60032571 12.76193672 2.89312292 18.59688093 1 24 C0.67 24 0.34 24 0 24 C0.14213297 22.10388566 0.28886907 20.20811606 0.4375 18.3125 C0.51871094 17.25675781 0.59992188 16.20101562 0.68359375 15.11328125 C1 12 1 12 1.66015625 9.29296875 C2.30240217 6.72701916 2.30240217 6.72701916 0 4 C0 2.68 0 1.36 0 0 Z " fill="#721390" transform="translate(142,57)"/>
<path d="M0 0 C0.33 0.99 0.66 1.98 1 3 C-1.74970636 3.81350483 -4.49974893 4.62584054 -7.25 5.4375 C-8.02730469 5.66759766 -8.80460937 5.89769531 -9.60546875 6.13476562 C-10.35957031 6.35712891 -11.11367187 6.57949219 -11.890625 6.80859375 C-12.58188477 7.01282959 -13.27314453 7.21706543 -13.98535156 7.42749023 C-15.98114721 7.99464254 -17.98449654 8.50798004 -20 9 C-15.63769664 4.13914768 -6.52967595 0 0 0 Z " fill="#FC811F" transform="translate(90,38)"/>
<path d="M0 0 C0.33 0.66 0.66 1.32 1 2 C1.66 2 2.32 2 3 2 C2.67 2.99 2.34 3.98 2 5 C1.34 4.67 0.68 4.34 0 4 C0.33 4.99 0.66 5.98 1 7 C0.01 7.99 -0.98 8.98 -2 10 C-2.66 9.67 -3.32 9.34 -4 9 C-3.67 8.34 -3.34 7.68 -3 7 C-4.98 7.33 -6.96 7.66 -9 8 C-3.85714286 1.42857143 -3.85714286 1.42857143 0 0 Z " fill="#FB971B" transform="translate(77,29)"/>
<path d="M0 0 C0.66 0 1.32 0 2 0 C2 0.66 2 1.32 2 2 C2.99 2.33 3.98 2.66 5 3 C4.74438677 5.3431213 4.40729228 7.67843403 4 10 C1.47946405 11.26026798 0.1457902 10.91874445 -2.625 10.5625 C-3.44226563 10.46066406 -4.25953125 10.35882813 -5.1015625 10.25390625 C-5.72804687 10.17011719 -6.35453125 10.08632813 -7 10 C-4.92446352 9.4465236 -3.15634036 9 -1 9 C0.68630119 5.48966871 0.68630119 5.48966871 0.625 1.6875 C0.41875 1.130625 0.2125 0.57375 0 0 Z " fill="#F05E2D" transform="translate(184,33)"/>
<path d="M0 0 C2 1 2 1 2.67578125 2.890625 C2.88589844 3.66921875 3.09601562 4.4478125 3.3125 5.25 C4.69857968 9.64505668 6.40708225 12.00590187 10 15 C10.86625 15.721875 11.7325 16.44375 12.625 17.1875 C14.37119628 18.52012348 16.17231165 19.7815411 18 21 C11.70734636 20.25968781 7.61869988 17.03703526 3.6875 12.25 C0.74715383 8.16575936 0.17789624 4.98109483 0 0 Z " fill="#BF4777" transform="translate(7,98)"/>
<path d="M0 0 C3 1.8125 3 1.8125 6 4 C6 4.99 6 5.98 6 7 C6.66 7 7.32 7 8 7 C8.33 7.99 8.66 8.98 9 10 C8.34 10.66 7.68 11.32 7 12 C6.01 12 5.02 12 4 12 C3.67 11.01 3.34 10.02 3 9 C2.34 8.67 1.68 8.34 1 8 C0.40644386 5.35139573 0.25790731 2.70802678 0 0 Z " fill="#F61027" transform="translate(154,55)"/>
<path d="M0 0 C1.32 0 2.64 0 4 0 C1.6066719 5.67034658 -3.44163078 8.66267063 -8.75 11.4375 C-11.27689039 12.0692226 -12.54164058 11.70755303 -15 11 C-14.16855469 10.62488281 -13.33710937 10.24976562 -12.48046875 9.86328125 C-11.39378906 9.35152344 -10.30710937 8.83976562 -9.1875 8.3125 C-8.10855469 7.81363281 -7.02960937 7.31476563 -5.91796875 6.80078125 C-2.72107374 4.82786478 -1.87466122 3.15308348 0 0 Z " fill="#8E2A94" transform="translate(56,108)"/>
<path d="M0 0 C0.99 0 1.98 0 3 0 C2.34206835 1.67013418 1.67276716 3.3357865 1 5 C0.566875 6.175625 0.13375 7.35125 -0.3125 8.5625 C-2.09164609 12.18668648 -3.69350185 13.76587963 -7 16 C-7 13 -7 13 -5.0625 10.125 C-3.13100817 7.19849723 -2.40230178 5.41956515 -2 2 C-1.34 2 -0.68 2 0 2 C0 1.34 0 0.68 0 0 Z " fill="#BF259B" transform="translate(130,96)"/>
<path d="M0 0 C1.485 0.99 1.485 0.99 3 2 C3 2.66 3 3.32 3 4 C6.22515763 5.73662334 9.51329166 6.8905928 13 8 C12.67 8.99 12.34 9.98 12 11 C7.8275894 10.48118887 5.74583179 9.28848726 2.6875 6.4375 C1.99011719 5.79683594 1.29273438 5.15617187 0.57421875 4.49609375 C-0.20501953 3.75552734 -0.20501953 3.75552734 -1 3 C-0.67 2.01 -0.34 1.02 0 0 Z " fill="#D32138" transform="translate(149,65)"/>
<path d="M0 0 C1.28813232 3.86439695 0.77385151 5.375173 -1 9 C-4.125 10.375 -4.125 10.375 -7 11 C-7 8 -7 8 -5 6 C-4.5359375 5.01 -4.5359375 5.01 -4.0625 4 C-3 2 -3 2 0 0 Z " fill="#FBAA06" transform="translate(67,39)"/>
<path d="M0 0 C0.33 0.66 0.66 1.32 1 2 C2.97888961 2.72693904 4.97954558 3.39816251 7 4 C6.34 4.66 5.68 5.32 5 6 C2.6171875 5.7578125 2.6171875 5.7578125 -0.125 5.125 C-1.49011719 4.81949219 -1.49011719 4.81949219 -2.8828125 4.5078125 C-3.93082031 4.25644531 -3.93082031 4.25644531 -5 4 C-5 3.34 -5 2.68 -5 2 C-8.3 2 -11.6 2 -15 2 C-15 1.67 -15 1.34 -15 1 C-10.05 0.67 -5.1 0.34 0 0 Z " fill="#EA6320" transform="translate(102,27)"/>
<path d="M0 0 C1.5778125 0.495 1.5778125 0.495 3.1875 1 C6.38873357 1.83966782 8.7411008 2.19750904 12 2 C12 2.66 12 3.32 12 4 C16.95 4 21.9 4 27 4 C27 4.33 27 4.66 27 5 C16.4009327 6.48193646 9.08770142 5.5720888 -1 2 C-0.67 1.34 -0.34 0.68 0 0 Z " fill="#C83F73" transform="translate(74,115)"/>
<path d="M0 0 C1.32 0 2.64 0 4 0 C3.67 3.3 3.34 6.6 3 10 C-1.75 11.125 -1.75 11.125 -4 10 C-4 9.34 -4 8.68 -4 8 C-2.68 8 -1.36 8 0 8 C0 5.36 0 2.72 0 0 Z " fill="#FBAF07" transform="translate(156,34)"/>
<path d="M0 0 C0 0.66 0 1.32 0 2 C-1.051875 2.226875 -2.10375 2.45375 -3.1875 2.6875 C-7.18102487 3.80084633 -9.1958753 5.96219824 -12 9 C-12.99 9.33 -13.98 9.66 -15 10 C-15 7.36 -15 4.72 -15 2 C-14.01 3.485 -14.01 3.485 -13 5 C-12.2575 4.360625 -11.515 3.72125 -10.75 3.0625 C-6.84601439 0.13451079 -4.85918901 0 0 0 Z " fill="#F56735" transform="translate(22,28)"/>
<path d="M0 0 C0.33 0 0.66 0 1 0 C1.12117187 0.84304687 1.24234375 1.68609375 1.3671875 2.5546875 C1.53476563 3.65039062 1.70234375 4.74609375 1.875 5.875 C2.11863281 7.51082031 2.11863281 7.51082031 2.3671875 9.1796875 C2.76256513 12.11932714 2.76256513 12.11932714 5 14 C3.02 14.99 1.04 15.98 -1 17 C-1.93213141 10.73960391 -2.20927172 5.97802937 0 0 Z " fill="#DD8437" transform="translate(7,18)"/>
<path d="M0 0 C0.66 0 1.32 0 2 0 C2 4.29 2 8.58 2 13 C1.01 11.68 0.02 10.36 -1 9 C-1.99 9.495 -1.99 9.495 -3 10 C-2.49287967 6.28111761 -1.88391785 3.26545761 0 0 Z " fill="#7B119C" transform="translate(140,44)"/>
<path d="M0 0 C0.33 1.32 0.66 2.64 1 4 C-2.75 7 -2.75 7 -5 7 C-5.33 7.99 -5.66 8.98 -6 10 C-7.32 10 -8.64 10 -10 10 C-10 10.99 -10 11.98 -10 13 C-10.66 13 -11.32 13 -12 13 C-12 11.68 -12 10.36 -12 9 C-11.01 9 -10.02 9 -9 9 C-8.67 8.01 -8.34 7.02 -8 6 C-6.824375 5.5359375 -6.824375 5.5359375 -5.625 5.0625 C-2.64896365 3.85791386 -1.68999547 2.66841391 0 0 Z " fill="#B228A2" transform="translate(175,99)"/>
<path d="M0 0 C1.10030227 3.33964985 0.87633055 5.65063592 0.125 9.0625 C-0.14957031 10.34833984 -0.14957031 10.34833984 -0.4296875 11.66015625 C-1 14 -1 14 -2 17 C-2.66 17 -3.32 17 -4 17 C-4.56131481 10.54487966 -2.63463787 5.84560277 0 0 Z " fill="#DF9E56" transform="translate(53,50)"/>
<path d="M0 0 C6.47278184 0.52839035 11.27909765 2.27909765 16 7 C16.125 10.625 16.125 10.625 16 14 C15.01 14.495 15.01 14.495 14 15 C14.33 12.69 14.66 10.38 15 8 C13.68 7.67 12.36 7.34 11 7 C11 6.34 11 5.68 11 5 C10.34 5 9.68 5 9 5 C9 4.34 9 3.68 9 3 C4.545 2.01 4.545 2.01 0 1 C0 0.67 0 0.34 0 0 Z " fill="#C57553" transform="translate(175,28)"/>
<path d="M0 0 C0.66 0.33 1.32 0.66 2 1 C2 2.98 2 4.96 2 7 C2.66 7.33 3.32 7.66 4 8 C3.67 8.99 3.34 9.98 3 11 C2.01 11 1.02 11 0 11 C-1.60355101 7.49223216 -2.22036864 4.85645121 -2 1 C-1.34 0.67 -0.68 0.34 0 0 Z " fill="#F70405" transform="translate(14,33)"/>
<path d="M0 0 C0.33 0.66 0.66 1.32 1 2 C1.99 2.33 2.98 2.66 4 3 C4 3.66 4 4.32 4 5 C3.34 5 2.68 5 2 5 C2 5.99 2 6.98 2 8 C0.35 8 -1.3 8 -3 8 C-2.45276317 4.62537285 -1.9451 2.91765 0 0 Z " fill="#BD20A7" transform="translate(125,88)"/>
<path d="M0 0 C0.99 0.33 1.98 0.66 3 1 C3 3.31 3 5.62 3 8 C0.83125748 7.49396008 -0.99967627 7.00016187 -3 6 C-2.67 5.01 -2.34 4.02 -2 3 C-1.34 3 -0.68 3 0 3 C0 2.01 0 1.02 0 0 Z " fill="#FC0320" transform="translate(155,63)"/>
<path d="M0 0 C-0.98041419 2.45103548 -1.6513818 3.76758786 -3.875 5.25 C-6 6 -6 6 -10 6 C-8.94901234 3.13367003 -8.33137046 2.16993357 -5.5625 0.75 C-3 0 -3 0 0 0 Z " fill="#EA2006" transform="translate(77,45)"/>
<path d="M0 0 C0.66 0.99 1.32 1.98 2 3 C1.44570312 3.15855469 0.89140625 3.31710938 0.3203125 3.48046875 C-4.47984297 4.90376787 -4.47984297 4.90376787 -7.5 8.6875 C-7.665 9.450625 -7.83 10.21375 -8 11 C-8.66 9.68 -9.32 8.36 -10 7 C-6.87378374 3.60582235 -4.43458973 1.3937282 0 0 Z " fill="#EDC04D" transform="translate(157,28)"/>
<path d="M0 0 C0.66 0 1.32 0 2 0 C2.63934602 5.11476819 0.40533547 8.67254378 -2 13 C-2.66 13 -3.32 13 -4 13 C-3.52343588 11.20763933 -3.04366502 9.41613103 -2.5625 7.625 C-2.29566406 6.62726563 -2.02882813 5.62953125 -1.75390625 4.6015625 C-1 2 -1 2 0 0 Z " fill="#852399" transform="translate(130,71)"/>
<path d="M0 0 C5.66104589 0.49658297 9.87674471 1.54510684 15 4 C15 4.33 15 4.66 15 5 C9.33557626 4.63495936 4.99296295 3.9445679 0 1 C0 0.67 0 0.34 0 0 Z " fill="#C65535" transform="translate(103,28)"/>
<path d="M0 0 C-0.33 1.98 -0.66 3.96 -1 6 C-1.99 6 -2.98 6 -4 6 C-3.67 8.31 -3.34 10.62 -3 13 C-5.72286806 8.91569792 -5.38524534 6.85409123 -5 2 C-2 0 -2 0 0 0 Z " fill="#F1B727" transform="translate(12,8)"/>
<path d="M0 0 C3.875 4.75 3.875 4.75 5 7 C4.01 7 3.02 7 2 7 C2.33 8.65 2.66 10.3 3 12 C2.01 12 1.02 12 0 12 C0 8.04 0 4.08 0 0 Z " fill="#E64293" transform="translate(23,98)"/>
<path d="M0 0 C-0.99 0.495 -0.99 0.495 -2 1 C-1.34 2.98 -0.68 4.96 0 7 C-1.32 7 -2.64 7 -4 7 C-4.309375 6.05125 -4.61875 5.1025 -4.9375 4.125 C-5.87394742 1.13919592 -5.87394742 1.13919592 -7 -1 C-3.51418144 -2.2020064 -3.32007656 -2.21338437 0 0 Z " fill="#C720A7" transform="translate(43,109)"/>
<path d="M0 0 C0.99 0.495 0.99 0.495 2 1 C2 1.66 2 2.32 2 3 C1.34 3 0.68 3 0 3 C0 2.01 0 1.02 0 0 Z M-4 1 C-3.34 1 -2.68 1 -2 1 C-1.67 2.98 -1.34 4.96 -1 7 C-3.31 6.67 -5.62 6.34 -8 6 C-6.68 5.34 -5.36 4.68 -4 4 C-4 3.01 -4 2.02 -4 1 Z " fill="#F0408C" transform="translate(96,109)"/>
<path d="M0 0 C2.31 0.66 4.62 1.32 7 2 C5.875 3.5625 5.875 3.5625 4 5 C0.8125 4.6875 0.8125 4.6875 -2 4 C-1.34 2.68 -0.68 1.36 0 0 Z " fill="#EF245D" transform="translate(175,74)"/>
<path d="M0 0 C0.89203125 0.00902344 1.7840625 0.01804688 2.703125 0.02734375 C3.37859375 0.03894531 4.0540625 0.05054688 4.75 0.0625 C4.75 0.3925 4.75 0.7225 4.75 1.0625 C4.00234375 1.14886719 3.2546875 1.23523437 2.484375 1.32421875 C-3.85519711 2.10793343 -3.85519711 2.10793343 -8.9375 5.6875 C-9.370625 6.47125 -9.80375 7.255 -10.25 8.0625 C-10.58 6.7425 -10.91 5.4225 -11.25 4.0625 C-10.59 4.0625 -9.93 4.0625 -9.25 4.0625 C-9.25 3.0725 -9.25 2.0825 -9.25 1.0625 C-6.09493858 0.12630187 -3.28413498 -0.0432123 0 0 Z " fill="#E0A651" transform="translate(168.25,40.9375)"/>
<path d="M0 0 C1.34384766 0.07250977 1.34384766 0.07250977 2.71484375 0.14648438 C3.65199219 0.20255859 4.58914062 0.25863281 5.5546875 0.31640625 C6.97201172 0.3947168 6.97201172 0.3947168 8.41796875 0.47460938 C10.7555294 0.60447386 13.09268295 0.73944495 15.4296875 0.87890625 C15.4296875 1.20890625 15.4296875 1.53890625 15.4296875 1.87890625 C4.5396875 2.37390625 4.5396875 2.37390625 -6.5703125 2.87890625 C-6.5703125 2.21890625 -6.5703125 1.55890625 -6.5703125 0.87890625 C-4.11781157 -0.34734422 -2.72720815 -0.1553473 0 0 Z " fill="#C23531" transform="translate(28.5703125,27.12109375)"/>
<path d="M0 0 C0.33 0.66 0.66 1.32 1 2 C1.99 2.33 2.98 2.66 4 3 C2.25 7.875 2.25 7.875 0 9 C-0.12375 8.195625 -0.2475 7.39125 -0.375 6.5625 C-0.684375 5.2940625 -0.684375 5.2940625 -1 4 C-1.66 3.67 -2.32 3.34 -3 3 C-3 2.34 -3 1.68 -3 1 C-2.01 0.67 -1.02 0.34 0 0 Z " fill="#FDA914" transform="translate(11,13)"/>
<path d="M0 0 C2.31 0.33 4.62 0.66 7 1 C7 1.66 7 2.32 7 3 C8.98 3 10.96 3 13 3 C13 3.33 13 3.66 13 4 C10.36 4.33 7.72 4.66 5 5 C4.67 4.34 4.34 3.68 4 3 C2.02 3 0.04 3 -2 3 C-1.34 2.01 -0.68 1.02 0 0 Z " fill="#850CAD" transform="translate(143,103)"/>
<path d="M0 0 C-0.66 0 -1.32 0 -2 0 C-2 0.66 -2 1.32 -2 2 C-3.96875 3.5078125 -3.96875 3.5078125 -6.5 5.125 C-7.3353125 5.66382813 -8.170625 6.20265625 -9.03125 6.7578125 C-9.6809375 7.16773438 -10.330625 7.57765625 -11 8 C-10.68933594 7.38511719 -10.37867187 6.77023438 -10.05859375 6.13671875 C-9.35381924 4.7141665 -8.68787241 3.2717023 -8.0625 1.8125 C-6.02088326 -1.67025797 -3.37588747 -1.04768921 0 0 Z " fill="#C3351A" transform="translate(84,44)"/>
<path d="M0 0 C0.99 0.33 1.98 0.66 3 1 C3 5 3 5 2 7 C1.01 7.33 0.02 7.66 -1 8 C-1 7.34 -1 6.68 -1 6 C-1.66 6 -2.32 6 -3 6 C-2.67 5.01 -2.34 4.02 -2 3 C-1.34 3 -0.68 3 0 3 C0 2.01 0 1.02 0 0 Z " fill="#F6B72F" transform="translate(156,44)"/>
<path d="M0 0 C0.33 0.66 0.66 1.32 1 2 C1.99 2.33 2.98 2.66 4 3 C3.67 3.33 3.34 3.66 3 4 C3.66 4.66 4.32 5.32 5 6 C2 8 2 8 -1 8 C-0.67 5.36 -0.34 2.72 0 0 Z " fill="#FEA010" transform="translate(68,39)"/>
<path d="M0 0 C0.33 0 0.66 0 1 0 C1.36294314 2.1026706 1.71506972 4.20721057 2.0625 6.3125 C2.25972656 7.48425781 2.45695312 8.65601563 2.66015625 9.86328125 C3 13 3 13 2 16 C1.34 16 0.68 16 0 16 C0 10.72 0 5.44 0 0 Z " fill="#DC9E3D" transform="translate(22,12)"/>
<path d="M0 0 C5.94 0.99 5.94 0.99 12 2 C11.67 2.99 11.34 3.98 11 5 C10.67 4.67 10.34 4.34 10 4 C7.65012738 3.76472227 5.29443961 3.58613583 2.9375 3.4375 C1.64714844 3.35371094 0.35679688 3.26992187 -0.97265625 3.18359375 C-2.47119141 3.09271484 -2.47119141 3.09271484 -4 3 C-2.68 2.67 -1.36 2.34 0 2 C0 1.34 0 0.68 0 0 Z " fill="#E13B8F" transform="translate(29,116)"/>
<path d="M0 0 C0 3.11468205 -0.47827708 5.93487783 -1 9 C-1 9.66 -1 10.32 -1 11 C-1.99 11 -2.98 11 -4 11 C-4.49230769 4.6 -4.49230769 4.6 -2 1.5625 C-1.34 1.046875 -0.68 0.53125 0 0 Z " fill="#61198B" transform="translate(142,102)"/>
<path d="M0 0 C0.66 0 1.32 0 2 0 C4.125 6.75 4.125 6.75 3 9 C2.01 9 1.02 9 0 9 C0 6.03 0 3.06 0 0 Z " fill="#C23B7F" transform="translate(176,90)"/>
<path d="M0 0 C4.66283606 3.51582826 7.72210402 6.03648545 9 12 C8.34 12 7.68 12 7 12 C5.52734375 10.13671875 5.52734375 10.13671875 3.9375 7.6875 C3.41027344 6.88699219 2.88304687 6.08648437 2.33984375 5.26171875 C1 3 1 3 0 0 Z " fill="#BF416C" transform="translate(183,74)"/>
<path d="M0 0 C0.99 0.33 1.98 0.66 3 1 C3 4.63 3 8.26 3 12 C2.01 12.495 2.01 12.495 1 13 C1.020625 11.96875 1.04125 10.9375 1.0625 9.875 C1.00723339 6.44847031 0.65449285 3.35427586 0 0 Z " fill="#F5072B" transform="translate(17,47)"/>
<path d="M0 0 C1.258125 0.12375 2.51625 0.2475 3.8125 0.375 C4.87404297 0.47941406 4.87404297 0.47941406 5.95703125 0.5859375 C8 1 8 1 11 3 C8.37684968 4.31157516 6.76966564 3.89649988 3.875 3.5625 C2.96492187 3.46066406 2.05484375 3.35882813 1.1171875 3.25390625 C0.41851562 3.17011719 -0.28015625 3.08632813 -1 3 C-0.67 2.01 -0.34 1.02 0 0 Z " fill="#EC9028" transform="translate(164,38)"/>
<path d="M0 0 C0.66 0.33 1.32 0.66 2 1 C2 3.97 2 6.94 2 10 C1.01 10.33 0.02 10.66 -1 11 C-0.67 7.37 -0.34 3.74 0 0 Z " fill="#F79A22" transform="translate(9,16)"/>
<path d="M0 0 C-0.99 0.33 -1.98 0.66 -3 1 C-3 1.66 -3 2.32 -3 3 C-4.32 3.33 -5.64 3.66 -7 4 C-7.33 3.34 -7.66 2.68 -8 2 C-8.99 1.34 -9.98 0.68 -11 0 C-6.98195309 -0.84098656 -3.98196457 -1.05404945 0 0 Z " fill="#A012B3" transform="translate(161,107)"/>
<path d="M0 0 C4.43458973 1.3937282 6.87378374 3.60582235 10 7 C9.29875 6.71125 8.5975 6.4225 7.875 6.125 C4.94547497 4.97866412 1.99078347 3.97374346 -1 3 C-0.67 2.01 -0.34 1.02 0 0 Z " fill="#C8385C" transform="translate(173,67)"/>
<path d="M0 0 C2 1.375 2 1.375 4 3 C4 3.66 4 4.32 4 5 C1.47946405 6.26026798 0.1457902 5.91874445 -2.625 5.5625 C-3.85089844 5.40974609 -3.85089844 5.40974609 -5.1015625 5.25390625 C-6.04128906 5.12822266 -6.04128906 5.12822266 -7 5 C-4.92446352 4.4465236 -3.15634036 4 -1 4 C-0.67 2.68 -0.34 1.36 0 0 Z " fill="#E8692E" transform="translate(184,38)"/>
<path d="M0 0 C1.32 0.33 2.64 0.66 4 1 C4.33 3.31 4.66 5.62 5 8 C2.5 6.25 2.5 6.25 0 4 C0 2.68 0 1.36 0 0 Z " fill="#D32564" transform="translate(51,91)"/>
<path d="M0 0 C2.52259061 1.97420135 2.9929808 2.96745642 3.6875 6.1875 C3.790625 7.115625 3.89375 8.04375 4 9 C3.01 9.495 3.01 9.495 2 10 C1.814375 9.071875 1.814375 9.071875 1.625 8.125 C1.12802644 5.80879168 1.12802644 5.80879168 -1 4 C-0.625 1.875 -0.625 1.875 0 0 Z " fill="#EA367B" transform="translate(187,81)"/>
<path d="M0 0 C0.66 0 1.32 0 2 0 C2 0.66 2 1.32 2 2 C1.34 2 0.68 2 0 2 C-0.2165625 2.8971875 -0.2165625 2.8971875 -0.4375 3.8125 C-0.8872439 5.56150404 -1.42892341 7.28677023 -2 9 C-2.99 9 -3.98 9 -5 9 C-3.7580393 5.56072421 -2.44259716 2.74792181 0 0 Z " fill="#A6414E" transform="translate(146,35)"/>
<path d="M0 0 C1.58294782 -0.05437607 3.16644256 -0.09296271 4.75 -0.125 C5.63171875 -0.14820312 6.5134375 -0.17140625 7.421875 -0.1953125 C10.1135858 0.00860498 11.69904974 0.63448279 14 2 C3.86206897 3.93103448 3.86206897 3.93103448 0 2 C0 1.34 0 0.68 0 0 Z " fill="#DA437D" transform="translate(84,105)"/>
<path d="M0 0 C0.33 0.66 0.66 1.32 1 2 C1.66 2 2.32 2 3 2 C2.67 2.99 2.34 3.98 2 5 C-0.31 5 -2.62 5 -5 5 C-4 2 -4 2 -1.9375 0.8125 C-1.298125 0.544375 -0.65875 0.27625 0 0 Z " fill="#E89331" transform="translate(77,29)"/>
<path d="M0 0 C0.33 0 0.66 0 1 0 C1.125 5.75 1.125 5.75 0 8 C-0.66 8 -1.32 8 -2 8 C-3.125 4.25 -3.125 4.25 -2 2 C-1.34 2 -0.68 2 0 2 C0 1.34 0 0.68 0 0 Z " fill="#E6387F" transform="translate(190,97)"/>
<path d="M0 0 C3.67230705 3.07999946 4.56802365 5.2482602 5 10 C2.9754262 8.06745228 1.57894208 6.36841312 0 4 C0 2.68 0 1.36 0 0 Z " fill="#B41696" transform="translate(142,57)"/>
<path d="M0 0 C-0.33 0.99 -0.66 1.98 -1 3 C-2.093125 2.95875 -3.18625 2.9175 -4.3125 2.875 C-8.08892229 2.67925334 -8.08892229 2.67925334 -11 5 C-10.25 3.0625 -10.25 3.0625 -9 1 C-6.05528957 -0.21850087 -3.15451555 -0.08762543 0 0 Z " fill="#F6B221" transform="translate(161,31)"/>
<path d="M0 0 C4.75 0.75 4.75 0.75 7 3 C7.125 6.125 7.125 6.125 7 9 C6.34 8.01 5.68 7.02 5 6 C4.13824802 4.92672708 3.2630396 3.86412584 2.375 2.8125 C1.59125 1.884375 0.8075 0.95625 0 0 Z " fill="#E7C667" transform="translate(16,3)"/>
<path d="M0 0 C4 0 4 0 6 1 C6 1.66 6 2.32 6 3 C6.99 3.33 7.98 3.66 9 4 C7.3125 4.8125 7.3125 4.8125 5 5 C2.25 2.5625 2.25 2.5625 0 0 Z " fill="#CF3259" transform="translate(165,80)"/>
<path d="M0 0 C4.75 1.875 4.75 1.875 7 3 C7 3.66 7 4.32 7 5 C4.69 4.34 2.38 3.68 0 3 C0 2.01 0 1.02 0 0 Z " fill="#E72A63" transform="translate(176,71)"/>
<path d="M0 0 C-1.12073862 0.83905565 -2.24674547 1.67107831 -3.375 2.5 C-4.00148438 2.9640625 -4.62796875 3.428125 -5.2734375 3.90625 C-7 5 -7 5 -9 5 C-9 4.01 -9 3.02 -9 2 C-3.375 -1.125 -3.375 -1.125 0 0 Z " fill="#FF9426" transform="translate(69,48)"/>
<path d="M0 0 C0.66 0.33 1.32 0.66 2 1 C-2.625 6.875 -2.625 6.875 -6 8 C-4.55746343 4.63408134 -2.66735273 2.48952921 0 0 Z " fill="#AA3E7A" transform="translate(128,104)"/>
<path d="M0 0 C0.33 1.32 0.66 2.64 1 4 C-0.98 5.32 -2.96 6.64 -5 8 C-5.66 7.34 -6.32 6.68 -7 6 C-6.21625 5.566875 -5.4325 5.13375 -4.625 4.6875 C-1.78301625 3.10779753 -1.78301625 3.10779753 0 0 Z " fill="#AE3D83" transform="translate(175,99)"/>
<path d="M0 0 C0.66 0.33 1.32 0.66 2 1 C-0.25 3.5 -0.25 3.5 -3 6 C-4.32 6 -5.64 6 -7 6 C-6.21625 5.38125 -5.4325 4.7625 -4.625 4.125 C-2.03162353 2.10141339 -2.03162353 2.10141339 0 0 Z " fill="#B7447D" transform="translate(116,97)"/>
<path d="M0 0 C0.8125 1.6875 0.8125 1.6875 1 4 C-1.4375 6.75 -1.4375 6.75 -4 9 C-4.33 8.01 -4.66 7.02 -5 6 C-4.54625 5.566875 -4.0925 5.13375 -3.625 4.6875 C-1.79975666 2.89201658 -1.79975666 2.89201658 0 0 Z " fill="#A52981" transform="translate(134,95)"/>
<path d="M0 0 C0 0.66 0 1.32 0 2 C-1.98 2.66 -3.96 3.32 -6 4 C-6 2.68 -6 1.36 -6 0 C-3 -1 -3 -1 0 0 Z " fill="#DC3788" transform="translate(122,110)"/>
<path d="M0 0 C-3.96 1.98 -3.96 1.98 -8 4 C-8.33 3.01 -8.66 2.02 -9 1 C-2.25 -1.125 -2.25 -1.125 0 0 Z " fill="#EC3787" transform="translate(110,107)"/>
<path d="M0 0 C0.66 0.33 1.32 0.66 2 1 C1.60196439 3.88575819 1.20990931 4.82189513 -1.0625 6.75 C-1.701875 7.1625 -2.34125 7.575 -3 8 C-2.45276317 4.62537285 -1.9451 2.91765 0 0 Z " fill="#8F2199" transform="translate(51,95)"/>
<path d="M0 0 C0.99 0 1.98 0 3 0 C2.67 1.65 2.34 3.3 2 5 C1.34 5 0.68 5 0 5 C-0.33 5.99 -0.66 6.98 -1 8 C-0.67 5.36 -0.34 2.72 0 0 Z " fill="#CA291F" transform="translate(66,59)"/>
<path d="M0 0 C0.99 0.33 1.98 0.66 3 1 C2.34 2.98 1.68 4.96 1 7 C0.34 7 -0.32 7 -1 7 C-0.67 4.69 -0.34 2.38 0 0 Z " fill="#F50723" transform="translate(11,44)"/>
<path d="M0 0 C1.98 0.66 3.96 1.32 6 2 C6 2.66 6 3.32 6 4 C4.68 4.33 3.36 4.66 2 5 C1.34 3.35 0.68 1.7 0 0 Z " fill="#FCB815" transform="translate(150,43)"/>
<path d="M0 0 C2.31 0 4.62 0 7 0 C7.33 0.66 7.66 1.32 8 2 C5.36 2.33 2.72 2.66 0 3 C0 2.01 0 1.02 0 0 Z " fill="#FC832A" transform="translate(14,26)"/>
</svg>
