<?xml version="1.0" encoding="UTF-8"?>
<!DOCTYPE svg PUBLIC "-//W3C//DTD SVG 1.1//EN" "http://www.w3.org/Graphics/SVG/1.1/DTD/svg11.dtd">
<svg xmlns="http://www.w3.org/2000/svg" version="1.1" width="200px" height="200px" style="shape-rendering:geometricPrecision; text-rendering:geometricPrecision; image-rendering:optimizeQuality; fill-rule:evenodd; clip-rule:evenodd" xmlns:xlink="http://www.w3.org/1999/xlink">
<g><path style="opacity:1" fill="#f6f6f6" d="M 68.5,50.5 C 68.0269,49.0937 67.0269,48.427 65.5,48.5C 58.8431,43.1754 52.5097,37.5087 46.5,31.5C 45.6935,30.2719 44.6935,29.2719 43.5,28.5C 43.5743,26.5891 44.5743,25.4224 46.5,25C 84.1652,24.5 121.832,24.3333 159.5,24.5C 159.5,38.5 159.5,52.5 159.5,66.5C 134.831,66.6666 110.164,66.5 85.5,66C 79.3813,61.2833 73.7146,56.1167 68.5,50.5 Z"/></g>
<g><path style="opacity:0.272" fill="#242424" d="M 43.5,28.5 C 44.6935,29.2719 45.6935,30.2719 46.5,31.5C 44.3352,31.8841 42.6685,31.2174 41.5,29.5C 41.9569,28.7025 42.6236,28.3691 43.5,28.5 Z"/></g>
<g><path style="opacity:0.773" fill="#7c7c7c" d="M 65.5,48.5 C 67.0269,48.427 68.0269,49.0937 68.5,50.5C 66.9731,50.573 65.9731,49.9063 65.5,48.5 Z"/></g>
<g><path style="opacity:0.473" fill="#8b8b8b" d="M 134.5,79.5 C 102.996,79.1685 71.6622,79.5018 40.5,80.5C 39.9569,80.44 39.6236,80.1067 39.5,79.5C 71.3308,78.1701 102.997,78.1701 134.5,79.5 Z"/></g>
<g><path style="opacity:1" fill="#f9f9f9" d="M 40.5,80.5 C 71.6622,79.5018 102.996,79.1685 134.5,79.5C 134.519,92.8429 134.519,106.343 134.5,120C 118.167,120.667 101.833,120.667 85.5,120C 71.0078,108.005 57.0078,95.5054 43.5,82.5C 43.0269,81.0937 42.0269,80.427 40.5,80.5 Z"/></g>
<g><path style="opacity:0.71" fill="#777777" d="M 40.5,80.5 C 42.0269,80.427 43.0269,81.0937 43.5,82.5C 41.9731,82.573 40.9731,81.9063 40.5,80.5 Z"/></g>
<g><path style="opacity:0.385" fill="#747474" d="M 159.5,133.5 C 119.663,133.168 79.9965,133.501 40.5,134.5C 39.9569,134.44 39.6236,134.107 39.5,133.5C 79.6646,132.169 119.665,132.169 159.5,133.5 Z"/></g>
<g><path style="opacity:1" fill="#fdfdfd" d="M 159.5,133.5 C 159.5,146.833 159.5,160.167 159.5,173.5C 134.122,173.815 108.789,173.481 83.5,172.5C 82.5,172.167 81.8333,171.5 81.5,170.5C 80.7377,168.738 79.4044,167.738 77.5,167.5C 64.8434,156.842 52.51,145.842 40.5,134.5C 79.9965,133.501 119.663,133.168 159.5,133.5 Z"/></g>
<g><path style="opacity:0.706" fill="#656565" d="M 77.5,167.5 C 79.4044,167.738 80.7377,168.738 81.5,170.5C 79.5956,170.262 78.2623,169.262 77.5,167.5 Z"/></g>
<g><path style="opacity:0.48" fill="#8b8b8b" d="M 83.5,172.5 C 108.789,173.481 134.122,173.815 159.5,173.5C 134.67,174.663 109.67,174.83 84.5,174C 83.944,173.617 83.6107,173.117 83.5,172.5 Z"/></g>
</svg>
