<?xml version="1.0" encoding="UTF-8"?>
<!DOCTYPE svg PUBLIC "-//W3C//DTD SVG 1.1//EN" "http://www.w3.org/Graphics/SVG/1.1/DTD/svg11.dtd">
<svg xmlns="http://www.w3.org/2000/svg" version="1.1" width="666px" height="375px" style="shape-rendering:geometricPrecision; text-rendering:geometricPrecision; image-rendering:optimizeQuality; fill-rule:evenodd; clip-rule:evenodd" xmlns:xlink="http://www.w3.org/1999/xlink">
<g><path style="opacity:0.984" fill="#fdfdfd" d="M 114.5,88.5 C 112.522,99.7854 111.855,111.452 112.5,123.5C 102.161,123.334 91.828,123.5 81.5,124C 78.4567,124.332 76.4567,125.832 75.5,128.5C 72.8318,129.457 71.3318,131.457 71,134.5C 70.5012,138.486 70.3345,142.486 70.5,146.5C 99.0049,146.831 127.338,146.498 155.5,145.5C 156.458,145.953 157.292,146.619 158,147.5C 165.432,146.184 173.098,145.518 181,145.5C 188.5,145.667 196,145.833 203.5,146C 205.317,147.8 206.484,149.966 207,152.5C 209.504,161.852 212.004,171.186 214.5,180.5C 214.46,185.36 215.793,189.693 218.5,193.5C 220.769,199.231 222.435,205.231 223.5,211.5C 223.342,214.545 224.009,217.379 225.5,220C 225.167,220.333 224.833,220.667 224.5,221C 225.928,222.916 226.928,225.083 227.5,227.5C 229.115,223.991 230.115,220.325 230.5,216.5C 236.557,193.275 243.39,170.275 251,147.5C 266.089,146.509 281.255,146.176 296.5,146.5C 281.046,192.359 264.879,238.026 248,283.5C 246.556,285.155 244.722,285.822 242.5,285.5C 232.432,284.822 222.265,284.156 212,283.5C 210.989,284.337 209.822,284.67 208.5,284.5C 207.883,284.389 207.383,284.056 207,283.5C 199.193,261.911 191.693,240.244 184.5,218.5C 182.461,211.417 180.128,204.417 177.5,197.5C 177.709,196.914 178.043,196.414 178.5,196C 176.551,193.304 174.885,190.471 173.5,187.5C 168.662,175.668 163.996,163.668 159.5,151.5C 158.79,159.681 158.123,167.847 157.5,176C 158.656,212.137 158.822,248.304 158,284.5C 143.398,285.583 128.565,285.75 113.5,285C 112.684,283.077 112.017,281.077 111.5,279C 112.017,247.888 112.35,216.888 112.5,186C 112.317,184.316 111.65,184.15 110.5,185.5C 108.031,184.683 105.365,184.183 102.5,184C 91.8385,183.5 81.1719,183.333 70.5,183.5C 70.1665,216.544 70.4998,248.211 71.5,278.5C 72.8946,280.847 72.7279,283.181 71,285.5C 56.2914,285.437 41.4581,285.437 26.5,285.5C 25.1803,252.154 25.1803,218.821 26.5,185.5C 19.1049,185.605 11.4383,185.439 3.5,185C 2.58377,184.626 1.75044,184.126 1,183.5C 0.173474,170.993 0.34014,158.66 1.5,146.5C 9.88862,146.197 18.222,146.53 26.5,147.5C 27.3283,142.868 27.8283,138.202 28,133.5C 28.6543,134.696 29.1543,134.696 29.5,133.5C 28.452,132.452 27.452,131.452 26.5,130.5C 29.2962,105.201 43.2962,90.3679 68.5,86C 83.4697,84.5009 98.4697,84.1675 113.5,85C 114.337,86.0113 114.67,87.1779 114.5,88.5 Z"/></g>
<g><path style="opacity:0.476" fill="#eeeeee" d="M 114.5,88.5 C 114.667,100.171 114.5,111.838 114,123.5C 103.577,124.321 93.0766,124.821 82.5,125C 79.8608,125.653 77.5274,126.82 75.5,128.5C 76.4567,125.832 78.4567,124.332 81.5,124C 91.828,123.5 102.161,123.334 112.5,123.5C 111.855,111.452 112.522,99.7854 114.5,88.5 Z"/></g>
<g><path style="opacity:0.618" fill="#efeeee" d="M 26.5,130.5 C 27.452,131.452 28.452,132.452 29.5,133.5C 29.1543,134.696 28.6543,134.696 28,133.5C 27.8283,138.202 27.3283,142.868 26.5,147.5C 18.222,146.53 9.88862,146.197 1.5,146.5C 9.65657,145.671 17.9899,145.171 26.5,145C 25.1764,140.067 25.1764,135.234 26.5,130.5 Z"/></g>
<g><path style="opacity:0.986" fill="#fdfdfd" d="M 286.5,231.5 C 287.139,230.903 287.472,230.07 287.5,229C 286.768,223.677 286.101,218.344 285.5,213C 286.548,205.83 287.548,198.663 288.5,191.5C 298.295,159.741 319.961,143.741 353.5,143.5C 385.467,143.331 407.3,157.997 419,187.5C 422.452,200.212 423.286,213.046 421.5,226C 391.168,226.5 360.835,226.667 330.5,226.5C 331.602,237.768 337.602,244.935 348.5,248C 356.529,249.356 364.195,248.356 371.5,245C 374.711,241.958 377.711,238.791 380.5,235.5C 393.443,239.275 406.276,243.275 419,247.5C 415.675,257.86 409.508,266.36 400.5,273C 378.022,287.448 354.022,290.448 328.5,282C 306.343,272.005 292.343,255.172 286.5,231.5 Z M 375.5,190.5 C 376.371,193.112 377.037,195.779 377.5,198.5C 362.163,198.667 346.83,198.5 331.5,198C 330.748,197.329 330.414,196.496 330.5,195.5C 332.338,186.688 337.672,181.188 346.5,179C 358.98,176.316 368.647,180.149 375.5,190.5 Z"/></g>
<g><path style="opacity:0.046" fill="#e5e5e3" d="M 75.5,128.5 C 72.1454,133.607 70.8121,139.273 71.5,145.5C 99.5,145.5 127.5,145.5 155.5,145.5C 127.338,146.498 99.0049,146.831 70.5,146.5C 70.3345,142.486 70.5012,138.486 71,134.5C 71.3318,131.457 72.8318,129.457 75.5,128.5 Z"/></g>
<g><path style="opacity:0.979" fill="#fdfdfd" d="M 477.5,150.5 C 476.66,154.996 475.993,159.663 475.5,164.5C 475.833,165.5 476.167,166.5 476.5,167.5C 477.498,165.51 478.498,163.51 479.5,161.5C 479.376,160.893 479.043,160.56 478.5,160.5C 483.542,152.309 490.875,147.475 500.5,146C 521.167,145.333 541.833,145.333 562.5,146C 563.119,150.879 563.619,156.045 564,161.5C 567.878,155.955 572.711,151.455 578.5,148C 588.939,145.387 599.439,144.887 610,146.5C 610.165,159.215 609.498,171.881 608,184.5C 598.244,185.32 588.41,185.82 578.5,186C 569.631,189.883 564.797,196.716 564,206.5C 563.628,232.657 563.295,258.657 563,284.5C 548.066,285.468 533.232,285.802 518.5,285.5C 517.914,285.291 517.414,284.957 517,284.5C 516.501,280.514 516.334,276.514 516.5,272.5C 517.498,243.338 517.831,214.005 517.5,184.5C 508.983,184.174 500.65,184.507 492.5,185.5C 485.772,188.561 481.106,193.561 478.5,200.5C 477.778,200.918 477.278,201.584 477,202.5C 476.177,211.01 476.343,219.344 477.5,227.5C 477.667,246.503 477.5,265.503 477,284.5C 461.869,285.475 446.869,285.808 432,285.5C 430.837,262.312 430.337,238.979 430.5,215.5C 430.667,192.5 430.833,169.5 431,146.5C 446.103,145.177 461.27,145.177 476.5,146.5C 477.246,147.736 477.579,149.07 477.5,150.5 Z"/></g>
<g><path style="opacity:0.555" fill="#e9e7e8" d="M 477.5,150.5 C 477.163,154.621 477.496,157.955 478.5,160.5C 479.043,160.56 479.376,160.893 479.5,161.5C 478.498,163.51 477.498,165.51 476.5,167.5C 476.167,166.5 475.833,165.5 475.5,164.5C 475.993,159.663 476.66,154.996 477.5,150.5 Z"/></g>
<g><path style="opacity:0.329" fill="#deddda" d="M 214.5,180.5 C 216.279,184.595 217.612,188.928 218.5,193.5C 215.793,189.693 214.46,185.36 214.5,180.5 Z"/></g>
<g><path style="opacity:0.218" fill="#eeeeee" d="M 110.5,185.5 C 97.5,185.5 84.5,185.5 71.5,185.5C 72.75,216.458 72.75,247.458 71.5,278.5C 70.4998,248.211 70.1665,216.544 70.5,183.5C 81.1719,183.333 91.8385,183.5 102.5,184C 105.365,184.183 108.031,184.683 110.5,185.5 Z"/></g>
<g><path style="opacity:0.078" fill="#e7e7e6" d="M 173.5,187.5 C 174.885,190.471 176.551,193.304 178.5,196C 178.043,196.414 177.709,196.914 177.5,197.5C 180.128,204.417 182.461,211.417 184.5,218.5C 179.868,208.608 176.201,198.275 173.5,187.5 Z"/></g>
<g><path style="opacity:0.045" fill="#e7e7e7" d="M 330.5,195.5 C 330.414,196.496 330.748,197.329 331.5,198C 346.83,198.5 362.163,198.667 377.5,198.5C 377.037,195.779 376.371,193.112 375.5,190.5C 375.435,190.062 375.601,189.728 376,189.5C 377.759,192.608 378.592,195.941 378.5,199.5C 361.82,199.833 345.153,199.499 328.5,198.5C 328.942,197.261 329.609,196.261 330.5,195.5 Z"/></g>
<g><path style="opacity:0.048" fill="#e8e8e8" d="M 492.5,185.5 C 500.65,184.507 508.983,184.174 517.5,184.5C 517.831,214.005 517.498,243.338 516.5,272.5C 516.5,243.5 516.5,214.5 516.5,185.5C 508.5,185.5 500.5,185.5 492.5,185.5 Z"/></g>
<g><path style="opacity:0.046" fill="#e6e6e6" d="M 478.5,200.5 C 477.617,209.467 477.284,218.467 477.5,227.5C 476.343,219.344 476.177,211.01 477,202.5C 477.278,201.584 477.778,200.918 478.5,200.5 Z"/></g>
<g><path style="opacity:0.059" fill="#ededed" d="M 288.5,191.5 C 287.548,198.663 286.548,205.83 285.5,213C 286.101,218.344 286.768,223.677 287.5,229C 287.472,230.07 287.139,230.903 286.5,231.5C 283.46,217.866 284.126,204.532 288.5,191.5 Z"/></g>
<g><path style="opacity:0.114" fill="#e1e0e1" d="M 223.5,211.5 C 224.888,214.808 226.388,218.141 228,221.5C 228.757,219.685 229.59,218.019 230.5,216.5C 230.115,220.325 229.115,223.991 227.5,227.5C 226.928,225.083 225.928,222.916 224.5,221C 224.833,220.667 225.167,220.333 225.5,220C 224.009,217.379 223.342,214.545 223.5,211.5 Z"/></g>
<g><path style="opacity:0.983" fill="#fdfdfc" d="M 631.5,231.5 C 652.982,232.148 663.815,243.148 664,264.5C 659.278,282.214 647.778,290.047 629.5,288C 613.958,282.778 606.791,271.945 608,255.5C 611.349,242.985 619.182,234.985 631.5,231.5 Z"/></g>
<g><path style="opacity:0.067" fill="#d8d6d6" d="M 242.5,285.5 C 230.988,285.828 219.654,285.495 208.5,284.5C 209.822,284.67 210.989,284.337 212,283.5C 222.265,284.156 232.432,284.822 242.5,285.5 Z"/></g>
</svg>
