<?xml version="1.0" encoding="UTF-8"?>
<!DOCTYPE svg PUBLIC "-//W3C//DTD SVG 1.1//EN" "http://www.w3.org/Graphics/SVG/1.1/DTD/svg11.dtd">
<svg xmlns="http://www.w3.org/2000/svg" version="1.1" width="506px" height="493px" style="shape-rendering:geometricPrecision; text-rendering:geometricPrecision; image-rendering:optimizeQuality; fill-rule:evenodd; clip-rule:evenodd" xmlns:xlink="http://www.w3.org/1999/xlink">
<g><path style="opacity:1" fill="#22be72" d="M 91.5,430.5 C 91.9382,430.565 92.2716,430.399 92.5,430C 88.6567,426.757 85.9901,422.923 84.5,418.5C 82.8333,418.5 81.1667,418.5 79.5,418.5C 78.0795,415.739 77.4129,412.739 77.5,409.5C 76.1667,409.5 74.8333,409.5 73.5,409.5C 73.8804,406.208 72.5471,403.875 69.5,402.5C 68.6143,401.675 68.281,400.675 68.5,399.5C 66.8762,399.36 65.7096,400.027 65,401.5C 60.5897,396.764 56.5897,391.764 53,386.5C 52.6012,386.728 52.4346,387.062 52.5,387.5C 12.658,330.145 -0.842033,266.812 12,197.5C 30.8743,116.301 78.041,58.1348 153.5,23C 228.063,-7.00746 300.73,-3.00746 371.5,35C 455.297,87.412 495.963,163.245 493.5,262.5C 482.767,361.04 432.434,430.873 342.5,472C 260.973,502.645 183.639,493.978 110.5,446C 103.978,440.969 97.6445,435.803 91.5,430.5 Z M 291.5,146.5 C 277.673,147.331 263.673,147.831 249.5,148C 234.982,151.386 228.982,160.552 231.5,175.5C 231.5,177.833 231.5,180.167 231.5,182.5C 272.5,182.5 313.5,182.5 354.5,182.5C 354.5,246.167 354.5,309.833 354.5,373.5C 353.833,373.5 353.5,373.833 353.5,374.5C 332.806,375.155 312.473,374.488 292.5,372.5C 292.5,326.167 292.5,279.833 292.5,233.5C 291.5,233.5 290.5,233.5 289.5,233.5C 270.167,233.5 250.833,233.5 231.5,233.5C 231.5,280.167 231.5,326.833 231.5,373.5C 210.667,374.828 189.833,374.828 169,373.5C 168.5,326.835 168.333,280.168 168.5,233.5C 156.586,233.821 144.753,233.488 133,232.5C 132.5,218.837 132.333,205.171 132.5,191.5C 132.5,188.5 132.5,185.5 132.5,182.5C 144.5,182.5 156.5,182.5 168.5,182.5C 168.5,180.167 168.5,177.833 168.5,175.5C 166.409,142.996 179.409,118.996 207.5,103.5C 216.584,100.396 225.917,98.2296 235.5,97C 254.164,96.5001 272.83,96.3334 291.5,96.5C 291.5,113.167 291.5,129.833 291.5,146.5 Z"/></g>
<g><path style="opacity:0.632" fill="#4cb37d" d="M 291.5,146.5 C 291.5,129.833 291.5,113.167 291.5,96.5C 272.83,96.3334 254.164,96.5001 235.5,97C 225.917,98.2296 216.584,100.396 207.5,103.5C 211.434,100.898 215.767,98.8976 220.5,97.5C 221.192,96.9747 221.692,96.3081 222,95.5C 223.569,96.1222 225.236,96.4555 227,96.5C 238.448,95.2679 249.948,94.6013 261.5,94.5C 271.5,94.6667 281.5,94.8333 291.5,95C 292.831,112.264 292.831,129.431 291.5,146.5 Z"/></g>
<g><path style="opacity:0.939" fill="#4bab74" d="M 168.5,175.5 C 168.5,177.833 168.5,180.167 168.5,182.5C 156.5,182.5 144.5,182.5 132.5,182.5C 132.5,185.5 132.5,188.5 132.5,191.5C 131.18,188.101 131.18,184.601 132.5,181C 144.162,180.5 155.829,180.333 167.5,180.5C 167.216,178.585 167.549,176.919 168.5,175.5 Z"/></g>
<g><path style="opacity:1" fill="#4daf79" d="M 231.5,175.5 C 232.451,176.919 232.784,178.585 232.5,180.5C 273.168,180.333 313.835,180.5 354.5,181C 355,181.5 355.5,182 356,182.5C 356.167,214.333 356.333,246.167 356.5,278C 356.5,310.174 355.833,342.007 354.5,373.5C 354.5,309.833 354.5,246.167 354.5,182.5C 313.5,182.5 272.5,182.5 231.5,182.5C 231.5,180.167 231.5,177.833 231.5,175.5 Z"/></g>
<g><path style="opacity:1" fill="#40b87a" d="M 289.5,233.5 C 291.157,279.785 292.157,326.118 292.5,372.5C 312.473,374.488 332.806,375.155 353.5,374.5C 355.379,374.393 355.712,374.893 354.5,376C 332.813,376.777 311.147,376.611 289.5,375.5C 289.667,328.832 289.5,282.165 289,235.5C 270.243,234.507 251.41,234.174 232.5,234.5C 232.832,281.003 232.499,327.336 231.5,373.5C 231.5,326.833 231.5,280.167 231.5,233.5C 250.833,233.5 270.167,233.5 289.5,233.5 Z"/></g>
<g><path style="opacity:0.349" fill="#54a37b" d="M 289.5,233.5 C 290.5,233.5 291.5,233.5 292.5,233.5C 292.5,279.833 292.5,326.167 292.5,372.5C 292.157,326.118 291.157,279.785 289.5,233.5 Z"/></g>
<g><path style="opacity:1" fill="#3db779" d="M 91.5,430.5 C 76.7379,417.739 63.7379,403.406 52.5,387.5C 52.4346,387.062 52.6012,386.728 53,386.5C 56.5897,391.764 60.5897,396.764 65,401.5C 65.7096,400.027 66.8762,399.36 68.5,399.5C 68.281,400.675 68.6143,401.675 69.5,402.5C 72.5471,403.875 73.8804,406.208 73.5,409.5C 74.8333,409.5 76.1667,409.5 77.5,409.5C 77.4129,412.739 78.0795,415.739 79.5,418.5C 81.1667,418.5 82.8333,418.5 84.5,418.5C 85.9901,422.923 88.6567,426.757 92.5,430C 92.2716,430.399 91.9382,430.565 91.5,430.5 Z"/></g>
</svg>
