<?xml version="1.0" encoding="UTF-8"?>
<!DOCTYPE svg PUBLIC "-//W3C//DTD SVG 1.1//EN" "http://www.w3.org/Graphics/SVG/1.1/DTD/svg11.dtd">
<svg xmlns="http://www.w3.org/2000/svg" version="1.1" width="225px" height="225px" style="shape-rendering:geometricPrecision; text-rendering:geometricPrecision; image-rendering:optimizeQuality; fill-rule:evenodd; clip-rule:evenodd" xmlns:xlink="http://www.w3.org/1999/xlink">
<g><path style="opacity:1" fill="#eca36d" d="M 122.5,33.5 C 118.614,32.4806 114.781,31.1473 111,29.5C 107.086,30.7484 103.253,32.0817 99.5,33.5C 103.036,30.8091 106.869,28.4757 111,26.5C 115.131,28.4757 118.964,30.8091 122.5,33.5 Z"/></g>
<g><path style="opacity:0.953" fill="#eeaa77" d="M 99.5,33.5 C 98.5144,35.4077 96.8477,36.4077 94.5,36.5C 95.6594,34.7497 97.326,33.7497 99.5,33.5 Z"/></g>
<g><path style="opacity:0.008" fill="#ffead2" d="M 130.5,37.5 C 132.027,37.427 133.027,38.0937 133.5,39.5C 131.973,39.573 130.973,38.9063 130.5,37.5 Z"/></g>
<g><path style="opacity:1" fill="#f68938" d="M 122.5,33.5 C 125.395,34.3994 128.062,35.7328 130.5,37.5C 130.973,38.9063 131.973,39.573 133.5,39.5C 133.833,39.5 134.167,39.5 134.5,39.5C 134.821,41.0481 135.821,41.7148 137.5,41.5C 140.244,44.5105 143.244,47.1772 146.5,49.5C 135.028,56.4057 123.362,63.0724 111.5,69.5C 109.692,69.5086 108.025,69.0086 106.5,68C 95.7369,61.2883 84.7369,55.1216 73.5,49.5C 73.8333,48.8333 74.1667,48.1667 74.5,47.5C 80.6538,43.0388 87.3205,39.3721 94.5,36.5C 96.8477,36.4077 98.5144,35.4077 99.5,33.5C 103.253,32.0817 107.086,30.7484 111,29.5C 114.781,31.1473 118.614,32.4806 122.5,33.5 Z"/></g>
<g><path style="opacity:0.894" fill="#f4cba0" d="M 134.5,39.5 C 135.71,39.9321 136.71,40.5987 137.5,41.5C 135.821,41.7148 134.821,41.0481 134.5,39.5 Z"/></g>
<g><path style="opacity:1" fill="#eea373" d="M 137.5,41.5 C 142.372,43.4288 146.705,46.0955 150.5,49.5C 149.167,49.5 147.833,49.5 146.5,49.5C 143.244,47.1772 140.244,44.5105 137.5,41.5 Z"/></g>
<g><path style="opacity:1" fill="#f9d186" d="M 74.5,47.5 C 74.1667,48.1667 73.8333,48.8333 73.5,49.5C 71.7179,50.7196 69.7179,51.3862 67.5,51.5C 69.3356,49.412 71.6689,48.0787 74.5,47.5 Z"/></g>
<g><path style="opacity:1" fill="#d74651" d="M 146.5,49.5 C 147.833,49.5 149.167,49.5 150.5,49.5C 155.76,51.799 160.76,54.4657 165.5,57.5C 164.504,57.4142 163.671,57.7476 163,58.5C 157.831,54.8161 152.331,51.8161 146.5,49.5 Z"/></g>
<g><path style="opacity:1" fill="#e6052f" d="M 146.5,49.5 C 152.331,51.8161 157.831,54.8161 163,58.5C 163.671,57.7476 164.504,57.4142 165.5,57.5C 170.163,62.3022 175.83,65.6356 182.5,67.5C 182.833,67.5 183.167,67.5 183.5,67.5C 183.343,70.3176 182.009,72.3176 179.5,73.5C 176.192,71.7162 174.525,72.7162 174.5,76.5C 172.633,76.955 170.8,77.6216 169,78.5C 167.893,78.4148 166.893,78.0814 166,77.5C 166.771,79.18 166.605,80.8467 165.5,82.5C 163.5,82.5 161.5,82.5 159.5,82.5C 159.567,83.9587 159.234,85.2921 158.5,86.5C 156.143,86.3367 153.81,86.5034 151.5,87C 149.831,88.669 147.831,89.5023 145.5,89.5C 144.335,86.4098 142.002,85.0764 138.5,85.5C 138.5,84.5 138.5,83.5 138.5,82.5C 135.085,80.7287 131.418,79.7287 127.5,79.5C 126.656,77.2407 124.989,76.2407 122.5,76.5C 120.847,76.3404 119.514,75.6737 118.5,74.5C 118.027,73.0937 117.027,72.427 115.5,72.5C 113.847,72.3404 112.514,71.6737 111.5,70.5C 111.5,70.1667 111.5,69.8333 111.5,69.5C 123.362,63.0724 135.028,56.4057 146.5,49.5 Z"/></g>
<g><path style="opacity:1" fill="#fac740" d="M 73.5,49.5 C 84.7369,55.1216 95.7369,61.2883 106.5,68C 108.025,69.0086 109.692,69.5086 111.5,69.5C 111.5,69.8333 111.5,70.1667 111.5,70.5C 110.609,71.1098 109.609,71.4431 108.5,71.5C 107.735,71.0766 106.902,70.7432 106,70.5C 102.866,72.974 99.3665,74.474 95.5,75C 96.4506,75.7175 96.6172,76.5509 96,77.5C 93.4788,77.9995 91.6455,79.3328 90.5,81.5C 88.9731,81.427 87.9731,82.0937 87.5,83.5C 85.8014,83.6204 84.1347,83.9537 82.5,84.5C 78.218,88.7078 73.218,90.0411 67.5,88.5C 64.4585,85.8515 61.1251,83.3515 57.5,81C 55.6547,79.872 53.6547,79.372 51.5,79.5C 46.3682,77.1005 41.3682,74.4338 36.5,71.5C 37.2112,69.9699 38.2112,68.6366 39.5,67.5C 48.174,61.1585 57.5073,55.8252 67.5,51.5C 69.7179,51.3862 71.7179,50.7196 73.5,49.5 Z"/></g>
<g><path style="opacity:1" fill="#e36b75" d="M 165.5,57.5 C 171.668,60.0804 177.335,63.4137 182.5,67.5C 175.83,65.6356 170.163,62.3022 165.5,57.5 Z"/></g>
<g><path style="opacity:0.722" fill="#f5d7a0" d="M 39.5,67.5 C 38.2112,68.6366 37.2112,69.9699 36.5,71.5C 35.7109,71.2172 35.0442,70.7172 34.5,70C 35.9101,68.6283 37.5767,67.795 39.5,67.5 Z"/></g>
<g><path style="opacity:1" fill="#f6d26c" d="M 108.5,71.5 C 102.83,75.337 96.8302,78.6704 90.5,81.5C 91.6455,79.3328 93.4788,77.9995 96,77.5C 96.6172,76.5509 96.4506,75.7175 95.5,75C 99.3665,74.474 102.866,72.974 106,70.5C 106.902,70.7432 107.735,71.0766 108.5,71.5 Z"/></g>
<g><path style="opacity:1" fill="#d95f6a" d="M 183.5,67.5 C 184.973,68.072 186.307,68.9054 187.5,70C 185.264,72.2841 182.598,73.7841 179.5,74.5C 179.5,74.1667 179.5,73.8333 179.5,73.5C 182.009,72.3176 183.343,70.3176 183.5,67.5 Z"/></g>
<g><path style="opacity:0.361" fill="#fa9fb6" d="M 115.5,72.5 C 117.027,72.427 118.027,73.0937 118.5,74.5C 116.973,74.573 115.973,73.9063 115.5,72.5 Z"/></g>
<g><path style="opacity:1" fill="#de5b65" d="M 122.5,76.5 C 124.989,76.2407 126.656,77.2407 127.5,79.5C 125.566,78.8897 123.899,77.8897 122.5,76.5 Z"/></g>
<g><path style="opacity:1" fill="#e3565d" d="M 179.5,73.5 C 179.5,73.8333 179.5,74.1667 179.5,74.5C 175.167,77.669 170.5,80.3357 165.5,82.5C 166.605,80.8467 166.771,79.18 166,77.5C 166.893,78.0814 167.893,78.4148 169,78.5C 170.8,77.6216 172.633,76.955 174.5,76.5C 174.525,72.7162 176.192,71.7162 179.5,73.5 Z"/></g>
<g><path style="opacity:1" fill="#d83b49" d="M 127.5,79.5 C 131.418,79.7287 135.085,80.7287 138.5,82.5C 138.5,83.5 138.5,84.5 138.5,85.5C 136.847,85.3404 135.514,84.6737 134.5,83.5C 134.027,82.0937 133.027,81.427 131.5,81.5C 129.847,81.3404 128.514,80.6737 127.5,79.5 Z"/></g>
<g><path style="opacity:1" fill="#f5d47a" d="M 51.5,79.5 C 53.6547,79.372 55.6547,79.872 57.5,81C 61.1251,83.3515 64.4585,85.8515 67.5,88.5C 61.835,86.0031 56.5016,83.0031 51.5,79.5 Z"/></g>
<g><path style="opacity:0.031" fill="#fef1a8" d="M 90.5,81.5 C 90.0269,82.9063 89.0269,83.573 87.5,83.5C 87.9731,82.0937 88.9731,81.427 90.5,81.5 Z"/></g>
<g><path style="opacity:0.365" fill="#f89bae" d="M 131.5,81.5 C 133.027,81.427 134.027,82.0937 134.5,83.5C 132.973,83.573 131.973,82.9063 131.5,81.5 Z"/></g>
<g><path style="opacity:1" fill="#e76471" d="M 165.5,82.5 C 163.337,84.0828 161.004,85.4161 158.5,86.5C 159.234,85.2921 159.567,83.9587 159.5,82.5C 161.5,82.5 163.5,82.5 165.5,82.5 Z"/></g>
<g><path style="opacity:1" fill="#db5862" d="M 138.5,85.5 C 142.002,85.0764 144.335,86.4098 145.5,89.5C 142.669,88.9213 140.336,87.588 138.5,85.5 Z"/></g>
<g><path style="opacity:1" fill="#e0515a" d="M 158.5,86.5 C 155.771,88.5416 152.771,90.2083 149.5,91.5C 147.829,91.3318 146.496,90.6651 145.5,89.5C 147.831,89.5023 149.831,88.669 151.5,87C 153.81,86.5034 156.143,86.3367 158.5,86.5 Z"/></g>
<g><path style="opacity:1" fill="#f3d683" d="M 87.5,83.5 C 83.3351,86.1364 79.0018,88.6364 74.5,91C 71.5193,91.838 69.1859,91.0047 67.5,88.5C 73.218,90.0411 78.218,88.7078 82.5,84.5C 84.1347,83.9537 85.8014,83.6204 87.5,83.5 Z"/></g>
<g><path style="opacity:1" fill="#2b7d9d" d="M 109.5,112.5 C 135.887,126.196 161.887,140.696 187.5,156C 162.631,170.6 137.631,184.933 112.5,199C 108.413,197.969 104.413,196.302 100.5,194C 78.5,181.333 56.5,168.667 34.5,156C 59.6687,141.636 84.6687,127.136 109.5,112.5 Z"/></g>
</svg>
