<?xml version="1.0" encoding="UTF-8"?>
<!DOCTYPE svg PUBLIC "-//W3C//DTD SVG 1.1//EN" "http://www.w3.org/Graphics/SVG/1.1/DTD/svg11.dtd">
<svg xmlns="http://www.w3.org/2000/svg" version="1.1" width="1240px" height="201px" style="shape-rendering:geometricPrecision; text-rendering:geometricPrecision; image-rendering:optimizeQuality; fill-rule:evenodd; clip-rule:evenodd" xmlns:xlink="http://www.w3.org/1999/xlink">
<g><path style="opacity:1" fill="#067a9e" d="M -0.5,36.5 C 8.5,36.5 17.5,36.5 26.5,36.5C 26.5,90.8333 26.5,145.167 26.5,199.5C 17.5,199.5 8.5,199.5 -0.5,199.5C -0.5,145.167 -0.5,90.8333 -0.5,36.5 Z"/></g>
<g><path style="opacity:0.999" fill="#0b7a9d" d="M 72.5,36.5 C 81.5062,36.3336 90.5062,36.5002 99.5,37C 110.403,68.0295 121.236,99.5295 132,131.5C 132.333,100.167 132.667,68.8333 133,37.5C 141.415,36.5168 149.915,36.1834 158.5,36.5C 158.5,90.8333 158.5,145.167 158.5,199.5C 149.582,199.817 140.749,199.484 132,198.5C 120.659,165.145 109.326,131.811 98,98.5C 97.5,132.165 97.3333,165.832 97.5,199.5C 89.1667,199.5 80.8333,199.5 72.5,199.5C 72.5,145.167 72.5,90.8333 72.5,36.5 Z"/></g>
<g><path style="opacity:1" fill="#0a7a9d" d="M 312.5,36.5 C 339.833,36.5 367.167,36.5 394.5,36.5C 394.5,44.8333 394.5,53.1667 394.5,61.5C 385.5,61.5 376.5,61.5 367.5,61.5C 367.5,107.5 367.5,153.5 367.5,199.5C 358.167,199.5 348.833,199.5 339.5,199.5C 339.5,153.5 339.5,107.5 339.5,61.5C 330.5,61.5 321.5,61.5 312.5,61.5C 312.5,53.1667 312.5,44.8333 312.5,36.5 Z"/></g>
<g><path style="opacity:1" fill="#0a7a9e" d="M 1041.5,36.5 C 1060.2,36.0959 1078.87,36.5959 1097.5,38C 1114.26,40.7572 1123.42,50.5905 1125,67.5C 1125.67,79.8333 1125.67,92.1667 1125,104.5C 1124.28,116.798 1118.44,125.631 1107.5,131C 1115.47,153.752 1123.14,176.585 1130.5,199.5C 1120.92,199.818 1111.42,199.485 1102,198.5C 1095.14,177.572 1088.47,156.572 1082,135.5C 1077.93,134.949 1073.76,134.949 1069.5,135.5C 1069.5,156.833 1069.5,178.167 1069.5,199.5C 1060.17,199.5 1050.83,199.5 1041.5,199.5C 1041.5,145.167 1041.5,90.8333 1041.5,36.5 Z M 1069.5,61.5 C 1075.51,61.3338 1081.51,61.5005 1087.5,62C 1091.5,62.6678 1094.33,64.8345 1096,68.5C 1096.67,80.1667 1096.67,91.8333 1096,103.5C 1094.88,105.624 1093.38,107.457 1091.5,109C 1084.25,110.391 1076.92,110.891 1069.5,110.5C 1069.5,94.1667 1069.5,77.8333 1069.5,61.5 Z"/></g>
<g><path style="opacity:1" fill="#0d7a9e" d="M 253.5,200.5 C 244.833,200.5 236.167,200.5 227.5,200.5C 213.921,198.428 205.087,190.761 201,177.5C 200.612,168.089 200.279,158.756 200,149.5C 208.755,148.35 217.588,148.184 226.5,149C 227.094,156.164 227.928,163.331 229,170.5C 231.609,174.722 235.442,176.722 240.5,176.5C 246.337,177.061 250.503,174.728 253,169.5C 254.403,162.196 254.903,155.03 254.5,148C 253.637,144.274 251.971,140.941 249.5,138C 238.167,131.333 226.833,124.667 215.5,118C 208.411,113.58 203.577,107.413 201,99.5C 200.333,86.1667 200.333,72.8333 201,59.5C 203.666,48.8345 210.166,41.6679 220.5,38C 238.441,32.4266 255.441,34.4266 271.5,44C 276.953,49.7404 280.119,56.5737 281,64.5C 281.667,71.5 281.667,78.5 281,85.5C 271.917,84.5155 262.751,84.1822 253.5,84.5C 253.666,78.8236 253.499,73.1569 253,67.5C 249.422,60.1843 243.589,57.6843 235.5,60C 231.258,61.2449 228.758,64.0782 228,68.5C 227.144,76.2318 227.477,83.8984 229,91.5C 230.5,94.3333 232.667,96.5 235.5,98C 245.5,103.667 255.5,109.333 265.5,115C 279.524,124.88 284.857,138.38 281.5,155.5C 281.333,162.167 281.167,168.833 281,175.5C 277.34,189.91 268.174,198.243 253.5,200.5 Z"/></g>
<g><path style="opacity:1" fill="#097a9e" d="M 736.5,200.5 C 727.833,200.5 719.167,200.5 710.5,200.5C 696.534,198.597 687.367,190.93 683,177.5C 681.378,140.196 681.045,102.863 682,65.5C 683.576,48.5905 692.743,38.7572 709.5,36C 722.064,33.9905 734.397,34.9905 746.5,39C 756.444,43.28 762.277,50.78 764,61.5C 764.832,70.8511 764.665,80.1845 763.5,89.5C 754.97,88.1781 746.47,88.1781 738,89.5C 736.702,82.3336 736.035,75.0002 736,67.5C 733.77,61.9605 729.604,59.2938 723.5,59.5C 715.809,59.3657 711.309,63.0324 710,70.5C 709.036,103.539 709.369,136.539 711,169.5C 713.337,174.595 717.337,176.928 723,176.5C 729.302,176.856 733.635,174.19 736,168.5C 736.5,160.173 736.666,151.84 736.5,143.5C 746.025,143.751 755.192,143.418 764,142.5C 764.667,153.167 764.667,163.833 764,174.5C 760.508,189.158 751.342,197.825 736.5,200.5 Z"/></g>
<g><path style="opacity:1" fill="#097a9e" d="M 430.5,36.5 C 449.204,36.0959 467.87,36.5959 486.5,38C 500.511,40.681 509.344,48.8477 513,62.5C 513.667,78.5 513.667,94.5 513,110.5C 510.264,119.729 504.764,126.729 496.5,131.5C 504.427,154.109 511.761,176.609 518.5,199C 509.255,199.817 500.089,199.65 491,198.5C 483.934,177.968 477.267,157.301 471,136.5C 469.874,135.056 468.374,134.39 466.5,134.5C 463.919,135.456 461.419,135.456 459,134.5C 458.667,155.833 458.333,177.167 458,198.5C 453.414,199.153 448.747,199.487 444,199.5C 438.995,199.643 434.161,199.143 429.5,198C 430.497,144.238 430.831,90.4049 430.5,36.5 Z M 458.5,61.5 C 464.509,61.3338 470.509,61.5005 476.5,62C 481.333,62.8333 484.167,65.6667 485,70.5C 485.667,81.1667 485.667,91.8333 485,102.5C 483.833,106.333 481.333,108.833 477.5,110C 471.175,110.5 464.842,110.666 458.5,110.5C 458.5,94.1667 458.5,77.8333 458.5,61.5 Z"/></g>
<g><path style="opacity:0.996" fill="#0d79a0" d="M 585.5,171.5 C 583.955,170.77 583.122,169.437 583,167.5C 580.595,167.964 578.095,168.131 575.5,168C 574.978,168.561 574.645,169.228 574.5,170C 575.289,171.626 576.289,173.126 577.5,174.5C 575.851,175.148 574.518,176.148 573.5,177.5C 574.485,179.098 574.651,180.765 574,182.5C 572.201,182.279 570.368,181.946 568.5,181.5C 568.415,182.932 567.415,184.265 565.5,185.5C 564.575,184.359 563.741,184.359 563,185.5C 561.483,183.76 559.983,182.094 558.5,180.5C 557.71,179.391 557.21,178.058 557,176.5C 556.828,130.459 556.328,84.4589 555.5,38.5C 555.709,37.914 556.043,37.414 556.5,37C 565.494,36.5002 574.494,36.3336 583.5,36.5C 584.81,72.6638 584.81,108.83 583.5,145C 583.287,153.938 583.954,162.772 585.5,171.5 Z"/></g>
<g><path style="opacity:1" fill="#0a7a9e" d="M 969.5,200.5 C 960.833,200.5 952.167,200.5 943.5,200.5C 927.268,198.102 917.768,188.768 915,172.5C 914.5,127.168 914.333,81.8346 914.5,36.5C 923.833,36.5 933.167,36.5 942.5,36.5C 942.333,79.5013 942.5,122.501 943,165.5C 943.652,173.346 947.985,177.013 956,176.5C 963.85,176.317 968.183,172.317 969,164.5C 969.5,121.835 969.667,79.168 969.5,36.5C 978.751,36.1822 987.917,36.5155 997,37.5C 997.167,59.6667 997.333,81.8333 997.5,104C 997.637,128.201 997.137,152.367 996,176.5C 992.356,190.314 983.522,198.314 969.5,200.5 Z"/></g>
<g><path style="opacity:1" fill="#0d799f" d="M 1239.5,36.5 C 1239.5,44.8333 1239.5,53.1667 1239.5,61.5C 1225.17,61.5 1210.83,61.5 1196.5,61.5C 1196.5,75.8333 1196.5,90.1667 1196.5,104.5C 1208.83,104.5 1221.17,104.5 1233.5,104.5C 1233.97,113.004 1233.47,121.337 1232,129.5C 1220.29,129.419 1208.46,129.419 1196.5,129.5C 1196.5,144.5 1196.5,159.5 1196.5,174.5C 1210.83,174.5 1225.17,174.5 1239.5,174.5C 1239.5,182.833 1239.5,191.167 1239.5,199.5C 1215.83,199.5 1192.17,199.5 1168.5,199.5C 1168.5,145.167 1168.5,90.8333 1168.5,36.5C 1192.17,36.5 1215.83,36.5 1239.5,36.5 Z"/></g>
<g><path style="opacity:1" fill="#0c7a9e" d="M 610.5,200.5 C 601.833,200.5 593.167,200.5 584.5,200.5C 575.739,199.034 568.239,195.034 562,188.5C 560.519,185.89 559.352,183.223 558.5,180.5C 559.983,182.094 561.483,183.76 563,185.5C 563.741,184.359 564.575,184.359 565.5,185.5C 567.415,184.265 568.415,182.932 568.5,181.5C 570.368,181.946 572.201,182.279 574,182.5C 574.651,180.765 574.485,179.098 573.5,177.5C 574.518,176.148 575.851,175.148 577.5,174.5C 576.289,173.126 575.289,171.626 574.5,170C 574.645,169.228 574.978,168.561 575.5,168C 578.095,168.131 580.595,167.964 583,167.5C 583.122,169.437 583.955,170.77 585.5,171.5C 592.652,177.823 600.152,178.157 608,172.5C 608.973,170.608 609.64,168.608 610,166.5C 610.5,123.168 610.667,79.8346 610.5,36.5C 619.833,36.5 629.167,36.5 638.5,36.5C 638.667,81.8346 638.5,127.168 638,172.5C 635.37,188.296 626.204,197.629 610.5,200.5 Z"/></g>
<g><path style="opacity:1" fill="#1e7592" d="M 853.5,61.5 C 861.65,60.5073 869.983,60.1739 878.5,60.5C 878.5,53.1667 878.5,45.8333 878.5,38.5C 852.165,38.3334 825.831,38.5 799.5,39C 798.52,46.0787 798.187,53.2454 798.5,60.5C 808.167,60.5 817.833,60.5 827.5,60.5C 826.256,104.811 826.256,149.144 827.5,193.5C 829.936,193.317 832.103,193.984 834,195.5C 837.826,195.71 841.492,195.377 845,194.5C 846.888,196.631 848.388,196.631 849.5,194.5C 849.444,193.263 848.944,192.263 848,191.5C 847.333,180.833 847.333,170.167 848,159.5C 848.023,170.325 848.69,180.992 850,191.5C 850.828,148.459 850.661,105.459 849.5,62.5C 850.325,61.6143 851.325,61.281 852.5,61.5C 852.5,107.5 852.5,153.5 852.5,199.5C 843.167,199.5 833.833,199.5 824.5,199.5C 824.5,153.5 824.5,107.5 824.5,61.5C 815.5,61.5 806.5,61.5 797.5,61.5C 797.5,53.1667 797.5,44.8333 797.5,36.5C 824.833,36.5 852.167,36.5 879.5,36.5C 879.5,44.8333 879.5,53.1667 879.5,61.5C 870.833,61.5 862.167,61.5 853.5,61.5 Z"/></g>
<g><path style="opacity:1" fill="#037ba0" d="M 853.5,61.5 C 853.167,61.5 852.833,61.5 852.5,61.5C 851.325,61.281 850.325,61.6143 849.5,62.5C 850.661,105.459 850.828,148.459 850,191.5C 848.69,180.992 848.023,170.325 848,159.5C 847.333,170.167 847.333,180.833 848,191.5C 848.944,192.263 849.444,193.263 849.5,194.5C 848.388,196.631 846.888,196.631 845,194.5C 841.492,195.377 837.826,195.71 834,195.5C 832.103,193.984 829.936,193.317 827.5,193.5C 826.256,149.144 826.256,104.811 827.5,60.5C 817.833,60.5 808.167,60.5 798.5,60.5C 798.187,53.2454 798.52,46.0787 799.5,39C 825.831,38.5 852.165,38.3334 878.5,38.5C 878.5,45.8333 878.5,53.1667 878.5,60.5C 869.983,60.1739 861.65,60.5073 853.5,61.5 Z"/></g>
</svg>
