<?xml version="1.0" encoding="UTF-8"?>
<!DOCTYPE svg PUBLIC "-//W3C//DTD SVG 1.1//EN" "http://www.w3.org/Graphics/SVG/1.1/DTD/svg11.dtd">
<svg xmlns="http://www.w3.org/2000/svg" version="1.1" width="997px" height="250px" style="shape-rendering:geometricPrecision; text-rendering:geometricPrecision; image-rendering:optimizeQuality; fill-rule:evenodd; clip-rule:evenodd" xmlns:xlink="http://www.w3.org/1999/xlink">
<g><path style="opacity:1" fill="#4253f8" d="M 442.5,11.5 C 461.239,13.0722 470.906,23.2389 471.5,42C 466.006,61.7464 453.339,69.0797 433.5,64C 416.665,54.1012 412.832,40.6012 422,23.5C 427.317,16.6369 434.151,12.6369 442.5,11.5 Z"/></g>
<g><path style="opacity:1" fill="#4254fa" d="M 221.5,118.5 C 221.389,127.057 221.389,135.39 221.5,143.5C 219.846,161.465 213.846,177.798 203.5,192.5C 204.09,193.799 205.09,194.632 206.5,195C 210.052,195.878 213.386,197.044 216.5,198.5C 216.5,212.5 216.5,226.5 216.5,240.5C 211.637,240.181 206.97,240.514 202.5,241.5C 189.272,239.113 176.939,234.447 165.5,227.5C 115.173,250.03 70.6731,241.696 32,202.5C 2.21009,163.939 -2.12324,122.605 19,78.5C 44.3387,36.7475 81.5054,18.2475 130.5,23C 175.861,32.036 205.361,58.536 219,102.5C 220.798,107.689 221.631,113.022 221.5,118.5 Z M 104.5,66.5 C 143.927,64.4416 168.427,82.4416 178,120.5C 181.252,157.833 165.085,182.333 129.5,194C 94.2633,199.635 69.0966,186.468 54,154.5C 44.5144,123.933 52.0144,98.433 76.5,78C 85.1735,72.2828 94.5068,68.4495 104.5,66.5 Z"/></g>
<g><path style="opacity:0.476" fill="#4854b8" d="M 704.5,31.5 C 703.711,31.2172 703.044,30.7172 702.5,30C 688.5,29.3333 674.5,29.3333 660.5,30C 659.956,30.7172 659.289,31.2172 658.5,31.5C 658.414,30.5041 658.748,29.6708 659.5,29C 674.167,28.3333 688.833,28.3333 703.5,29C 704.252,29.6708 704.586,30.5041 704.5,31.5 Z"/></g>
<g><path style="opacity:1" fill="#4153fd" d="M 704.5,31.5 C 705.528,97.1633 705.694,162.83 705,228.5C 704.667,230.167 704.333,231.833 704,233.5C 703.329,234.252 702.496,234.586 701.5,234.5C 688.163,234.667 674.829,234.5 661.5,234C 661.026,232.271 660.026,231.105 658.5,230.5C 658.5,164.167 658.5,97.8333 658.5,31.5C 659.289,31.2172 659.956,30.7172 660.5,30C 674.5,29.3333 688.5,29.3333 702.5,30C 703.044,30.7172 703.711,31.2172 704.5,31.5 Z"/></g>
<g><path style="opacity:1" fill="#4254fb" d="M 920.5,30.5 C 934.171,30.3334 947.837,30.5001 961.5,31C 962.16,48.4359 962.827,65.9359 963.5,83.5C 971.697,84.1524 979.864,84.8191 988,85.5C 988.667,96.8333 988.667,108.167 988,119.5C 987.308,120.025 986.808,120.692 986.5,121.5C 977.752,122.056 969.085,122.889 960.5,124C 961.827,142.115 962.493,160.449 962.5,179C 962.494,197.572 962.16,216.072 961.5,234.5C 948.34,235.66 935.006,235.827 921.5,235C 920.584,234.626 919.75,234.126 919,233.5C 918.827,196.762 918.327,160.095 917.5,123.5C 910.679,122.671 903.679,122.171 896.5,122C 895.473,121.487 894.473,120.987 893.5,120.5C 893.802,109.227 893.469,97.7266 892.5,86C 893.5,85 894.5,84 895.5,83C 903.159,82.5003 910.826,82.3336 918.5,82.5C 918.5,65.5 918.5,48.5 918.5,31.5C 919.167,31.1667 919.833,30.8333 920.5,30.5 Z"/></g>
<g><path style="opacity:0.502" fill="#4959b9" d="M 964.5,82.5 C 963.668,65.3382 963.168,48.0048 963,30.5C 948.735,29.1699 934.569,29.1699 920.5,30.5C 919.833,30.8333 919.167,31.1667 918.5,31.5C 918.414,30.5041 918.748,29.6708 919.5,29C 934.408,28.1767 949.241,28.3433 964,29.5C 964.5,47.1635 964.667,64.8302 964.5,82.5 Z"/></g>
<g><path style="opacity:1" fill="#4254f9" d="M 824.5,237.5 C 816.61,237.848 808.943,238.848 801.5,240.5C 757.075,233.908 731.408,208.408 724.5,164C 723.961,129.74 738.294,103.74 767.5,86C 800.544,69.9307 831.544,73.264 860.5,96C 883.529,117.492 891.862,143.492 885.5,174C 845.835,174.5 806.168,174.667 766.5,174.5C 771.415,188.328 781.082,197.162 795.5,201C 814.076,204.53 829.743,199.363 842.5,185.5C 851.765,191.929 860.598,198.929 869,206.5C 869.635,208.635 869.301,210.635 868,212.5C 856.223,225.636 841.723,233.97 824.5,237.5 Z M 802.5,113.5 C 823.32,113.067 838.32,122.067 847.5,140.5C 820.506,141.667 793.506,141.833 766.5,141C 773.202,125.423 785.202,116.257 802.5,113.5 Z"/></g>
<g><path style="opacity:0.243" fill="#4654b7" d="M 422.5,83.5 C 436.661,82.3392 450.994,82.1725 465.5,83C 466.252,83.6708 466.586,84.5041 466.5,85.5C 465.833,85.1667 465.167,84.8333 464.5,84.5C 450.677,83.5042 436.677,83.1709 422.5,83.5 Z"/></g>
<g><path style="opacity:0.942" fill="#4150d2" d="M 638.5,89.5 C 638.5,87.8333 638.5,86.1667 638.5,84.5C 592.165,84.3333 545.832,84.5 499.5,85C 498.667,85.8333 497.833,86.6667 497,87.5C 496.5,98.8284 496.333,110.162 496.5,121.5C 495.34,109.34 495.173,97.0069 496,84.5C 496.5,84 497,83.5 497.5,83C 544.5,82.3333 591.5,82.3333 638.5,83C 641.134,85.2933 641.134,87.46 638.5,89.5 Z"/></g>
<g><path style="opacity:1" fill="#4254fa" d="M 247.5,83.5 C 261.171,83.3334 274.837,83.5001 288.5,84C 289.416,84.3742 290.25,84.8742 291,85.5C 291.168,115.669 291.668,145.669 292.5,175.5C 297.053,192.961 308.386,200.128 326.5,197C 338.457,194.71 345.29,187.543 347,175.5C 347.174,144.791 347.674,114.125 348.5,83.5C 363.155,82.3338 377.822,82.1672 392.5,83C 393.126,83.7504 393.626,84.5838 394,85.5C 394.484,117.54 394.651,149.373 394.5,181C 389.137,214.695 369.47,234.029 335.5,239C 312.991,242.577 291.657,238.577 271.5,227C 256.796,216.614 248.296,202.447 246,184.5C 245.333,151.167 245.333,117.833 246,84.5C 246.383,83.944 246.883,83.6107 247.5,83.5 Z"/></g>
<g><path style="opacity:1" fill="#4254fd" d="M 464.5,84.5 C 465.167,84.8333 465.833,85.1667 466.5,85.5C 466.667,134.834 466.5,184.168 466,233.5C 465.5,234 465,234.5 464.5,235C 450.66,235.827 436.994,235.661 423.5,234.5C 422.509,184.542 422.176,134.542 422.5,84.5C 436.5,84.5 450.5,84.5 464.5,84.5 Z"/></g>
<g><path style="opacity:1" fill="#4254fb" d="M 638.5,89.5 C 612.882,124.13 587.216,158.797 561.5,193.5C 585.493,194.333 609.493,194.833 633.5,195C 634,195.5 634.5,196 635,196.5C 635.667,208.833 635.667,221.167 635,233.5C 634.25,234.126 633.416,234.626 632.5,235C 583.833,235.667 535.167,235.667 486.5,235C 483.8,234.051 482.967,232.217 484,229.5C 510.666,194.006 537.499,158.673 564.5,123.5C 541.961,122.813 519.294,122.147 496.5,121.5C 496.333,110.162 496.5,98.8284 497,87.5C 497.833,86.6667 498.667,85.8333 499.5,85C 545.832,84.5 592.165,84.3333 638.5,84.5C 638.5,86.1667 638.5,87.8333 638.5,89.5 Z"/></g>
<g><path style="opacity:0.227" fill="#4054b8" d="M 247.5,83.5 C 261.661,82.3392 275.994,82.1725 290.5,83C 291,83.5 291.5,84 292,84.5C 292.5,114.832 292.667,145.165 292.5,175.5C 291.668,145.669 291.168,115.669 291,85.5C 290.25,84.8742 289.416,84.3742 288.5,84C 274.837,83.5001 261.171,83.3334 247.5,83.5 Z"/></g>
<g><path style="opacity:0.008" fill="#647efa" d="M 496.5,121.5 C 519.294,122.147 541.961,122.813 564.5,123.5C 542.164,123.667 519.831,123.5 497.5,123C 496.944,122.617 496.611,122.117 496.5,121.5 Z"/></g>
<g><path style="opacity:0.49" fill="#4654cf" d="M 893.5,120.5 C 894.473,120.987 895.473,121.487 896.5,122C 903.679,122.171 910.679,122.671 917.5,123.5C 909.826,123.666 902.159,123.5 894.5,123C 893.748,122.329 893.414,121.496 893.5,120.5 Z"/></g>
<g><path style="opacity:0.962" fill="#464ed6" d="M 422.5,83.5 C 436.677,83.1709 450.677,83.5042 464.5,84.5C 450.5,84.5 436.5,84.5 422.5,84.5C 422.176,134.542 422.509,184.542 423.5,234.5C 422.25,234.423 421.417,233.756 421,232.5C 420.333,183.167 420.333,133.833 421,84.5C 421.383,83.944 421.883,83.6107 422.5,83.5 Z"/></g>
<g><path style="opacity:0.451" fill="#3c4db0" d="M 221.5,118.5 C 222.833,126.833 222.833,135.167 221.5,143.5C 221.389,135.39 221.389,127.057 221.5,118.5 Z"/></g>
<g><path style="opacity:1" fill="#5156d9" d="M 920.5,30.5 C 934.569,29.1699 948.735,29.1699 963,30.5C 963.168,48.0048 963.668,65.3382 964.5,82.5C 972.174,82.3336 979.841,82.5003 987.5,83C 988,83.5 988.5,84 989,84.5C 989.822,97.4088 989.655,110.242 988.5,123C 980.507,123.5 972.507,123.666 964.5,123.5C 964.667,160.168 964.5,196.835 964,233.5C 963.329,234.252 962.496,234.586 961.5,234.5C 962.16,216.072 962.494,197.572 962.5,179C 962.493,160.449 961.827,142.115 960.5,124C 969.085,122.889 977.752,122.056 986.5,121.5C 986.808,120.692 987.308,120.025 988,119.5C 988.667,108.167 988.667,96.8333 988,85.5C 979.864,84.8191 971.697,84.1524 963.5,83.5C 962.827,65.9359 962.16,48.4359 961.5,31C 947.837,30.5001 934.171,30.3334 920.5,30.5 Z"/></g>
<g><path style="opacity:0.951" fill="#404dd0" d="M 216.5,198.5 C 217.222,198.918 217.722,199.584 218,200.5C 218.667,213.5 218.667,226.5 218,239.5C 213.142,241.414 207.975,242.081 202.5,241.5C 206.97,240.514 211.637,240.181 216.5,240.5C 216.5,226.5 216.5,212.5 216.5,198.5 Z"/></g>
<g><path style="opacity:0.008" fill="#7278f6" d="M 658.5,230.5 C 660.026,231.105 661.026,232.271 661.5,234C 674.829,234.5 688.163,234.667 701.5,234.5C 688.006,235.661 674.34,235.827 660.5,235C 658.963,233.89 658.297,232.39 658.5,230.5 Z"/></g>
<g><path style="opacity:0.651" fill="#5052ca" d="M 824.5,237.5 C 817.124,239.695 809.457,240.695 801.5,240.5C 808.943,238.848 816.61,237.848 824.5,237.5 Z"/></g>
</svg>
