<?xml version="1.0" encoding="UTF-8"?>
<!DOCTYPE svg PUBLIC "-//W3C//DTD SVG 1.1//EN" "http://www.w3.org/Graphics/SVG/1.1/DTD/svg11.dtd">
<svg xmlns="http://www.w3.org/2000/svg" version="1.1" width="222px" height="227px" style="shape-rendering:geometricPrecision; text-rendering:geometricPrecision; image-rendering:optimizeQuality; fill-rule:evenodd; clip-rule:evenodd" xmlns:xlink="http://www.w3.org/1999/xlink">
<g><path style="opacity:0.723" fill="#4e4e8d" d="M 191.5,15.5 C 184.992,13.7084 178.325,12.2084 171.5,11C 128.496,10.1667 85.4961,10.3334 42.5,11.5C 39.1101,13.1966 35.7767,13.5299 32.5,12.5C 37.6767,10.7064 43.01,9.53974 48.5,9C 89.8333,8.33333 131.167,8.33333 172.5,9C 179.511,9.50265 185.844,11.6693 191.5,15.5 Z"/></g>
<g><path style="opacity:1" fill="#4950b0" d="M 191.5,15.5 C 203.521,21.1938 211.188,30.5272 214.5,43.5C 213.833,43.5 213.5,43.8333 213.5,44.5C 212.662,44.8417 212.328,45.5084 212.5,46.5C 210.551,47.7247 209.218,47.058 208.5,44.5C 207.5,44.8333 206.833,45.5 206.5,46.5C 196.188,47.4986 185.855,47.8319 175.5,47.5C 175.827,42.456 175.494,37.456 174.5,32.5C 173.914,32.2907 173.414,31.9574 173,31.5C 158.564,31.8048 143.064,31.9714 126.5,32C 129.274,34.4189 132.274,36.5856 135.5,38.5C 133.293,39.6348 130.96,40.3015 128.5,40.5C 128.67,39.1779 128.337,38.0113 127.5,37C 121.466,37.4389 115.466,37.2722 109.5,36.5C 105.18,37.1115 100.847,37.7782 96.5,38.5C 98.1667,39.6667 99.8333,40.8333 101.5,42C 96.8333,42.3333 92.1667,42.6667 87.5,43C 84.9999,43.3747 82.6666,44.2081 80.5,45.5C 78.7826,44.3315 78.1159,42.6648 78.5,40.5C 84.235,39.8221 89.9017,38.8221 95.5,37.5C 95.5,36.1667 95.5,34.8333 95.5,33.5C 103.427,33.175 110.593,33.175 117,33.5C 118.399,32.7734 119.899,32.2734 121.5,32C 111.129,31.5521 100.962,31.3855 91,31.5C 86.3044,34.0901 81.6378,34.0901 77,31.5C 67.6667,31.5 58.3333,31.5 49,31.5C 47.5543,36.6452 47.0543,41.9786 47.5,47.5C 42.1667,47.5 36.8333,47.5 31.5,47.5C 31.5,44.8333 31.5,42.1667 31.5,39.5C 42.1667,38.8333 42.1667,38.1667 31.5,37.5C 31.5,36.1667 31.5,34.8333 31.5,33.5C 34.2469,33.8134 36.9135,33.48 39.5,32.5C 36.1889,31.882 33.0222,30.882 30,29.5C 28.5284,31.8844 26.3618,32.8844 23.5,32.5C 21.192,32.6353 19.192,31.9686 17.5,30.5C 19.7662,29.6858 22.0995,29.1858 24.5,29C 25.3366,27.9887 25.67,26.8221 25.5,25.5C 22.5,25.8333 21.1667,24.5 21.5,21.5C 24.8333,18.8333 28.1667,16.1667 31.5,13.5C 31.5,12.8333 31.8333,12.5 32.5,12.5C 35.7767,13.5299 39.1101,13.1966 42.5,11.5C 85.4961,10.3334 128.496,10.1667 171.5,11C 178.325,12.2084 184.992,13.7084 191.5,15.5 Z"/></g>
<g><path style="opacity:1" fill="#474eab" d="M 21.5,21.5 C 21.1667,24.5 22.5,25.8333 25.5,25.5C 25.67,26.8221 25.3366,27.9887 24.5,29C 22.0995,29.1858 19.7662,29.6858 17.5,30.5C 19.192,31.9686 21.192,32.6353 23.5,32.5C 26.3618,32.8844 28.5284,31.8844 30,29.5C 33.0222,30.882 36.1889,31.882 39.5,32.5C 36.9135,33.48 34.2469,33.8134 31.5,33.5C 31.5,34.8333 31.5,36.1667 31.5,37.5C 42.1667,38.1667 42.1667,38.8333 31.5,39.5C 31.5,42.1667 31.5,44.8333 31.5,47.5C 36.8333,47.5 42.1667,47.5 47.5,47.5C 47.0543,41.9786 47.5543,36.6452 49,31.5C 58.3333,31.5 67.6667,31.5 77,31.5C 81.6378,34.0901 86.3044,34.0901 91,31.5C 100.962,31.3855 111.129,31.5521 121.5,32C 119.899,32.2734 118.399,32.7734 117,33.5C 110.593,33.175 103.427,33.175 95.5,33.5C 95.5,34.8333 95.5,36.1667 95.5,37.5C 89.9017,38.8221 84.235,39.8221 78.5,40.5C 78.1159,42.6648 78.7826,44.3315 80.5,45.5C 82.6666,44.2081 84.9999,43.3747 87.5,43C 92.1667,42.6667 96.8333,42.3333 101.5,42C 99.8333,40.8333 98.1667,39.6667 96.5,38.5C 100.847,37.7782 105.18,37.1115 109.5,36.5C 115.466,37.2722 121.466,37.4389 127.5,37C 128.337,38.0113 128.67,39.1779 128.5,40.5C 130.96,40.3015 133.293,39.6348 135.5,38.5C 132.274,36.5856 129.274,34.4189 126.5,32C 143.064,31.9714 158.564,31.8048 173,31.5C 173.414,31.9574 173.914,32.2907 174.5,32.5C 175.494,37.456 175.827,42.456 175.5,47.5C 185.855,47.8319 196.188,47.4986 206.5,46.5C 206.833,45.5 207.5,44.8333 208.5,44.5C 209.218,47.058 210.551,47.7247 212.5,46.5C 213.505,60.1524 213.671,73.8191 213,87.5C 212.024,79.8616 211.357,72.1949 211,64.5C 209.813,80.1445 209.313,95.8111 209.5,111.5C 203.63,110.942 198.13,110.608 193,110.5C 192.654,113.576 191.988,116.576 191,119.5C 189.554,114.355 189.054,109.021 189.5,103.5C 188.448,103.649 187.448,103.483 186.5,103C 185.023,101.188 183.69,99.3545 182.5,97.5C 182.058,93.3981 180.558,89.7314 178,86.5C 177.503,84.1902 177.337,81.8568 177.5,79.5C 176.167,79.5 174.833,79.5 173.5,79.5C 173.66,77.8008 173.494,76.1341 173,74.5C 169.655,72.8197 167.488,70.153 166.5,66.5C 164.338,64.9802 162.005,63.9802 159.5,63.5C 159.714,61.8561 159.38,60.3561 158.5,59C 153.067,57.5637 148.734,54.5637 145.5,50C 143.5,49.6667 141.5,49.3333 139.5,49C 136.629,47.0655 133.629,45.3988 130.5,44C 115.459,43.1037 100.459,43.437 85.5,45C 80.2524,48.0136 74.9191,50.8469 69.5,53.5C 67.2586,52.9292 65.5919,51.5958 64.5,49.5C 63.5344,51.396 63.2011,53.396 63.5,55.5C 56.8744,56.6368 53.7077,60.6368 54,67.5C 51.6922,68.8771 50.1922,70.8771 49.5,73.5C 48.675,74.3857 47.675,74.719 46.5,74.5C 46.5645,78.699 45.2311,82.3657 42.5,85.5C 40.9481,87.0354 39.6148,88.8687 38.5,91C 37.1667,91 35.8333,91 34.5,91C 33.7454,93.1748 32.912,95.3415 32,97.5C 31.6667,97.1667 31.3333,96.8333 31,96.5C 30.6667,101.5 30.3333,106.5 30,111.5C 26,111.5 22,111.5 18,111.5C 17.586,111.043 17.086,110.709 16.5,110.5C 15.59,100.453 14.7566,90.4535 14,80.5C 17.0483,79.2172 17.215,77.5505 14.5,75.5C 14.1667,76 13.8333,76.5 13.5,77C 12.1404,84.2596 11.4737,91.5929 11.5,99C 11.5072,125.666 11.8406,152.333 12.5,179C 12.7017,183.174 11.535,184.008 9,181.5C 8.31397,139.981 7.81397,98.481 7.5,57C 8.15477,49.0546 9.82143,41.3879 12.5,34C 14.886,32.1476 16.0526,29.6476 16,26.5C 17.3561,25.6198 18.8561,25.2865 20.5,25.5C 20.2322,23.901 20.5655,22.5676 21.5,21.5 Z"/></g>
<g><path style="opacity:1" fill="#494f96" d="M 159.5,63.5 C 132.743,41.8676 103.743,38.7009 72.5,54C 64.0858,59.0788 56.9192,65.5788 51,73.5C 47.8057,79.229 44.639,84.8956 41.5,90.5C 41.6287,88.7839 41.962,87.1172 42.5,85.5C 45.2311,82.3657 46.5645,78.699 46.5,74.5C 47.675,74.719 48.675,74.3857 49.5,73.5C 50.1922,70.8771 51.6922,68.8771 54,67.5C 53.7077,60.6368 56.8744,56.6368 63.5,55.5C 63.2011,53.396 63.5344,51.396 64.5,49.5C 65.5919,51.5958 67.2586,52.9292 69.5,53.5C 74.9191,50.8469 80.2524,48.0136 85.5,45C 100.459,43.437 115.459,43.1037 130.5,44C 133.629,45.3988 136.629,47.0655 139.5,49C 141.5,49.3333 143.5,49.6667 145.5,50C 148.734,54.5637 153.067,57.5637 158.5,59C 159.38,60.3561 159.714,61.8561 159.5,63.5 Z"/></g>
<g><path style="opacity:0.164" fill="#6c6690" d="M 3.5,67.5 C 4.1992,103.008 4.86586,138.675 5.5,174.5C 5.49319,176.369 5.15986,178.036 4.5,179.5C 3.55142,142.18 3.21809,104.847 3.5,67.5 Z"/></g>
<g><path style="opacity:0.949" fill="#474684" d="M 3.5,63.5 C 4.4959,63.4142 5.32924,63.7476 6,64.5C 6.58203,103.835 7.2487,143.168 8,182.5C 8.80523,187.083 10.3052,191.416 12.5,195.5C 14.7379,196.853 16.0713,198.853 16.5,201.5C 17.6283,202.262 18.7949,202.929 20,203.5C 20.1328,206.404 21.2995,208.738 23.5,210.5C 15.2532,205.743 9.75322,198.743 7,189.5C 6.2242,186.111 5.39087,182.778 4.5,179.5C 5.15986,178.036 5.49319,176.369 5.5,174.5C 4.86586,138.675 4.1992,103.008 3.5,67.5C 3.5,66.1667 3.5,64.8333 3.5,63.5 Z"/></g>
<g><path style="opacity:1" fill="#43499d" d="M 31.5,13.5 C 28.1667,16.1667 24.8333,18.8333 21.5,21.5C 20.5655,22.5676 20.2322,23.901 20.5,25.5C 18.8561,25.2865 17.3561,25.6198 16,26.5C 16.0526,29.6476 14.886,32.1476 12.5,34C 9.82143,41.3879 8.15477,49.0546 7.5,57C 7.81397,98.481 8.31397,139.981 9,181.5C 11.535,184.008 12.7017,183.174 12.5,179C 11.8406,152.333 11.5072,125.666 11.5,99C 11.4737,91.5929 12.1404,84.2596 13.5,77C 13.8333,76.5 14.1667,76 14.5,75.5C 17.215,77.5505 17.0483,79.2172 14,80.5C 14.7566,90.4535 15.59,100.453 16.5,110.5C 17.086,110.709 17.586,111.043 18,111.5C 22,111.5 26,111.5 30,111.5C 30.3333,106.5 30.6667,101.5 31,96.5C 31.3333,96.8333 31.6667,97.1667 32,97.5C 32.912,95.3415 33.7454,93.1748 34.5,91C 35.8333,91 37.1667,91 38.5,91C 39.6148,88.8687 40.9481,87.0354 42.5,85.5C 41.962,87.1172 41.6287,88.7839 41.5,90.5C 40.1851,91.4756 38.8518,92.4756 37.5,93.5C 35.3802,92.1285 34.3802,92.7952 34.5,95.5C 35.5,95.5 36.5,95.5 37.5,95.5C 36.1975,108.2 36.3642,120.866 38,133.5C 40.4505,138.283 42.4505,143.283 44,148.5C 45.8533,150.28 47.6866,151.947 49.5,153.5C 50.9063,153.973 51.573,154.973 51.5,156.5C 52.0128,158.854 53.1795,160.854 55,162.5C 75.3552,182.756 99.8552,190.423 128.5,185.5C 128.67,186.822 128.337,187.989 127.5,189C 119.42,189.139 111.253,188.972 103,188.5C 101.396,189.068 100.73,190.068 101,191.5C 110.551,190.604 120.718,190.604 131.5,191.5C 131.007,189.194 130.674,186.861 130.5,184.5C 134.47,182.79 138.636,181.123 143,179.5C 145.731,180.238 147.898,181.738 149.5,184C 159.995,184.059 170.329,183.559 180.5,182.5C 181.525,182.103 181.692,181.437 181,180.5C 177.581,177.588 174.748,174.254 172.5,170.5C 172.579,169.07 172.246,167.736 171.5,166.5C 169.404,165.408 168.071,163.741 167.5,161.5C 171.09,155.844 174.09,149.844 176.5,143.5C 178.472,142.695 179.972,141.361 181,139.5C 182.409,125.551 182.909,111.551 182.5,97.5C 183.69,99.3545 185.023,101.188 186.5,103C 187.448,103.483 188.448,103.649 189.5,103.5C 189.054,109.021 189.554,114.355 191,119.5C 191.988,116.576 192.654,113.576 193,110.5C 198.13,110.608 203.63,110.942 209.5,111.5C 209.313,95.8111 209.813,80.1445 211,64.5C 211.357,72.1949 212.024,79.8616 213,87.5C 213.671,73.8191 213.505,60.1524 212.5,46.5C 212.328,45.5084 212.662,44.8417 213.5,44.5C 214.641,89.1484 214.807,133.815 214,178.5C 211.936,183.207 209.769,187.874 207.5,192.5C 206.534,194.396 206.201,196.396 206.5,198.5C 204.738,198.357 203.071,198.691 201.5,199.5C 200.515,201.772 199.681,204.105 199,206.5C 197.011,208.839 194.511,210.173 191.5,210.5C 191.5,211.5 191.5,212.5 191.5,213.5C 183.708,215.609 175.708,217.109 167.5,218C 129.167,218.667 90.8333,218.667 52.5,218C 46.3749,217.596 40.3749,216.596 34.5,215C 32.4788,214.599 31.1455,213.432 30.5,211.5C 28.2573,210.526 25.924,210.192 23.5,210.5C 21.2995,208.738 20.1328,206.404 20,203.5C 18.7949,202.929 17.6283,202.262 16.5,201.5C 16.0713,198.853 14.7379,196.853 12.5,195.5C 10.3052,191.416 8.80523,187.083 8,182.5C 7.2487,143.168 6.58203,103.835 6,64.5C 5.32924,63.7476 4.4959,63.4142 3.5,63.5C 2.87509,47.8128 7.54175,33.9795 17.5,22C 21.7231,18.3906 26.3898,15.5572 31.5,13.5 Z"/></g>
<g><path style="opacity:1" fill="#484d8f" d="M 159.5,63.5 C 162.005,63.9802 164.338,64.9802 166.5,66.5C 167.488,70.153 169.655,72.8197 173,74.5C 173.494,76.1341 173.66,77.8008 173.5,79.5C 174.833,79.5 176.167,79.5 177.5,79.5C 177.337,81.8568 177.503,84.1902 178,86.5C 180.558,89.7314 182.058,93.3981 182.5,97.5C 182.909,111.551 182.409,125.551 181,139.5C 179.972,141.361 178.472,142.695 176.5,143.5C 174.09,149.844 171.09,155.844 167.5,161.5C 168.071,163.741 169.404,165.408 171.5,166.5C 172.246,167.736 172.579,169.07 172.5,170.5C 169.049,167.617 166.049,164.284 163.5,160.5C 181.479,138.674 185.645,114.341 176,87.5C 172.242,78.3221 166.742,70.3221 159.5,63.5 Z"/></g>
<g><path style="opacity:1" fill="#4c508c" d="M 41.5,90.5 C 35.3361,112.717 38.0028,133.717 49.5,153.5C 47.6866,151.947 45.8533,150.28 44,148.5C 42.4505,143.283 40.4505,138.283 38,133.5C 36.3642,120.866 36.1975,108.2 37.5,95.5C 36.5,95.5 35.5,95.5 34.5,95.5C 34.3802,92.7952 35.3802,92.1285 37.5,93.5C 38.8518,92.4756 40.1851,91.4756 41.5,90.5 Z"/></g>
<g><path style="opacity:1" fill="#fafbfc" d="M 159.5,63.5 C 166.742,70.3221 172.242,78.3221 176,87.5C 185.645,114.341 181.479,138.674 163.5,160.5C 166.049,164.284 169.049,167.617 172.5,170.5C 174.748,174.254 177.581,177.588 181,180.5C 181.692,181.437 181.525,182.103 180.5,182.5C 170.161,182.666 159.828,182.5 149.5,182C 147.987,179.154 145.821,176.987 143,175.5C 107.84,191.368 77.34,185.035 51.5,156.5C 51.573,154.973 50.9063,153.973 49.5,153.5C 38.0028,133.717 35.3361,112.717 41.5,90.5C 44.639,84.8956 47.8057,79.229 51,73.5C 56.9192,65.5788 64.0858,59.0788 72.5,54C 103.743,38.7009 132.743,41.8676 159.5,63.5 Z"/></g>
<g><path style="opacity:1" fill="#494c8b" d="M 111.5,140.5 C 115.831,143.998 119.664,147.998 123,152.5C 123.591,153.483 123.257,154.15 122,154.5C 116.058,157.077 109.892,157.91 103.5,157C 99.2381,155.468 94.9047,154.135 90.5,153C 88.9069,152.051 87.5736,150.885 86.5,149.5C 89.8408,149.803 92.8408,150.97 95.5,153C 103.159,153.5 110.826,153.666 118.5,153.5C 115.728,149.479 113.394,145.145 111.5,140.5 Z"/></g>
<g><path style="opacity:1" fill="#444ca3" d="M 137.5,85.5 C 138.655,89.7947 140.322,93.128 142.5,95.5C 143.5,95.5 144.5,95.5 145.5,95.5C 146.935,101.306 148.268,107.139 149.5,113C 148.868,120.657 147.535,128.157 145.5,135.5C 144.127,135.657 142.793,135.49 141.5,135C 139.124,131.081 136.624,127.248 134,123.5C 132.829,122.107 131.329,121.273 129.5,121C 119.5,120.333 109.5,120.333 99.5,121C 98.944,121.383 98.6107,121.883 98.5,122.5C 97.9569,122.56 97.6236,122.893 97.5,123.5C 102.422,129.044 107.089,134.711 111.5,140.5C 113.394,145.145 115.728,149.479 118.5,153.5C 110.826,153.666 103.159,153.5 95.5,153C 92.8408,150.97 89.8408,149.803 86.5,149.5C 83.9108,148.581 81.9108,146.914 80.5,144.5C 77.42,139.342 74.5867,134.009 72,128.5C 71.3715,121.972 70.5382,115.472 69.5,109C 71.1321,103.771 72.9654,98.6044 75,93.5C 76.3712,91.9586 77.8712,90.6253 79.5,89.5C 76.5385,96.637 76.2051,103.804 78.5,111C 84.1356,110.558 89.6356,110.392 95,110.5C 97.8783,111.689 100.712,113.022 103.5,114.5C 104.711,115.274 104.711,116.107 103.5,117C 100.3,117.101 97.3004,117.768 94.5,119C 95.1079,119.87 95.9412,120.37 97,120.5C 108.466,119.365 119.966,119.198 131.5,120C 134.314,121.815 136.814,123.981 139,126.5C 139.328,123.793 138.995,121.126 138,118.5C 135.122,117.311 132.288,115.978 129.5,114.5C 128.5,114.833 127.833,115.5 127.5,116.5C 121.193,117.664 114.859,117.831 108.5,117C 107.328,116.581 106.328,115.915 105.5,115C 107.585,113.959 109.252,112.459 110.5,110.5C 111.287,111.242 111.953,112.075 112.5,113C 117.167,113.667 121.833,113.667 126.5,113C 126.478,107.642 126.644,102.142 127,96.5C 128.905,95.842 130.405,94.6753 131.5,93C 133.473,92.5045 135.473,92.3379 137.5,92.5C 137.5,90.1667 137.5,87.8333 137.5,85.5 Z"/></g>
<g><path style="opacity:1" fill="#484c85" d="M 98.5,122.5 C 98.6107,121.883 98.944,121.383 99.5,121C 109.5,120.333 119.5,120.333 129.5,121C 131.329,121.273 132.829,122.107 134,123.5C 136.624,127.248 139.124,131.081 141.5,135C 142.793,135.49 144.127,135.657 145.5,135.5C 147.535,128.157 148.868,120.657 149.5,113C 148.268,107.139 146.935,101.306 145.5,95.5C 144.5,95.5 143.5,95.5 142.5,95.5C 140.322,93.128 138.655,89.7947 137.5,85.5C 122.856,72.0953 106.523,69.9286 88.5,79C 86.6085,82.6685 83.7752,85.1685 80,86.5C 79.5172,87.448 79.3505,88.448 79.5,89.5C 77.8712,90.6253 76.3712,91.9586 75,93.5C 72.9654,98.6044 71.1321,103.771 69.5,109C 70.5382,115.472 71.3715,121.972 72,128.5C 74.5867,134.009 77.42,139.342 80.5,144.5C 73.4785,138.128 69.3118,130.128 68,120.5C 66.6278,101.199 74.1278,86.366 90.5,76C 120.305,66.4871 140.472,76.3204 151,105.5C 153.117,117.413 150.951,128.413 144.5,138.5C 143.726,139.711 142.893,139.711 142,138.5C 137.934,133.226 133.768,128.06 129.5,123C 119.172,122.5 108.839,122.334 98.5,122.5 Z"/></g>
<g><path style="opacity:1" fill="#454ca9" d="M 137.5,85.5 C 137.5,87.8333 137.5,90.1667 137.5,92.5C 135.473,92.3379 133.473,92.5045 131.5,93C 130.405,94.6753 128.905,95.842 127,96.5C 126.644,102.142 126.478,107.642 126.5,113C 121.833,113.667 117.167,113.667 112.5,113C 111.953,112.075 111.287,111.242 110.5,110.5C 109.252,112.459 107.585,113.959 105.5,115C 106.328,115.915 107.328,116.581 108.5,117C 114.859,117.831 121.193,117.664 127.5,116.5C 127.833,115.5 128.5,114.833 129.5,114.5C 132.288,115.978 135.122,117.311 138,118.5C 138.995,121.126 139.328,123.793 139,126.5C 136.814,123.981 134.314,121.815 131.5,120C 119.966,119.198 108.466,119.365 97,120.5C 95.9412,120.37 95.1079,119.87 94.5,119C 97.3004,117.768 100.3,117.101 103.5,117C 104.711,116.107 104.711,115.274 103.5,114.5C 100.712,113.022 97.8783,111.689 95,110.5C 89.6356,110.392 84.1356,110.558 78.5,111C 76.2051,103.804 76.5385,96.637 79.5,89.5C 79.3505,88.448 79.5172,87.448 80,86.5C 83.7752,85.1685 86.6085,82.6685 88.5,79C 106.523,69.9286 122.856,72.0953 137.5,85.5 Z"/></g>
<g><path style="opacity:1" fill="#42488b" d="M 51.5,156.5 C 77.34,185.035 107.84,191.368 143,175.5C 145.821,176.987 147.987,179.154 149.5,182C 159.828,182.5 170.161,182.666 180.5,182.5C 170.329,183.559 159.995,184.059 149.5,184C 147.898,181.738 145.731,180.238 143,179.5C 138.636,181.123 134.47,182.79 130.5,184.5C 130.674,186.861 131.007,189.194 131.5,191.5C 120.718,190.604 110.551,190.604 101,191.5C 100.73,190.068 101.396,189.068 103,188.5C 111.253,188.972 119.42,189.139 127.5,189C 128.337,187.989 128.67,186.822 128.5,185.5C 99.8552,190.423 75.3552,182.756 55,162.5C 53.1795,160.854 52.0128,158.854 51.5,156.5 Z"/></g>
<g><path style="opacity:1" fill="#4e4b83" d="M 214.5,43.5 C 215.055,49.1535 215.555,54.8202 216,60.5C 216.167,79 216.333,97.5 216.5,116C 216.613,137.525 216.113,159.025 215,180.5C 212.696,195.609 204.862,206.609 191.5,213.5C 191.5,212.5 191.5,211.5 191.5,210.5C 194.511,210.173 197.011,208.839 199,206.5C 199.681,204.105 200.515,201.772 201.5,199.5C 203.071,198.691 204.738,198.357 206.5,198.5C 206.201,196.396 206.534,194.396 207.5,192.5C 209.769,187.874 211.936,183.207 214,178.5C 214.807,133.815 214.641,89.1484 213.5,44.5C 213.5,43.8333 213.833,43.5 214.5,43.5 Z"/></g>
<g><path style="opacity:0.711" fill="#413f71" d="M 23.5,210.5 C 25.924,210.192 28.2573,210.526 30.5,211.5C 31.1455,213.432 32.4788,214.599 34.5,215C 40.3749,216.596 46.3749,217.596 52.5,218C 90.8333,218.667 129.167,218.667 167.5,218C 175.708,217.109 183.708,215.609 191.5,213.5C 189.727,214.892 187.727,216.059 185.5,217C 179.608,218.645 173.608,219.645 167.5,220C 128.833,220.667 90.1667,220.667 51.5,220C 44.677,219.435 38.0103,218.102 31.5,216C 28.3793,214.694 25.7126,212.86 23.5,210.5 Z"/></g>
</svg>
