<?xml version="1.0" encoding="UTF-8"?>
<!DOCTYPE svg PUBLIC "-//W3C//DTD SVG 1.1//EN" "http://www.w3.org/Graphics/SVG/1.1/DTD/svg11.dtd">
<svg xmlns="http://www.w3.org/2000/svg" version="1.1" width="151px" height="131px" style="shape-rendering:geometricPrecision; text-rendering:geometricPrecision; image-rendering:optimizeQuality; fill-rule:evenodd; clip-rule:evenodd" xmlns:xlink="http://www.w3.org/1999/xlink">
<g><path style="opacity:0.99" fill="#797a7b" d="M 95.5,1.5 C 95.5,2.16667 95.5,2.83333 95.5,3.5C 95.5,3.83333 95.5,4.16667 95.5,4.5C 95.5,4.83333 95.5,5.16667 95.5,5.5C 97.1751,7.45598 96.8418,8.78932 94.5,9.5C 93.1932,8.84661 91.8599,8.17994 90.5,7.5C 89.5027,14.8032 89.1694,22.1365 89.5,29.5C 88.609,30.1098 87.609,30.4431 86.5,30.5C 87.1335,22.0968 86.4668,14.0968 84.5,6.5C 82.0592,5.29101 80.0592,3.62435 78.5,1.5C 84.1802,0.219986 89.8469,0.219986 95.5,1.5 Z"/></g>
<g><path style="opacity:0.943" fill="#858585" d="M 78.5,1.5 C 80.0592,3.62435 82.0592,5.29101 84.5,6.5C 84.5,6.83333 84.5,7.16667 84.5,7.5C 75.9025,12.0989 68.9025,18.4323 63.5,26.5C 62.4489,25.7777 61.7822,24.7777 61.5,23.5C 65.5989,16.2331 71.2655,10.3998 78.5,6C 77.552,5.51722 76.552,5.35055 75.5,5.5C 74.1266,5.65668 72.7932,5.49001 71.5,5C 70.4019,4.23029 70.4019,3.39695 71.5,2.5C 73.7638,1.78138 76.0971,1.44805 78.5,1.5 Z"/></g>
<g><path style="opacity:0.994" fill="#8d8d8d" d="M 71.5,2.5 C 70.4019,3.39695 70.4019,4.23029 71.5,5C 72.7932,5.49001 74.1266,5.65668 75.5,5.5C 68.4035,7.3785 61.7368,10.3785 55.5,14.5C 55.0533,11.4761 54.22,11.1428 53,13.5C 52.6174,12.944 52.1174,12.6107 51.5,12.5C 57.3015,7.59921 63.9682,4.26588 71.5,2.5 Z"/></g>
<g><path style="opacity:0.055" fill="#e8d5d2" d="M 95.5,-0.5 C 96.1667,-0.5 96.8333,-0.5 97.5,-0.5C 97.4614,0.75618 97.9614,1.75618 99,2.5C 99.9772,1.22641 100.811,1.22641 101.5,2.5C 100.833,2.5 100.5,2.83333 100.5,3.5C 99.8333,3.5 99.5,3.83333 99.5,4.5C 98.3501,3.14976 97.6834,3.31643 97.5,5C 98.2335,6.76589 98.5668,8.59922 98.5,10.5C 96.9988,11.4427 95.6654,11.1094 94.5,9.5C 96.8418,8.78932 97.1751,7.45598 95.5,5.5C 96.8333,5.16667 96.8333,4.83333 95.5,4.5C 95.5,4.16667 95.5,3.83333 95.5,3.5C 96.8333,2.83333 96.8333,2.16667 95.5,1.5C 95.5,0.833333 95.5,0.166667 95.5,-0.5 Z"/></g>
<g><path style="opacity:0.984" fill="#858587" d="M 101.5,2.5 C 111.547,4.24754 120.214,8.58088 127.5,15.5C 127.027,16.9063 126.027,17.573 124.5,17.5C 121.167,15.5 117.833,13.5 114.5,11.5C 114.158,10.6618 113.492,10.3284 112.5,10.5C 109.118,8.87237 105.618,7.53903 102,6.5C 101.536,7.09442 101.369,7.76109 101.5,8.5C 99.8958,7.71304 99.2291,6.3797 99.5,4.5C 100.167,4.5 100.5,4.16667 100.5,3.5C 100.5,2.83333 100.833,2.5 101.5,2.5 Z"/></g>
<g><path style="opacity:0.89" fill="#dd9fa2" d="M 101.5,8.5 C 102.912,10.6036 103.912,12.9369 104.5,15.5C 102.182,13.8148 101.182,11.4815 101.5,8.5 Z"/></g>
<g><path style="opacity:0.635" fill="#e9c6cb" d="M 112.5,10.5 C 113.492,10.3284 114.158,10.6618 114.5,11.5C 114.632,14.051 113.965,16.7177 112.5,19.5C 112.543,20.4164 112.876,21.0831 113.5,21.5C 113.44,22.0431 113.107,22.3764 112.5,22.5C 112.167,21.5 111.833,20.5 111.5,19.5C 112.299,17.296 112.299,15.296 111.5,13.5C 112.11,12.609 112.443,11.609 112.5,10.5 Z"/></g>
<g><path style="opacity:0.024" fill="#fed6d8" d="M 98.5,10.5 C 99.7682,12.9052 100.435,15.5718 100.5,18.5C 98.9605,16.1617 98.2938,13.4951 98.5,10.5 Z"/></g>
<g><path style="opacity:0.6" fill="#e0bcc2" d="M 111.5,13.5 C 111.573,15.0269 110.906,16.0269 109.5,16.5C 109.427,14.9731 110.094,13.9731 111.5,13.5 Z"/></g>
<g><path style="opacity:1" fill="#ac3a49" d="M 99.5,4.5 C 99.2291,6.3797 99.8958,7.71304 101.5,8.5C 101.182,11.4815 102.182,13.8148 104.5,15.5C 104.5,16.1667 104.5,16.8333 104.5,17.5C 103.883,17.3893 103.383,17.056 103,16.5C 102.802,18.3817 102.302,20.0484 101.5,21.5C 101.737,20.209 101.404,19.209 100.5,18.5C 100.435,15.5718 99.7682,12.9052 98.5,10.5C 98.5668,8.59922 98.2335,6.76589 97.5,5C 97.6834,3.31643 98.3501,3.14976 99.5,4.5 Z"/></g>
<g><path style="opacity:0.094" fill="#facfc8" d="M 104.5,15.5 C 105.906,15.9731 106.573,16.9731 106.5,18.5C 105.833,18.1667 105.167,17.8333 104.5,17.5C 104.5,16.8333 104.5,16.1667 104.5,15.5 Z"/></g>
<g><path style="opacity:0.059" fill="#e7d8d8" d="M 130.5,17.5 C 131.386,16.2241 132.386,16.2241 133.5,17.5C 133.043,18.2975 132.376,18.6309 131.5,18.5C 131.5,17.8333 131.167,17.5 130.5,17.5 Z"/></g>
<g><path style="opacity:0.494" fill="#f9cccf" d="M 127.5,15.5 C 128.5,15.8333 129.167,16.5 129.5,17.5C 125.761,19.1016 121.761,20.1016 117.5,20.5C 119.779,19.3485 122.112,18.3485 124.5,17.5C 126.027,17.573 127.027,16.9063 127.5,15.5 Z"/></g>
<g><path style="opacity:0.012" fill="#f4e6ea" d="M 131.5,18.5 C 131.833,19.1667 132.167,19.8333 132.5,20.5C 130.821,20.2852 129.821,20.9519 129.5,22.5C 128.833,21.8333 128.167,21.1667 127.5,20.5C 128.671,19.6554 130.005,18.9887 131.5,18.5 Z"/></g>
<g><path style="opacity:0.035" fill="#f5c8ca" d="M 100.5,18.5 C 101.404,19.209 101.737,20.209 101.5,21.5C 98.5338,21.3502 95.5338,21.3502 92.5,21.5C 91.7109,21.2172 91.0442,20.7172 90.5,20C 93.1445,18.3746 95.8111,18.5413 98.5,20.5C 99.7133,20.2528 100.38,19.5862 100.5,18.5 Z"/></g>
<g><path style="opacity:0.014" fill="#fde6e7" d="M 127.5,20.5 C 126.713,22.1042 125.38,22.7709 123.5,22.5C 124.514,21.3263 125.847,20.6596 127.5,20.5 Z"/></g>
<g><path style="opacity:0.958" fill="#878787" d="M 55.5,14.5 C 49.5212,18.4788 44.5212,23.4788 40.5,29.5C 45.8023,30.6628 51.1357,30.8295 56.5,30C 57.0442,29.2828 57.7109,28.7828 58.5,28.5C 58.4431,29.609 58.1098,30.609 57.5,31.5C 51.1667,31.5 44.8333,31.5 38.5,31.5C 38.7148,29.8212 38.0481,28.8212 36.5,28.5C 40.0958,21.9025 45.0958,16.5692 51.5,12.5C 52.1174,12.6107 52.6174,12.944 53,13.5C 54.22,11.1428 55.0533,11.4761 55.5,14.5 Z"/></g>
<g><path style="opacity:0.302" fill="#f4cdd6" d="M 92.5,21.5 C 94.4044,21.7376 95.7377,22.7376 96.5,24.5C 94.5956,24.2624 93.2623,23.2624 92.5,21.5 Z"/></g>
<g><path style="opacity:1" fill="#cd243b" d="M 110.5,22.5 C 111.209,23.404 112.209,23.7373 113.5,23.5C 113.5,24.5 113.5,25.5 113.5,26.5C 111.273,27.4006 110.273,29.0672 110.5,31.5C 110.5,32.1667 110.5,32.8333 110.5,33.5C 110.66,35.1992 110.494,36.8659 110,38.5C 108.642,34.4019 105.808,32.7353 101.5,33.5C 101.5,32.8333 101.5,32.1667 101.5,31.5C 101.215,29.712 101.548,28.0453 102.5,26.5C 104.002,30.374 104.669,30.0407 104.5,25.5C 103.448,25.6495 102.448,25.4828 101.5,25C 102.866,23.4002 103.866,21.5668 104.5,19.5C 105.167,20.5 105.833,21.5 106.5,22.5C 107.865,21.1931 109.198,21.1931 110.5,22.5 Z"/></g>
<g><path style="opacity:1" fill="#bd575f" d="M 111.5,13.5 C 112.299,15.296 112.299,17.296 111.5,19.5C 111.833,20.5 112.167,21.5 112.5,22.5C 113.107,22.3764 113.44,22.0431 113.5,21.5C 114.568,20.5655 115.901,20.2322 117.5,20.5C 121.761,20.1016 125.761,19.1016 129.5,17.5C 129.833,17.5 130.167,17.5 130.5,17.5C 131.167,17.5 131.5,17.8333 131.5,18.5C 130.005,18.9887 128.671,19.6554 127.5,20.5C 125.847,20.6596 124.514,21.3263 123.5,22.5C 121.151,24.341 118.485,25.6743 115.5,26.5C 114.833,26.5 114.167,26.5 113.5,26.5C 113.5,25.5 113.5,24.5 113.5,23.5C 112.209,23.7373 111.209,23.404 110.5,22.5C 110.719,18.4726 109.552,17.8059 107,20.5C 106.536,19.9056 106.369,19.2389 106.5,18.5C 107.5,17.8333 108.5,17.1667 109.5,16.5C 110.906,16.0269 111.573,15.0269 111.5,13.5 Z"/></g>
<g><path style="opacity:1" fill="#c22d3e" d="M 104.5,17.5 C 105.167,17.8333 105.833,18.1667 106.5,18.5C 106.369,19.2389 106.536,19.9056 107,20.5C 109.552,17.8059 110.719,18.4726 110.5,22.5C 109.198,21.1931 107.865,21.1931 106.5,22.5C 105.833,21.5 105.167,20.5 104.5,19.5C 103.866,21.5668 102.866,23.4002 101.5,25C 102.448,25.4828 103.448,25.6495 104.5,25.5C 104.669,30.0407 104.002,30.374 102.5,26.5C 101.548,28.0453 101.215,29.712 101.5,31.5C 100.5,31.5 99.5,31.5 98.5,31.5C 96.8235,30.8166 96.1568,29.4832 96.5,27.5C 99.1667,26.5 99.1667,25.5 96.5,24.5C 95.7377,22.7376 94.4044,21.7376 92.5,21.5C 95.5338,21.3502 98.5338,21.3502 101.5,21.5C 102.302,20.0484 102.802,18.3817 103,16.5C 103.383,17.056 103.883,17.3893 104.5,17.5 Z"/></g>
<g><path style="opacity:0.141" fill="#f9d0d0" d="M 96.5,24.5 C 99.1667,25.5 99.1667,26.5 96.5,27.5C 97.8333,26.5 97.8333,25.5 96.5,24.5 Z"/></g>
<g><path style="opacity:0.027" fill="#fdcbcd" d="M 113.5,26.5 C 114.167,26.5 114.833,26.5 115.5,26.5C 115.557,27.609 115.89,28.609 116.5,29.5C 114.5,29.5 113.5,28.5 113.5,26.5 Z"/></g>
<g><path style="opacity:1" fill="#858586" d="M 132.5,20.5 C 140.902,28.3002 145.902,37.9669 147.5,49.5C 146.732,48.7375 146.232,47.7375 146,46.5C 144.681,48.2495 144.181,50.2495 144.5,52.5C 143.334,46.6748 141.334,41.0082 138.5,35.5C 133.533,34.671 128.533,34.171 123.5,34C 122.627,32.955 121.627,32.1217 120.5,31.5C 120.5,31.1667 120.5,30.8333 120.5,30.5C 125.214,30.8266 129.88,30.4933 134.5,29.5C 133.069,26.9613 131.403,24.6279 129.5,22.5C 129.821,20.9519 130.821,20.2852 132.5,20.5 Z"/></g>
<g><path style="opacity:1" fill="#b23b47" d="M 113.5,26.5 C 113.5,28.5 114.5,29.5 116.5,29.5C 117.29,30.7942 118.29,31.9609 119.5,33C 117.575,32.8651 115.575,32.6984 113.5,32.5C 112.791,31.596 111.791,31.2627 110.5,31.5C 110.273,29.0672 111.273,27.4006 113.5,26.5 Z"/></g>
<g><path style="opacity:0.679" fill="#949695" d="M 84.5,7.5 C 84.5,7.16667 84.5,6.83333 84.5,6.5C 86.4668,14.0968 87.1335,22.0968 86.5,30.5C 85.7095,31.4013 84.7095,32.0679 83.5,32.5C 76.3524,31.5084 69.0191,31.175 61.5,31.5C 61.6602,29.8008 61.4935,28.1341 61,26.5C 60.2917,27.3805 59.4584,28.0472 58.5,28.5C 59.1103,26.5659 60.1103,24.8993 61.5,23.5C 61.7822,24.7777 62.4489,25.7777 63.5,26.5C 63.4606,27.5832 63.1272,28.5832 62.5,29.5C 70.1378,30.4975 77.8045,30.8308 85.5,30.5C 85.8254,22.6484 85.492,14.9818 84.5,7.5 Z"/></g>
<g><path style="opacity:1" fill="#686a6b" d="M 83.5,32.5 C 76.9221,33.4601 70.2554,33.7934 63.5,33.5C 61.5239,32.0554 59.5239,31.3887 57.5,31.5C 58.1098,30.609 58.4431,29.609 58.5,28.5C 59.4584,28.0472 60.2917,27.3805 61,26.5C 61.4935,28.1341 61.6602,29.8008 61.5,31.5C 69.0191,31.175 76.3524,31.5084 83.5,32.5 Z"/></g>
<g><path style="opacity:0.059" fill="#d9c9ca" d="M 89.5,29.5 C 90.2022,30.1157 91.2022,30.1157 92.5,29.5C 89.4212,31.5448 86.0879,33.3781 82.5,35C 84.7972,35.0178 87.1305,34.8511 89.5,34.5C 89.5,35.1667 89.5,35.8333 89.5,36.5C 89.1667,36.5 88.8333,36.5 88.5,36.5C 88.1667,35.1667 87.8333,35.1667 87.5,36.5C 87.2005,44.8213 86.2005,52.8213 84.5,60.5C 85.4672,52.5856 85.8005,44.5856 85.5,36.5C 83.1806,37.167 80.8473,37.3336 78.5,37C 78.9574,36.586 79.2907,36.086 79.5,35.5C 72.8665,34.5033 66.1998,34.17 59.5,34.5C 60.5676,33.5655 61.901,33.2322 63.5,33.5C 70.2554,33.7934 76.9221,33.4601 83.5,32.5C 84.7095,32.0679 85.7095,31.4013 86.5,30.5C 87.609,30.4431 88.609,30.1098 89.5,29.5 Z"/></g>
<g><path style="opacity:1" fill="#ac434d" d="M 96.5,27.5 C 96.1568,29.4832 96.8235,30.8166 98.5,31.5C 95.5917,32.816 92.5917,33.816 89.5,34.5C 87.1305,34.8511 84.7972,35.0178 82.5,35C 86.0879,33.3781 89.4212,31.5448 92.5,29.5C 93.5137,28.3263 94.847,27.6596 96.5,27.5 Z"/></g>
<g><path style="opacity:0.998" fill="#6c6c6f" d="M 36.5,28.5 C 38.0481,28.8212 38.7148,29.8212 38.5,31.5C 44.8333,31.5 51.1667,31.5 57.5,31.5C 59.5239,31.3887 61.5239,32.0554 63.5,33.5C 61.901,33.2322 60.5676,33.5655 59.5,34.5C 59.5674,35.9587 59.2341,37.2921 58.5,38.5C 57.8444,39.2778 57.0111,39.9444 56,40.5C 54.9701,40.1639 54.4701,39.4972 54.5,38.5C 54.2627,37.209 54.596,36.209 55.5,35.5C 56.0431,35.44 56.3764,35.1067 56.5,34.5C 49.8665,33.5033 43.1998,33.17 36.5,33.5C 35.7611,33.631 35.0944,33.4643 34.5,33C 36.1066,31.951 36.7733,30.451 36.5,28.5 Z"/></g>
<g><path style="opacity:0.416" fill="#bbbbbb" d="M 36.5,33.5 C 43.1998,33.17 49.8665,33.5033 56.5,34.5C 56.3764,35.1067 56.0431,35.44 55.5,35.5C 49.2657,34.1927 42.9324,34.1927 36.5,35.5C 36.5,34.8333 36.5,34.1667 36.5,33.5 Z"/></g>
<g><path style="opacity:0.125" fill="#e4d3d3" d="M 116.5,29.5 C 117.833,29.8333 119.167,30.1667 120.5,30.5C 120.5,30.8333 120.5,31.1667 120.5,31.5C 120.414,32.4959 120.748,33.3292 121.5,34C 120.584,34.2784 119.918,34.7784 119.5,35.5C 118.209,35.2627 117.209,35.596 116.5,36.5C 115.226,35.8106 115.226,34.9772 116.5,34C 115.263,33.7679 114.263,33.2679 113.5,32.5C 115.575,32.6984 117.575,32.8651 119.5,33C 118.29,31.9609 117.29,30.7942 116.5,29.5 Z"/></g>
<g><path style="opacity:0.247" fill="#e5bcbe" d="M 98.5,31.5 C 99.5,31.5 100.5,31.5 101.5,31.5C 101.5,32.1667 101.5,32.8333 101.5,33.5C 100.506,36.3992 101.506,37.0659 104.5,35.5C 103.627,38.5766 101.793,40.91 99,42.5C 98.3664,39.5768 98.5331,36.5768 99.5,33.5C 96.2139,34.2071 92.8806,34.5405 89.5,34.5C 92.5917,33.816 95.5917,32.816 98.5,31.5 Z"/></g>
<g><path style="opacity:0.522" fill="#eeabb0" d="M 110.5,31.5 C 111.791,31.2627 112.791,31.596 113.5,32.5C 112.549,33.9187 112.216,35.5853 112.5,37.5C 111.833,36.1667 111.167,34.8333 110.5,33.5C 110.5,32.8333 110.5,32.1667 110.5,31.5 Z"/></g>
<g><path style="opacity:0.82" fill="#d8b6bb" d="M 62.5,43.5 C 63.6428,41.8993 62.9761,41.2326 60.5,41.5C 57.8599,42.0951 55.1933,42.4285 52.5,42.5C 52.9887,41.0048 53.6554,39.6715 54.5,38.5C 54.4701,39.4972 54.9701,40.1639 56,40.5C 57.0111,39.9444 57.8444,39.2778 58.5,38.5C 58.62,39.5862 59.2867,40.2528 60.5,40.5C 65.405,39.6562 70.2383,38.6562 75,37.5C 75.6877,38.3317 75.521,38.9984 74.5,39.5C 70.7802,41.7093 66.7802,43.0426 62.5,43.5 Z"/></g>
<g><path style="opacity:1" fill="#717374" d="M 119.5,35.5 C 120.404,36.209 120.737,37.209 120.5,38.5C 120.496,42.2502 119.496,42.9169 117.5,40.5C 116.766,39.2921 116.433,37.9587 116.5,36.5C 117.209,35.596 118.209,35.2627 119.5,35.5 Z"/></g>
<g><path style="opacity:0.906" fill="#808182" d="M 36.5,28.5 C 36.7733,30.451 36.1066,31.951 34.5,33C 35.0944,33.4643 35.7611,33.631 36.5,33.5C 36.5,34.1667 36.5,34.8333 36.5,35.5C 34.7745,39.0087 33.4411,42.6754 32.5,46.5C 32.1667,46.5 31.8333,46.5 31.5,46.5C 29.8041,48.129 28.8041,47.7957 28.5,45.5C 29.8485,39.1397 32.5151,33.4731 36.5,28.5 Z"/></g>
<g><path style="opacity:0.082" fill="#f8d0d2" d="M 108.5,39.5 C 109.674,40.5137 110.34,41.847 110.5,43.5C 108.896,42.713 108.229,41.3797 108.5,39.5 Z"/></g>
<g><path style="opacity:0.933" fill="#adacad" d="M 120.5,38.5 C 121.924,40.5145 122.59,42.8478 122.5,45.5C 121.535,41.6179 120.535,41.6179 119.5,45.5C 120.914,50.6252 121.247,55.6252 120.5,60.5C 119.872,53.7723 118.872,47.1056 117.5,40.5C 119.496,42.9169 120.496,42.2502 120.5,38.5 Z"/></g>
<g><path style="opacity:0.733" fill="#ebaca8" d="M 52.5,42.5 C 50.1617,44.0395 47.4951,44.7062 44.5,44.5C 46.8383,42.9605 49.5049,42.2938 52.5,42.5 Z"/></g>
<g><path style="opacity:0.984" fill="#ad4a53" d="M 101.5,33.5 C 105.808,32.7353 108.642,34.4019 110,38.5C 110.494,36.8659 110.66,35.1992 110.5,33.5C 111.167,34.8333 111.833,36.1667 112.5,37.5C 112.565,40.4282 113.232,43.0948 114.5,45.5C 114.768,47.099 114.434,48.4324 113.5,49.5C 113.008,47.1815 112.008,45.1815 110.5,43.5C 110.34,41.847 109.674,40.5137 108.5,39.5C 107.607,37.703 106.274,36.3696 104.5,35.5C 101.506,37.0659 100.506,36.3992 101.5,33.5 Z"/></g>
<g><path style="opacity:0.224" fill="#f7cbcf" d="M 112.5,37.5 C 114.223,39.78 114.889,42.4467 114.5,45.5C 113.232,43.0948 112.565,40.4282 112.5,37.5 Z"/></g>
<g><path style="opacity:0.067" fill="#f4d0d1" d="M 110.5,43.5 C 112.008,45.1815 113.008,47.1815 113.5,49.5C 111.461,48.089 110.461,46.089 110.5,43.5 Z"/></g>
<g><path style="opacity:0.812" fill="#e69ea3" d="M 44.5,44.5 C 42.4855,45.9238 40.1522,46.5905 37.5,46.5C 39.5145,45.0762 41.8478,44.4095 44.5,44.5 Z"/></g>
<g><path style="opacity:1" fill="#c05059" d="M 62.5,43.5 C 60.7857,44.7384 58.7857,45.405 56.5,45.5C 53.5568,45.9802 50.8902,46.9802 48.5,48.5C 46.1515,50.341 43.4848,51.6743 40.5,52.5C 39.5,52.5 38.5,52.5 37.5,52.5C 38.5521,50.744 40.2188,50.0773 42.5,50.5C 42.5,49.5 42.5,48.5 42.5,47.5C 39.1667,47.5 35.8333,47.5 32.5,47.5C 32.5,47.1667 32.5,46.8333 32.5,46.5C 34.1667,46.5 35.8333,46.5 37.5,46.5C 40.1522,46.5905 42.4855,45.9238 44.5,44.5C 47.4951,44.7062 50.1617,44.0395 52.5,42.5C 55.1933,42.4285 57.8599,42.0951 60.5,41.5C 62.9761,41.2326 63.6428,41.8993 62.5,43.5 Z"/></g>
<g><path style="opacity:0.09" fill="#f5e4e9" d="M 28.5,45.5 C 28.8041,47.7957 29.8041,48.129 31.5,46.5C 31.5,47.1667 31.8333,47.5 32.5,47.5C 30.7857,48.7384 28.7857,49.405 26.5,49.5C 26.9887,48.0048 27.6554,46.6715 28.5,45.5 Z"/></g>
<g><path style="opacity:0.012" fill="#f2e0e1" d="M 56.5,45.5 C 56.7678,47.099 56.4345,48.4324 55.5,49.5C 55.5,48.8333 55.5,48.1667 55.5,47.5C 55.1667,46.1667 54.8333,46.1667 54.5,47.5C 53.5,48.5 52.5,49.5 51.5,50.5C 51.1788,48.9519 50.1788,48.2852 48.5,48.5C 50.8902,46.9802 53.5568,45.9802 56.5,45.5 Z"/></g>
<g><path style="opacity:1" fill="#c33342" d="M 32.5,47.5 C 35.8333,47.5 39.1667,47.5 42.5,47.5C 42.5,48.5 42.5,49.5 42.5,50.5C 40.2188,50.0773 38.5521,50.744 37.5,52.5C 36.5987,53.2905 35.9321,54.2905 35.5,55.5C 35.5,56.1667 35.1667,56.5 34.5,56.5C 33.391,56.5569 32.391,56.8902 31.5,57.5C 32.8011,55.3281 33.8011,52.9948 34.5,50.5C 29.8333,51.8333 25.1667,53.1667 20.5,54.5C 22.5,52.8333 24.5,51.1667 26.5,49.5C 28.7857,49.405 30.7857,48.7384 32.5,47.5 Z"/></g>
<g><path style="opacity:0.8" fill="#ceabb0" d="M 114.5,45.5 C 115.391,46.2613 116.058,47.2613 116.5,48.5C 115.305,49.9675 115.305,51.4675 116.5,53C 116.389,54.7215 115.889,54.8882 115,53.5C 114.209,52.255 113.709,50.9217 113.5,49.5C 114.434,48.4324 114.768,47.099 114.5,45.5 Z"/></g>
<g><path style="opacity:0.91" fill="#d98c8e" d="M 37.5,52.5 C 38.5,52.5 39.5,52.5 40.5,52.5C 39.1007,53.8897 37.4341,54.8897 35.5,55.5C 35.9321,54.2905 36.5987,53.2905 37.5,52.5 Z"/></g>
<g><path style="opacity:1" fill="#c7686e" d="M 26.5,49.5 C 24.5,51.1667 22.5,52.8333 20.5,54.5C 19.8333,54.5 19.1667,54.5 18.5,54.5C 17.1667,54.5 15.8333,54.5 14.5,54.5C 18.2025,52.3213 22.2025,50.6546 26.5,49.5 Z"/></g>
<g><path style="opacity:1" fill="#d02139" d="M 31.5,57.5 C 27.3155,59.0091 23.9822,61.6757 21.5,65.5C 19.8599,66.3201 18.1932,67.1534 16.5,68C 17.3802,69.3561 17.7135,70.8561 17.5,72.5C 15.4209,68.7645 15.0876,64.7645 16.5,60.5C 17.825,57.6708 19.825,57.0042 22.5,58.5C 21.91,59.7989 20.91,60.6322 19.5,61C 23.3197,61.3423 24.9864,59.509 24.5,55.5C 22.5,55.5 20.5,55.5 18.5,55.5C 18.5,55.1667 18.5,54.8333 18.5,54.5C 19.1667,54.5 19.8333,54.5 20.5,54.5C 25.1667,53.1667 29.8333,51.8333 34.5,50.5C 33.8011,52.9948 32.8011,55.3281 31.5,57.5 Z"/></g>
<g><path style="opacity:0.631" fill="#e1979c" d="M 14.5,54.5 C 13.5144,56.4077 11.8477,57.4077 9.5,57.5C 10.6594,55.7497 12.326,54.7497 14.5,54.5 Z"/></g>
<g><path style="opacity:0.004" fill="#ffeded" d="M 34.5,56.5 C 34.0269,57.9063 33.0269,58.573 31.5,58.5C 31.5,58.1667 31.5,57.8333 31.5,57.5C 32.391,56.8902 33.391,56.5569 34.5,56.5 Z"/></g>
<g><path style="opacity:0.52" fill="#bcc2c1" d="M 123.5,51.5 C 124.245,54.3896 124.912,57.3896 125.5,60.5C 123.612,58.0122 122.945,55.0122 123.5,51.5 Z"/></g>
<g><path style="opacity:0.992" fill="#6b6b6c" d="M 122.5,45.5 C 123.461,47.2646 123.795,49.2646 123.5,51.5C 122.945,55.0122 123.612,58.0122 125.5,60.5C 131.5,60.5 137.5,60.5 143.5,60.5C 143.833,60.5 144.167,60.5 144.5,60.5C 138.347,61.3279 132.013,61.8279 125.5,62C 132.524,62.1689 139.524,62.6689 146.5,63.5C 146.376,64.1067 146.043,64.44 145.5,64.5C 138.352,63.5084 131.019,63.175 123.5,63.5C 123.5,67.5 123.5,71.5 123.5,75.5C 122.849,76.0906 122.182,76.7573 121.5,77.5C 120.534,75.604 120.201,73.604 120.5,71.5C 121.473,69.0521 121.806,66.3854 121.5,63.5C 119.5,63.5 117.5,63.5 115.5,63.5C 115.5,62.5 115.5,61.5 115.5,60.5C 117.167,60.5 118.833,60.5 120.5,60.5C 121.247,55.6252 120.914,50.6252 119.5,45.5C 120.535,41.6179 121.535,41.6179 122.5,45.5 Z"/></g>
<g><path style="opacity:0.051" fill="#e5e5ea" d="M 144.5,52.5 C 145.833,55.1667 145.833,57.8333 144.5,60.5C 144.167,60.5 143.833,60.5 143.5,60.5C 143.771,57.7995 144.104,55.1329 144.5,52.5 Z"/></g>
<g><path style="opacity:0.929" fill="#b7414e" d="M 31.5,57.5 C 31.5,57.8333 31.5,58.1667 31.5,58.5C 28.9108,59.4194 26.9108,61.086 25.5,63.5C 24.0937,63.9731 23.427,64.9731 23.5,66.5C 23.0679,67.7095 22.4013,68.7095 21.5,69.5C 20.3673,71.0552 19.7006,72.8886 19.5,75C 20.0767,77.137 20.41,79.3037 20.5,81.5C 19.1999,79.777 18.5332,77.6103 18.5,75C 18.8333,72.8333 19.1667,70.6667 19.5,68.5C 20.9185,67.9953 21.5852,66.9953 21.5,65.5C 23.9822,61.6757 27.3155,59.0091 31.5,57.5 Z"/></g>
<g><path style="opacity:0.008" fill="#f5dedf" d="M 31.5,58.5 C 31.1667,59.1667 30.8333,59.8333 30.5,60.5C 29.5,62.1667 28.1667,63.5 26.5,64.5C 26.5,63.8333 26.1667,63.5 25.5,63.5C 26.9108,61.086 28.9108,59.4194 31.5,58.5 Z"/></g>
<g><path style="opacity:1" fill="#717374" d="M 54.5,47.5 C 54.8333,47.5 55.1667,47.5 55.5,47.5C 55.5,48.1667 55.5,48.8333 55.5,49.5C 55.5,53.1667 55.5,56.8333 55.5,60.5C 52.6836,57.7448 52.017,58.2448 53.5,62C 53.1331,64.7082 52.4665,67.2082 51.5,69.5C 51.5,68.1667 51.5,66.8333 51.5,65.5C 44.5762,63.5367 37.2428,62.8701 29.5,63.5C 29.2155,65.4147 29.5489,67.0813 30.5,68.5C 30.5,69.8333 30.5,71.1667 30.5,72.5C 30.6567,73.8734 30.49,75.2068 30,76.5C 29.7645,74.8807 28.9311,73.8807 27.5,73.5C 26.5233,70.7131 26.19,67.7131 26.5,64.5C 28.1667,63.5 29.5,62.1667 30.5,60.5C 37.2284,60.2052 43.5618,60.2052 49.5,60.5C 50.1924,59.9747 50.6924,59.3081 51,58.5C 51.4974,55.854 51.6641,53.1873 51.5,50.5C 52.5,49.5 53.5,48.5 54.5,47.5 Z"/></g>
<g><path style="opacity:1" fill="#747576" d="M 55.5,60.5 C 63.6566,61.3294 71.9899,61.8294 80.5,62C 71.657,62.1704 62.9903,62.6704 54.5,63.5C 54.5,66.1667 54.5,68.8333 54.5,71.5C 54.5979,73.5529 53.9313,75.2196 52.5,76.5C 51.5318,74.3926 51.1984,72.0593 51.5,69.5C 52.4665,67.2082 53.1331,64.7082 53.5,62C 52.017,58.2448 52.6836,57.7448 55.5,60.5 Z"/></g>
<g><path style="opacity:1" fill="#8a8a8c" d="M 87.5,36.5 C 87.8333,36.5 88.1667,36.5 88.5,36.5C 88.8333,36.5 89.1667,36.5 89.5,36.5C 89.1995,44.5856 89.5328,52.5856 90.5,60.5C 90.9175,61.2216 91.5842,61.7216 92.5,62C 91.2625,62.2321 90.2625,62.7321 89.5,63.5C 89.5,63.8333 89.5,64.1667 89.5,64.5C 89.5,72.8333 89.5,81.1667 89.5,89.5C 98.5,89.5 107.5,89.5 116.5,89.5C 107.348,90.4936 98.015,90.8269 88.5,90.5C 89.135,81.7663 88.4684,73.4329 86.5,65.5C 86.6716,64.5084 86.3382,63.8417 85.5,63.5C 85.0825,62.7784 84.4158,62.2784 83.5,62C 84.056,61.6174 84.3893,61.1174 84.5,60.5C 86.2005,52.8213 87.2005,44.8213 87.5,36.5 Z"/></g>
<g><path style="opacity:1" fill="#68696b" d="M 90.5,60.5 C 98.8333,60.5 107.167,60.5 115.5,60.5C 115.5,61.5 115.5,62.5 115.5,63.5C 106.833,63.5 98.1667,63.5 89.5,63.5C 90.2625,62.7321 91.2625,62.2321 92.5,62C 91.5842,61.7216 90.9175,61.2216 90.5,60.5 Z"/></g>
<g><path style="opacity:1" fill="#7d7d7f" d="M 147.5,49.5 C 150.137,58.375 150.137,67.375 147.5,76.5C 146.5,76.5 145.5,76.5 144.5,76.5C 144.5,75.1667 144.5,73.8333 144.5,72.5C 144.5,72.1667 144.5,71.8333 144.5,71.5C 145.468,69.3926 145.802,67.0593 145.5,64.5C 146.043,64.44 146.376,64.1067 146.5,63.5C 139.524,62.6689 132.524,62.1689 125.5,62C 132.013,61.8279 138.347,61.3279 144.5,60.5C 145.833,57.8333 145.833,55.1667 144.5,52.5C 144.181,50.2495 144.681,48.2495 146,46.5C 146.232,47.7375 146.732,48.7375 147.5,49.5 Z"/></g>
<g><path style="opacity:0.973" fill="#656567" d="M 55.5,60.5 C 65.1667,60.5 74.8333,60.5 84.5,60.5C 84.3893,61.1174 84.056,61.6174 83.5,62C 84.4158,62.2784 85.0825,62.7784 85.5,63.5C 75.1667,63.5 64.8333,63.5 54.5,63.5C 62.9903,62.6704 71.657,62.1704 80.5,62C 71.9899,61.8294 63.6566,61.3294 55.5,60.5 Z"/></g>
<g><path style="opacity:0.478" fill="#f0b0b3" d="M 6.5,59.5 C 4.83333,61.8333 2.83333,63.8333 0.5,65.5C 1.5,62.5 3.5,60.5 6.5,59.5 Z"/></g>
<g><path style="opacity:1" fill="#d31f37" d="M 18.5,55.5 C 20.5,55.5 22.5,55.5 24.5,55.5C 24.9864,59.509 23.3197,61.3423 19.5,61C 20.91,60.6322 21.91,59.7989 22.5,58.5C 19.825,57.0042 17.825,57.6708 16.5,60.5C 15.0876,64.7645 15.4209,68.7645 17.5,72.5C 17.5,73.1667 17.5,73.8333 17.5,74.5C 15.5891,74.4257 14.4224,73.4257 14,71.5C 13.8184,68.7737 13.3184,66.1071 12.5,63.5C 11.0663,64.9358 9.89961,66.6025 9,68.5C 7.81181,67.4366 7.31181,66.1033 7.5,64.5C 7.77128,62.6883 8.43795,61.0217 9.5,59.5C 12.911,58.91 15.911,57.5767 18.5,55.5 Z"/></g>
<g><path style="opacity:0.165" fill="#dfdfdf" d="M 51.5,65.5 C 44.5878,64.5379 37.5878,64.2045 30.5,64.5C 30.5,65.8333 30.5,67.1667 30.5,68.5C 29.5489,67.0813 29.2155,65.4147 29.5,63.5C 37.2428,62.8701 44.5762,63.5367 51.5,65.5 Z"/></g>
<g><path style="opacity:0.165" fill="#d3d3d3" d="M 54.5,63.5 C 64.8333,63.5 75.1667,63.5 85.5,63.5C 86.3382,63.8417 86.6716,64.5084 86.5,65.5C 87.135,74.2337 86.4684,82.5671 84.5,90.5C 75.9832,90.8261 67.6499,90.4927 59.5,89.5C 68.1667,89.5 76.8333,89.5 85.5,89.5C 85.5,81.1667 85.5,72.8333 85.5,64.5C 75.5,64.5 65.5,64.5 55.5,64.5C 55.5,66.8333 55.5,69.1667 55.5,71.5C 55.1667,71.5 54.8333,71.5 54.5,71.5C 54.5,68.8333 54.5,66.1667 54.5,63.5 Z"/></g>
<g><path style="opacity:0.158" fill="#d5d5d5" d="M 89.5,64.5 C 89.5,64.1667 89.5,63.8333 89.5,63.5C 98.1667,63.5 106.833,63.5 115.5,63.5C 117.5,63.5 119.5,63.5 121.5,63.5C 121.806,66.3854 121.473,69.0521 120.5,71.5C 120.5,69.1667 120.5,66.8333 120.5,64.5C 110.167,64.5 99.8333,64.5 89.5,64.5 Z"/></g>
<g><path style="opacity:0.155" fill="#d4d4d6" d="M 145.5,64.5 C 145.802,67.0593 145.468,69.3926 144.5,71.5C 144.5,69.1667 144.5,66.8333 144.5,64.5C 137.833,64.5 131.167,64.5 124.5,64.5C 124.815,68.3714 124.482,72.0381 123.5,75.5C 123.5,71.5 123.5,67.5 123.5,63.5C 131.019,63.175 138.352,63.5084 145.5,64.5 Z"/></g>
<g><path style="opacity:0.024" fill="#fcd3e9" d="M 25.5,63.5 C 25.573,65.0269 24.9063,66.0269 23.5,66.5C 23.427,64.9731 24.0937,63.9731 25.5,63.5 Z"/></g>
<g><path style="opacity:1" fill="#d12237" d="M 17.5,74.5 C 16.36,77.0248 15.6933,79.6915 15.5,82.5C 13.0634,82.114 11.0634,80.9473 9.5,79C 8.20677,78.51 6.87344,78.3433 5.5,78.5C 1.0264,73.0689 1.69306,68.4022 7.5,64.5C 7.31181,66.1033 7.81181,67.4366 9,68.5C 9.89961,66.6025 11.0663,64.9358 12.5,63.5C 13.3184,66.1071 13.8184,68.7737 14,71.5C 14.4224,73.4257 15.5891,74.4257 17.5,74.5 Z"/></g>
<g><path style="opacity:1" fill="#be3041" d="M 14.5,54.5 C 15.8333,54.5 17.1667,54.5 18.5,54.5C 18.5,54.8333 18.5,55.1667 18.5,55.5C 15.911,57.5767 12.911,58.91 9.5,59.5C 8.43795,61.0217 7.77128,62.6883 7.5,64.5C 1.69306,68.4022 1.0264,73.0689 5.5,78.5C 1.04227,75.3743 -0.6244,71.041 0.5,65.5C 2.83333,63.8333 4.83333,61.8333 6.5,59.5C 6.97306,58.0937 7.97306,57.427 9.5,57.5C 11.8477,57.4077 13.5144,56.4077 14.5,54.5 Z"/></g>
<g><path style="opacity:0.545" fill="#e5a7ac" d="M 21.5,69.5 C 20.2955,73.9138 20.6289,78.2472 22.5,82.5C 21.8333,82.1667 21.1667,81.8333 20.5,81.5C 20.41,79.3037 20.0767,77.137 19.5,75C 19.7006,72.8886 20.3673,71.0552 21.5,69.5 Z"/></g>
<g><path style="opacity:0.016" fill="#feced2" d="M -0.5,65.5 C -0.166667,65.5 0.166667,65.5 0.5,65.5C -0.6244,71.041 1.04227,75.3743 5.5,78.5C 6.16667,79.5 6.83333,80.5 7.5,81.5C 4.20994,79.8764 1.54327,77.5431 -0.5,74.5C -0.5,71.5 -0.5,68.5 -0.5,65.5 Z"/></g>
<g><path style="opacity:0.98" fill="#909093" d="M 30.5,72.5 C 31.8754,77.9444 33.8754,83.2777 36.5,88.5C 42.7985,89.4963 49.1318,89.8297 55.5,89.5C 49.3208,90.1666 42.9875,90.8332 36.5,91.5C 36.8076,92.3081 37.3076,92.9747 38,93.5C 39.2917,92.2089 40.4583,92.2089 41.5,93.5C 40.6618,93.8417 40.3284,94.5084 40.5,95.5C 40.2178,96.7777 39.5511,97.7777 38.5,98.5C 32.408,91.3089 28.7414,82.9756 27.5,73.5C 28.9311,73.8807 29.7645,74.8807 30,76.5C 30.49,75.2068 30.6567,73.8734 30.5,72.5 Z"/></g>
<g><path style="opacity:0.966" fill="#8a8a8a" d="M 54.5,71.5 C 54.8333,71.5 55.1667,71.5 55.5,71.5C 56.3629,77.2845 57.6962,82.9511 59.5,88.5C 58.0337,87.653 57.2004,86.3197 57,84.5C 56.2086,85.745 55.7086,87.0783 55.5,88.5C 53.3523,88.6106 53.019,87.944 54.5,86.5C 53.198,83.2921 52.5313,79.9588 52.5,76.5C 53.9313,75.2196 54.5979,73.5529 54.5,71.5 Z"/></g>
<g><path style="opacity:1" fill="#cb263a" d="M 21.5,65.5 C 21.5852,66.9953 20.9185,67.9953 19.5,68.5C 19.1667,70.6667 18.8333,72.8333 18.5,75C 18.5332,77.6103 19.1999,79.777 20.5,81.5C 21.1667,81.8333 21.8333,82.1667 22.5,82.5C 22.5,83.1667 22.5,83.8333 22.5,84.5C 22.5,85.5 22.5,86.5 22.5,87.5C 19.6185,86.6211 17.2851,84.9544 15.5,82.5C 15.6933,79.6915 16.36,77.0248 17.5,74.5C 17.5,73.8333 17.5,73.1667 17.5,72.5C 17.7135,70.8561 17.3802,69.3561 16.5,68C 18.1932,67.1534 19.8599,66.3201 21.5,65.5 Z"/></g>
<g><path style="opacity:0.22" fill="#f8c7c8" d="M 7.5,81.5 C 9.02694,81.427 10.0269,82.0937 10.5,83.5C 8.97306,83.573 7.97306,82.9063 7.5,81.5 Z"/></g>
<g><path style="opacity:1" fill="#bd414b" d="M 5.5,78.5 C 6.87344,78.3433 8.20677,78.51 9.5,79C 11.0634,80.9473 13.0634,82.114 15.5,82.5C 17.2851,84.9544 19.6185,86.6211 22.5,87.5C 22.5,86.5 22.5,85.5 22.5,84.5C 23.1667,84.8333 23.8333,85.1667 24.5,85.5C 24.8588,87.371 25.8588,88.871 27.5,90C 24.9792,89.2704 22.3126,88.7704 19.5,88.5C 17.1815,88.0075 15.1815,87.0075 13.5,85.5C 13.0269,84.0937 12.0269,83.427 10.5,83.5C 10.0269,82.0937 9.02694,81.427 7.5,81.5C 6.83333,80.5 6.16667,79.5 5.5,78.5 Z"/></g>
<g><path style="opacity:0.122" fill="#f9d6d7" d="M 10.5,83.5 C 12.0269,83.427 13.0269,84.0937 13.5,85.5C 11.9731,85.573 10.9731,84.9063 10.5,83.5 Z"/></g>
<g><path style="opacity:0.149" fill="#ffcece" d="M 22.5,82.5 C 23.9063,82.9731 24.573,83.9731 24.5,85.5C 23.8333,85.1667 23.1667,84.8333 22.5,84.5C 22.5,83.8333 22.5,83.1667 22.5,82.5 Z"/></g>
<g><path style="opacity:1" fill="#89898a" d="M 120.5,71.5 C 120.201,73.604 120.534,75.604 121.5,77.5C 122.182,76.7573 122.849,76.0906 123.5,75.5C 123.442,80.3944 122.442,85.0611 120.5,89.5C 120.5,89.8333 120.5,90.1667 120.5,90.5C 119.957,90.56 119.624,90.8933 119.5,91.5C 120.243,92.1818 120.909,92.8485 121.5,93.5C 119.938,93.7329 118.605,94.3995 117.5,95.5C 117.433,94.0413 117.766,92.7079 118.5,91.5C 118.167,90.5 117.5,89.8333 116.5,89.5C 118.182,83.4525 119.515,77.4525 120.5,71.5 Z"/></g>
<g><path style="opacity:0.988" fill="#69696b" d="M 86.5,65.5 C 88.4684,73.4329 89.135,81.7663 88.5,90.5C 98.015,90.8269 107.348,90.4936 116.5,89.5C 117.5,89.8333 118.167,90.5 118.5,91.5C 110.674,91.449 102.674,91.6157 94.5,92C 95.056,92.3826 95.3893,92.8826 95.5,93.5C 93.5,93.5 91.5,93.5 89.5,93.5C 88.5073,101.65 88.1739,109.983 88.5,118.5C 87.8333,118.5 87.1667,118.5 86.5,118.5C 87.135,109.766 86.4684,101.433 84.5,93.5C 84.0825,92.7784 83.4158,92.2784 82.5,92C 83.4158,91.7216 84.0825,91.2216 84.5,90.5C 86.4684,82.5671 87.135,74.2337 86.5,65.5 Z"/></g>
<g><path style="opacity:0.941" fill="#979798" d="M 144.5,72.5 C 144.5,73.8333 144.5,75.1667 144.5,76.5C 145.5,76.5 146.5,76.5 147.5,76.5C 146.169,83.1838 143.502,89.1838 139.5,94.5C 139.5,93.1667 139.5,91.8333 139.5,90.5C 133.167,90.5 126.833,90.5 120.5,90.5C 120.5,90.1667 120.5,89.8333 120.5,89.5C 126.537,89.8293 132.537,89.4959 138.5,88.5C 141.525,83.07 143.525,77.7367 144.5,72.5 Z"/></g>
<g><path style="opacity:0.788" fill="#d4a6ae" d="M 24.5,85.5 C 27.2971,87.795 29.9638,90.295 32.5,93C 27.7032,92.7901 23.3698,91.2901 19.5,88.5C 22.3126,88.7704 24.9792,89.2704 27.5,90C 25.8588,88.871 24.8588,87.371 24.5,85.5 Z"/></g>
<g><path style="opacity:0.866" fill="#737373" d="M 55.5,88.5 C 57.8176,90.1852 58.8176,92.5185 58.5,95.5C 57.7109,95.2172 57.0442,94.7172 56.5,94C 51.5111,93.5007 46.5111,93.3341 41.5,93.5C 40.4583,92.2089 39.2917,92.2089 38,93.5C 37.3076,92.9747 36.8076,92.3081 36.5,91.5C 42.9875,90.8332 49.3208,90.1666 55.5,89.5C 55.5,89.1667 55.5,88.8333 55.5,88.5 Z"/></g>
<g><path style="opacity:0.954" fill="#6a6a6c" d="M 120.5,90.5 C 126.833,90.5 133.167,90.5 139.5,90.5C 139.5,91.8333 139.5,93.1667 139.5,94.5C 137.784,94.3713 136.117,94.038 134.5,93.5C 130.167,93.5 125.833,93.5 121.5,93.5C 120.909,92.8485 120.243,92.1818 119.5,91.5C 119.624,90.8933 119.957,90.56 120.5,90.5 Z"/></g>
<g><path style="opacity:0.896" fill="#69696b" d="M 59.5,88.5 C 59.5,88.8333 59.5,89.1667 59.5,89.5C 67.6499,90.4927 75.9832,90.8261 84.5,90.5C 84.0825,91.2216 83.4158,91.7216 82.5,92C 83.4158,92.2784 84.0825,92.7784 84.5,93.5C 77.1667,93.5 69.8333,93.5 62.5,93.5C 60.8007,93.5271 59.4674,94.1938 58.5,95.5C 58.8176,92.5185 57.8176,90.1852 55.5,88.5C 55.7086,87.0783 56.2086,85.745 57,84.5C 57.2004,86.3197 58.0337,87.653 59.5,88.5 Z"/></g>
<g><path style="opacity:0.903" fill="#6d6d6f" d="M 118.5,91.5 C 117.766,92.7079 117.433,94.0413 117.5,95.5C 117.672,96.4916 117.338,97.1583 116.5,97.5C 115.341,96.2597 114.341,94.9264 113.5,93.5C 107.5,93.5 101.5,93.5 95.5,93.5C 95.3893,92.8826 95.056,92.3826 94.5,92C 102.674,91.6157 110.674,91.449 118.5,91.5 Z"/></g>
<g><path style="opacity:0.508" fill="#b1b1b2" d="M 84.5,93.5 C 86.4684,101.433 87.135,109.766 86.5,118.5C 85.209,118.737 84.209,118.404 83.5,117.5C 84.8232,114.062 85.4898,110.229 85.5,106C 85.4696,101.752 85.1362,97.5856 84.5,93.5 Z"/></g>
<g><path style="opacity:0.609" fill="#999a9c" d="M 89.5,93.5 C 89.1739,102.017 89.5073,110.35 90.5,118.5C 89.8333,119.833 89.1667,119.833 88.5,118.5C 88.1739,109.983 88.5073,101.65 89.5,93.5 Z"/></g>
<g><path style="opacity:0.98" fill="#808282" d="M 134.5,93.5 C 136.117,94.038 137.784,94.3713 139.5,94.5C 135.57,101.432 130.236,107.099 123.5,111.5C 121.519,110.895 121.185,109.895 122.5,108.5C 125.796,104.702 129.296,101.036 133,97.5C 133.791,96.255 134.291,94.9217 134.5,93.5 Z"/></g>
<g><path style="opacity:0.957" fill="#848484" d="M 62.5,93.5 C 64.8213,99.478 68.1546,104.811 72.5,109.5C 71.7777,110.551 70.7777,111.218 69.5,111.5C 64.3549,107.218 60.6882,101.885 58.5,95.5C 59.4674,94.1938 60.8007,93.5271 62.5,93.5 Z"/></g>
<g><path style="opacity:0.973" fill="#828282" d="M 113.5,93.5 C 114.341,94.9264 115.341,96.2597 116.5,97.5C 114.822,102.197 112.156,106.197 108.5,109.5C 106.973,109.573 105.973,108.906 105.5,107.5C 109.209,103.414 111.876,98.747 113.5,93.5 Z"/></g>
<g><path style="opacity:0.337" fill="#ddc2c4" d="M 142.5,107.5 C 141.417,107.461 140.417,107.127 139.5,106.5C 138.702,106.957 138.369,107.624 138.5,108.5C 136.636,107.166 135.47,105.5 135,103.5C 137.849,104.378 140.349,105.711 142.5,107.5 Z"/></g>
<g><path style="opacity:0.043" fill="#f8d8d9" d="M 142.5,107.5 C 144.027,107.427 145.027,108.094 145.5,109.5C 144.833,109.5 144.167,109.5 143.5,109.5C 143.167,108.833 142.833,108.167 142.5,107.5 Z"/></g>
<g><path style="opacity:1" fill="#878788" d="M 40.5,95.5 C 46.2973,102.969 53.2973,108.969 61.5,113.5C 62.4908,115.123 61.8241,116.123 59.5,116.5C 50.6579,112.658 43.6579,106.658 38.5,98.5C 39.5511,97.7777 40.2178,96.7777 40.5,95.5 Z"/></g>
<g><path style="opacity:1" fill="#9d3c45" d="M 142.5,107.5 C 142.833,108.167 143.167,108.833 143.5,109.5C 141.94,111.156 140.94,113.156 140.5,115.5C 140.662,113.473 140.495,111.473 140,109.5C 139.617,108.944 139.117,108.611 138.5,108.5C 138.369,107.624 138.702,106.957 139.5,106.5C 140.417,107.127 141.417,107.461 142.5,107.5 Z"/></g>
<g><path style="opacity:0.996" fill="#bb6169" d="M 143.5,109.5 C 144.167,109.5 144.833,109.5 145.5,109.5C 147.262,110.262 148.262,111.596 148.5,113.5C 148.5,115.167 148.5,116.833 148.5,118.5C 148.167,119.5 147.5,120.167 146.5,120.5C 144.973,120.427 143.973,121.094 143.5,122.5C 143.158,123.338 142.492,123.672 141.5,123.5C 143.28,120.789 145.28,118.289 147.5,116C 147.018,113.216 145.685,111.049 143.5,109.5 Z"/></g>
<g><path style="opacity:0.967" fill="#8a8a8a" d="M 105.5,107.5 C 105.973,108.906 106.973,109.573 108.5,109.5C 106.14,112.527 103.473,115.194 100.5,117.5C 99.8333,117.5 99.5,117.833 99.5,118.5C 96.3614,119.844 96.0281,119.344 98.5,117C 97.436,115.489 96.1026,115.323 94.5,116.5C 98.3504,113.739 102.017,110.739 105.5,107.5 Z"/></g>
<g><path style="opacity:1" fill="#8b898a" d="M 122.5,108.5 C 121.185,109.895 121.519,110.895 123.5,111.5C 117.71,116.395 111.043,119.729 103.5,121.5C 104.494,119.146 103.494,118.146 100.5,118.5C 100.5,118.167 100.5,117.833 100.5,117.5C 108.292,115.603 115.626,112.603 122.5,108.5 Z"/></g>
<g><path style="opacity:0.98" fill="#858585" d="M 72.5,109.5 C 76.1902,112.199 79.8569,114.865 83.5,117.5C 81.6336,118.014 79.8003,118.68 78,119.5C 77.2352,119.43 76.7352,119.097 76.5,118.5C 77.5573,117.794 77.2239,117.461 75.5,117.5C 73.5,115.5 71.5,113.5 69.5,111.5C 70.7777,111.218 71.7777,110.551 72.5,109.5 Z"/></g>
<g><path style="opacity:0.051" fill="#fdd8d7" d="M 138.5,108.5 C 139.117,108.611 139.617,108.944 140,109.5C 140.495,111.473 140.662,113.473 140.5,115.5C 139.833,116.167 139.167,116.833 138.5,117.5C 139.833,114.5 139.833,111.5 138.5,108.5 Z"/></g>
<g><path style="opacity:1" fill="#c9283e" d="M 143.5,109.5 C 145.685,111.049 147.018,113.216 147.5,116C 145.28,118.289 143.28,120.789 141.5,123.5C 140.5,123.5 139.5,123.5 138.5,123.5C 134.446,123.79 133.946,123.123 137,121.5C 137.791,120.255 138.291,118.922 138.5,117.5C 139.167,116.833 139.833,116.167 140.5,115.5C 140.94,113.156 141.94,111.156 143.5,109.5 Z"/></g>
<g><path style="opacity:0.361" fill="#fdd4d7" d="M 148.5,113.5 C 149.167,113.833 149.833,114.167 150.5,114.5C 150.5,115.167 150.5,115.833 150.5,116.5C 149.833,117.167 149.167,117.833 148.5,118.5C 148.5,116.833 148.5,115.167 148.5,113.5 Z"/></g>
<g><path style="opacity:0.974" fill="#8b8b8b" d="M 61.5,113.5 C 66.0066,115.447 70.6733,116.781 75.5,117.5C 75.5,117.833 75.5,118.167 75.5,118.5C 71.551,118.693 71.551,119.193 75.5,120C 74.8333,120.333 74.1667,120.667 73.5,121C 74.4158,121.278 75.0825,121.778 75.5,122.5C 69.715,121.464 64.3817,119.464 59.5,116.5C 61.8241,116.123 62.4908,115.123 61.5,113.5 Z"/></g>
<g><path style="opacity:0.995" fill="#767678" d="M 99.5,118.5 C 99.8333,118.5 100.167,118.5 100.5,118.5C 103.494,118.146 104.494,119.146 103.5,121.5C 94.2429,123.681 84.9096,124.014 75.5,122.5C 75.0825,121.778 74.4158,121.278 73.5,121C 74.1667,120.667 74.8333,120.333 75.5,120C 71.551,119.193 71.551,118.693 75.5,118.5C 75.8333,118.5 76.1667,118.5 76.5,118.5C 76.7352,119.097 77.2352,119.43 78,119.5C 79.8003,118.68 81.6336,118.014 83.5,117.5C 84.209,118.404 85.209,118.737 86.5,118.5C 87.1667,118.5 87.8333,118.5 88.5,118.5C 89.1667,119.833 89.8333,119.833 90.5,118.5C 91.6049,117.4 92.9382,116.733 94.5,116.5C 96.1026,115.323 97.436,115.489 98.5,117C 96.0281,119.344 96.3614,119.844 99.5,118.5 Z"/></g>
<g><path style="opacity:0.094" fill="#fdd2d7" d="M 135.5,120.5 C 134.101,121.89 132.434,122.89 130.5,123.5C 131.401,121.273 133.067,120.273 135.5,120.5 Z"/></g>
<g><path style="opacity:0.016" fill="#fbdadb" d="M 146.5,120.5 C 146.027,121.906 145.027,122.573 143.5,122.5C 143.973,121.094 144.973,120.427 146.5,120.5 Z"/></g>
<g><path style="opacity:1" fill="#b0434e" d="M 138.5,117.5 C 138.291,118.922 137.791,120.255 137,121.5C 133.946,123.123 134.446,123.79 138.5,123.5C 138.167,124.167 137.833,124.833 137.5,125.5C 132.763,126.077 128.096,127.077 123.5,128.5C 122.833,128.333 122.167,128.167 121.5,128C 122.416,127.722 123.082,127.222 123.5,126.5C 126.346,126.448 128.68,125.448 130.5,123.5C 132.434,122.89 134.101,121.89 135.5,120.5C 136.167,119.167 137.167,118.167 138.5,117.5 Z"/></g>
<g><path style="opacity:0.016" fill="#f9dedd" d="M 138.5,123.5 C 139.5,123.5 140.5,123.5 141.5,123.5C 140.486,124.674 139.153,125.34 137.5,125.5C 137.833,124.833 138.167,124.167 138.5,123.5 Z"/></g>
<g><path style="opacity:0.2" fill="#efbfc6" d="M 130.5,123.5 C 128.68,125.448 126.346,126.448 123.5,126.5C 125.395,124.759 127.728,123.759 130.5,123.5 Z"/></g>
<g><path style="opacity:0.62" fill="#e6c7cb" d="M 137.5,125.5 C 133.204,127.291 128.871,128.958 124.5,130.5C 120.5,130.5 116.5,130.5 112.5,130.5C 113.058,129.21 114.058,128.377 115.5,128C 118.168,127.433 120.834,126.933 123.5,126.5C 123.082,127.222 122.416,127.722 121.5,128C 122.167,128.167 122.833,128.333 123.5,128.5C 128.096,127.077 132.763,126.077 137.5,125.5 Z"/></g>
</svg>
