<?xml version="1.0" encoding="UTF-8"?>
<!DOCTYPE svg PUBLIC "-//W3C//DTD SVG 1.1//EN" "http://www.w3.org/Graphics/SVG/1.1/DTD/svg11.dtd">
<svg xmlns="http://www.w3.org/2000/svg" version="1.1" width="862px" height="144px" style="shape-rendering:geometricPrecision; text-rendering:geometricPrecision; image-rendering:optimizeQuality; fill-rule:evenodd; clip-rule:evenodd" xmlns:xlink="http://www.w3.org/1999/xlink">
<g><path style="opacity:0.981" fill="#fdfdfd" d="M 33.5,22.5 C 35.0418,23.3007 36.7085,23.634 38.5,23.5C 38.3063,30.4988 38.6396,37.1655 39.5,43.5C 46.4302,42.9341 53.4302,42.9341 60.5,43.5C 60.5,48.1667 60.5,52.8333 60.5,57.5C 53.1591,57.3337 45.8258,57.5003 38.5,58C 38.3748,75.0205 38.5415,92.1872 39,109.5C 39.504,113.02 41.3374,115.52 44.5,117C 49.4496,117.262 54.2829,117.429 59,117.5C 59.6667,121.833 59.6667,126.167 59,130.5C 45.4459,136.89 33.7793,134.223 24,122.5C 23.03,119.256 21.8634,116.09 20.5,113C 19.4342,94.9477 19.4342,76.9477 20.5,59C 19.5838,58.6258 18.7504,58.1258 18,57.5C 14.7121,57.6584 11.2121,57.6584 7.5,57.5C 7.17252,52.456 7.50585,47.456 8.5,42.5C 12.3765,43.0875 16.2098,43.4209 20,43.5C 19.2652,38.1618 19.4319,32.8284 20.5,27.5C 23.374,27.3766 25.874,26.3766 28,24.5C 28.414,24.9574 28.914,25.2907 29.5,25.5C 31.483,25.1852 32.8163,24.1852 33.5,22.5 Z"/></g>
<g><path style="opacity:0.961" fill="#fcfcfc" d="M 147.5,40.5 C 156.796,41.0563 165.13,43.5563 172.5,48C 177.526,53.9986 181.192,60.6653 183.5,68C 183.708,83.0226 183.374,98.356 182.5,114C 183.217,118.953 183.883,123.953 184.5,129C 184.095,129.945 183.428,130.612 182.5,131C 177.465,131.384 172.632,131.551 168,131.5C 167.654,128.424 166.988,125.424 166,122.5C 153.214,134.443 139.381,136.61 124.5,129C 112.649,118.375 110.316,105.875 117.5,91.5C 123.723,83.5175 131.223,78.8508 140,77.5C 141.439,75.9861 142.939,75.6527 144.5,76.5C 148.543,75.7142 152.543,74.7142 156.5,73.5C 159.058,73.5791 161.558,73.9124 164,74.5C 164.974,66.728 162.141,60.8947 155.5,57C 146.885,54.4522 138.718,55.2855 131,59.5C 130.667,59.1667 130.333,58.8333 130,58.5C 127.901,59.4664 126.068,60.7997 124.5,62.5C 122.547,59.0723 120.88,55.0723 119.5,50.5C 120.263,49.2807 121.263,48.2807 122.5,47.5C 125.095,45.5916 127.595,44.2583 130,43.5C 130.333,43.8333 130.667,44.1667 131,44.5C 136.507,42.7837 142.007,41.4504 147.5,40.5 Z M 157.5,87.5 C 159.477,88.1495 161.31,88.1495 163,87.5C 164.059,87.6301 164.892,88.1301 165.5,89C 165.551,93.6318 165.384,98.4652 165,103.5C 162.771,111.533 157.938,116.533 150.5,118.5C 147.003,118.472 143.336,118.306 139.5,118C 134.615,115.584 131.948,111.584 131.5,106C 132.228,102.372 133.394,98.8724 135,95.5C 138.196,93.2367 141.53,91.2367 145,89.5C 146.343,90.2135 147.676,89.8802 149,88.5C 149.333,88.8333 149.667,89.1667 150,89.5C 152.607,88.8767 155.107,88.21 157.5,87.5 Z"/></g>
<g><path style="opacity:0.969" fill="#fdfdfd" d="M 211.5,51.5 C 216.76,47.3398 222.594,44.0065 229,41.5C 249.524,38.7227 263.024,47.5561 269.5,68C 269.588,88.8624 269.588,109.529 269.5,130C 263.167,132 256.833,132 250.5,130C 250.307,112.346 250.641,94.6794 251.5,77C 248.436,58.8055 238.436,53.1389 221.5,60C 218.135,62.7068 215.468,66.0401 213.5,70C 214.654,70.9138 214.487,71.7471 213,72.5C 212.833,91.8419 212.333,111.175 211.5,130.5C 205.439,131.951 199.439,131.784 193.5,130C 194.27,103.363 194.603,77.0295 194.5,51C 192.571,48.0886 192.404,45.2553 194,42.5C 199.239,41.9443 204.739,42.6109 210.5,44.5C 210.291,45.086 209.957,45.586 209.5,46C 211.262,47.762 211.928,49.5953 211.5,51.5 Z M 211.5,51.5 C 212.895,52.6477 212.728,53.6477 211,54.5C 210.26,53.2506 210.427,52.2506 211.5,51.5 Z"/></g>
<g><path style="opacity:0.968" fill="#fcfcfc" d="M 306.5,40.5 C 311.654,40.5947 316.988,41.428 322.5,43C 326.319,44.0735 329.652,45.9068 332.5,48.5C 330.73,49.8196 330.397,51.3196 331.5,53C 329.741,55.4592 328.074,57.9592 326.5,60.5C 322.43,58.7192 318.263,57.0525 314,55.5C 311.15,55.5749 308.316,55.5749 305.5,55.5C 302.659,57.0864 299.993,58.9197 297.5,61C 297.833,61.3333 298.167,61.6667 298.5,62C 295.781,66.4251 296.448,70.4251 300.5,74C 307.608,77.304 314.775,80.4707 322,83.5C 331.956,89.9136 336.456,99.0803 335.5,111C 331.306,122.578 323.806,129.411 313,131.5C 311.559,132.26 310.059,132.926 308.5,133.5C 304.635,132.194 300.802,132.194 297,133.5C 294.876,132.773 292.709,132.106 290.5,131.5C 289.094,132.668 287.928,132.335 287,130.5C 285.667,130.5 284.333,130.5 283,130.5C 280.704,128.943 278.538,127.276 276.5,125.5C 275.911,123.627 276.578,121.96 278.5,120.5C 278.291,119.914 277.957,119.414 277.5,119C 279.177,117.005 280.677,114.839 282,112.5C 292.246,118.911 302.746,120.078 313.5,116C 316.63,112.785 317.964,109.118 317.5,105C 314.831,99.9797 310.831,96.313 305.5,94C 294.146,91.212 285.479,84.8787 279.5,75C 278.324,69.6846 278.324,64.3513 279.5,59C 281.43,56.7417 282.93,54.2417 284,51.5C 290.808,45.558 298.308,41.8913 306.5,40.5 Z"/></g>
<g><path style="opacity:0.97" fill="#fcfcfc" d="M 395.5,40.5 C 399.306,40.412 402.972,41.0787 406.5,42.5C 411.36,42.6167 416.027,44.1167 420.5,47C 418.463,51.2783 417.13,55.7783 416.5,60.5C 403.185,54.7771 390.518,55.2771 378.5,62C 373.556,67.8219 370.222,74.1552 368.5,81C 368.283,112.768 383.616,123.935 414.5,114.5C 415.647,114.818 416.481,115.484 417,116.5C 418.166,120.145 418.833,123.812 419,127.5C 409.044,132.143 398.377,134.143 387,133.5C 359.89,126.104 347.39,108.604 349.5,81C 350.167,79.3333 350.833,77.6667 351.5,76C 350.892,73.8159 351.559,71.8159 353.5,70C 353.167,69.6667 352.833,69.3333 352.5,69C 361.492,51.5002 375.825,42.0002 395.5,40.5 Z"/></g>
<g><path style="opacity:0.975" fill="#fcfcfc" d="M 462.5,40.5 C 473.543,40.6939 483.876,43.8605 493.5,50C 497.102,53.7288 500.435,57.7288 503.5,62C 503.167,62.3333 502.833,62.6667 502.5,63C 503.5,64 504.5,65 505.5,66C 505.152,68.0545 505.819,70.0545 507.5,72C 506.715,74.0417 507.048,76.0417 508.5,78C 508.482,84.1367 508.482,90.3033 508.5,96.5C 508.023,97.4776 507.357,98.3109 506.5,99C 506.935,101.398 506.269,103.731 504.5,106C 504.833,106.333 505.167,106.667 505.5,107C 503.368,107.918 502.701,109.251 503.5,111C 490.11,130.35 472.61,136.85 451,130.5C 437.867,126.701 429.367,118.201 425.5,105C 423.705,101.151 422.371,97.151 421.5,93C 421.511,90.3168 421.511,87.6502 421.5,85C 424.425,59.9194 438.092,45.086 462.5,40.5 Z M 460.5,55.5 C 475.198,54.968 484.531,62.1346 488.5,77C 488.167,77.3333 487.833,77.6667 487.5,78C 488.459,79.7073 489.125,81.5406 489.5,83.5C 488.861,86.8492 488.861,90.0159 489.5,93C 488.237,94.7051 487.903,96.3718 488.5,98C 486.551,101.368 484.717,105.202 483,109.5C 474.297,119.203 464.131,121.037 452.5,115C 447.231,109.8 443.565,103.967 441.5,97.5C 441.833,96.8333 442.167,96.1667 442.5,95.5C 439.861,90.3011 439.861,85.1344 442.5,80C 441.521,78.2215 441.854,76.5548 443.5,75C 443.167,74.6667 442.833,74.3333 442.5,74C 444.382,71.022 445.882,67.8553 447,64.5C 450.871,60.3312 455.371,57.3312 460.5,55.5 Z"/></g>
<g><path style="opacity:0.969" fill="#fcfcfc" d="M 541.5,40.5 C 545.576,39.881 549.576,40.5477 553.5,42.5C 554.086,42.2907 554.586,41.9574 555,41.5C 559.707,43.1032 563.873,45.6032 567.5,49C 565.606,50.0793 565.273,51.4126 566.5,53C 564.699,53.3173 564.366,53.984 565.5,55C 564.253,56.9465 562.92,58.7798 561.5,60.5C 557.518,58.4583 553.351,56.7917 549,55.5C 546.333,55.5 543.667,55.5 541,55.5C 535.747,57.7124 532.581,61.2124 531.5,66C 532.863,67.9449 533.697,70.1116 534,72.5C 541.802,76.2772 549.635,80.1105 557.5,84C 559.833,85.6667 562.167,87.3333 564.5,89C 573.737,102.817 572.071,115.484 559.5,127C 550.769,132.276 541.103,134.443 530.5,133.5C 528.326,132.137 526.159,131.803 524,132.5C 523.333,131.833 522.667,131.167 522,130.5C 520.667,130.5 519.333,130.5 518,130.5C 515.743,128.954 513.576,127.288 511.5,125.5C 512.884,120.951 514.717,116.618 517,112.5C 526.955,118.855 537.455,120.021 548.5,116C 553.194,111.071 553.194,105.405 548.5,99C 544.058,96.363 539.558,93.863 535,91.5C 524.642,88.4737 517.475,81.9737 513.5,72C 513.065,60.2739 517.732,51.2739 527.5,45C 530.196,44.2352 532.696,43.0685 535,41.5C 535.414,41.9574 535.914,42.2907 536.5,42.5C 538.336,41.9724 540.003,41.3058 541.5,40.5 Z"/></g>
<g><path style="opacity:0.977" fill="#fcfcfc" d="M 617.5,40.5 C 629.463,40.8976 638.963,45.8976 646,55.5C 661.134,38.0914 677.467,36.4247 695,50.5C 699.993,57.341 702.826,65.0077 703.5,73.5C 702.679,92.4565 702.179,111.456 702,130.5C 696.593,131.473 691.093,131.807 685.5,131.5C 684.462,113.17 684.296,94.8365 685,76.5C 684.282,66.9141 679.615,60.2475 671,56.5C 668.765,57.2393 666.765,57.2393 665,56.5C 657.902,58.5993 653.068,63.0993 650.5,70C 650.833,70.3333 651.167,70.6667 651.5,71C 650.707,72.0852 650.04,73.2519 649.5,74.5C 650.84,93.191 650.507,112.024 648.5,131C 643.113,131.784 637.78,131.618 632.5,130.5C 631.667,110.508 631.167,90.5083 631,70.5C 629.1,62.9489 624.767,58.2823 618,56.5C 606.918,56.757 599.751,62.757 596.5,74.5C 596.833,75.1667 597.167,75.8333 597.5,76.5C 596.68,94.4563 596.18,112.456 596,130.5C 590.213,131.428 584.546,131.762 579,131.5C 578.64,101.916 578.14,72.9159 577.5,44.5C 582.618,42.5593 587.785,41.8926 593,42.5C 595.289,46.002 596.289,49.6687 596,53.5C 600.311,47.2089 605.978,43.5423 613,42.5C 614.622,41.9011 616.122,41.2344 617.5,40.5 Z"/></g>
<g><path style="opacity:0.979" fill="#fcfcfc" d="M 743.5,41.5 C 759.77,39.1071 773.937,43.4404 786,54.5C 789.475,60.6478 792.641,66.4811 795.5,72C 795.043,72.414 794.709,72.914 794.5,73.5C 795.167,75.8333 795.833,78.1667 796.5,80.5C 796.397,84.8102 796.397,89.1436 796.5,93.5C 792.221,115.106 779.555,128.439 758.5,133.5C 731.776,133.874 715.443,121.374 709.5,96C 710.775,90.7107 710.775,85.3774 709.5,80C 712.144,68.459 718.144,58.1257 727.5,49C 732.612,45.8994 737.945,43.3994 743.5,41.5 Z M 748.5,55.5 C 751.249,56.0854 753.916,56.0854 756.5,55.5C 757.748,56.0402 758.915,56.7069 760,57.5C 760.333,57.1667 760.667,56.8333 761,56.5C 766.692,59.5252 771.025,63.8585 774,69.5C 775.776,73.7718 776.942,77.9384 777.5,82C 776.167,85.6667 776.167,89.3333 777.5,93C 775.969,101.377 771.969,108.71 765.5,115C 749.791,121.762 738.124,117.429 730.5,102C 730.5,100 730.5,98 730.5,96C 729.643,95.3109 728.977,94.4776 728.5,93.5C 729.22,90.045 729.22,86.045 728.5,81.5C 730.011,72.1357 734.344,64.469 741.5,58.5C 743.997,57.2989 746.331,56.2989 748.5,55.5 Z"/></g>
<g><path style="opacity:0.97" fill="#fcfcfc" d="M 824.5,41.5 C 832.319,41.0319 839.986,41.8653 847.5,44C 849.587,44.7922 851.421,45.9588 853,47.5C 852.04,51.8748 850.54,56.2082 848.5,60.5C 839.825,55.1811 830.825,54.3478 821.5,58C 820.257,59.1545 819.257,60.4878 818.5,62C 818.633,64.5991 818.633,67.2657 818.5,70C 820.809,72.4866 823.476,74.4866 826.5,76C 834.926,79.372 842.593,83.372 849.5,88C 859.935,100.118 859.935,112.118 849.5,124C 846.833,126 844.167,128 841.5,130C 826.295,135.251 811.628,133.918 797.5,126C 799.204,121.428 801.037,116.928 803,112.5C 811.504,117.584 820.671,119.417 830.5,118C 838.626,114.374 840.626,108.541 836.5,100.5C 835.5,99.6667 834.5,98.8333 833.5,98C 826.794,94.7208 820.127,91.3874 813.5,88C 800.487,79.0759 797.32,67.9092 804,54.5C 809.367,47.7397 816.2,43.4063 824.5,41.5 Z"/></g>
<g><path style="opacity:0.263" fill="#68cac0" d="M 114.5,44.5 C 113.833,44.1667 113.167,43.8333 112.5,43.5C 108.398,41.0716 104.065,40.9049 99.5,43C 96.556,44.8837 93.556,46.3837 90.5,47.5C 96.8911,40.8791 104.558,39.0458 113.5,42C 114.252,42.6708 114.586,43.5041 114.5,44.5 Z"/></g>
<g><path style="opacity:0.984" fill="#fcfdfd" d="M 88.5,48.5 C 86.4223,55.898 85.9223,63.5647 87,71.5C 87.3826,72.056 87.8826,72.3893 88.5,72.5C 87.5551,91.5409 87.2218,110.874 87.5,130.5C 81.905,131.147 76.2384,130.981 70.5,130C 70.0426,129.586 69.7093,129.086 69.5,128.5C 70.6107,99.3739 70.6107,70.7072 69.5,42.5C 74.2102,42.393 78.8769,42.2263 83.5,42C 85.0441,42.2896 86.3774,42.9563 87.5,44C 87.1667,44.3333 86.8333,44.6667 86.5,45C 87.0848,46.3024 87.7515,47.469 88.5,48.5 Z"/></g>
<g><path style="opacity:1" fill="#3bdbc8" d="M 112.5,43.5 C 113.103,48.6186 112.436,53.2853 110.5,57.5C 101.192,57.649 94.1918,61.649 89.5,69.5C 87.5467,63.9262 86.88,57.9262 87.5,51.5C 88.1667,51.5 88.5,51.1667 88.5,50.5C 89.3382,50.1583 89.6716,49.4916 89.5,48.5C 89.5,47.8333 89.8333,47.5 90.5,47.5C 93.556,46.3837 96.556,44.8837 99.5,43C 104.065,40.9049 108.398,41.0716 112.5,43.5 Z"/></g>
<g><path style="opacity:0.761" fill="#49a499" d="M 112.5,43.5 C 113.167,43.8333 113.833,44.1667 114.5,44.5C 114.563,49.2029 114.229,53.8696 113.5,58.5C 112.209,58.7373 111.209,58.404 110.5,57.5C 112.436,53.2853 113.103,48.6186 112.5,43.5 Z"/></g>
<g><path style="opacity:0.91" fill="#92dad1" d="M 88.5,48.5 C 88.8333,48.5 89.1667,48.5 89.5,48.5C 89.6716,49.4916 89.3382,50.1583 88.5,50.5C 87.8333,50.5 87.5,50.8333 87.5,51.5C 86.88,57.9262 87.5467,63.9262 89.5,69.5C 89.7373,70.791 89.404,71.791 88.5,72.5C 87.8826,72.3893 87.3826,72.056 87,71.5C 85.9223,63.5647 86.4223,55.898 88.5,48.5 Z"/></g>
</svg>
